SplineFontDB: 3.2
FontName: PustakaBali
FullName: Pustaka Bali
FamilyName: Pustaka Bali
Weight: Book
Copyright: Copyright 2020 Aditya Bayu Perdana. All Rights Reserved.
Version: 2.03 March 6, 2020
ItalicAngle: 0
UnderlinePosition: -125
UnderlineWidth: 50
Ascent: 800
Descent: 200
InvalidEm: 0
sfntRevision: 0x000207ae
LayerCount: 2
Layer: 0 1 "Back" 1
Layer: 1 1 "Fore" 0
XUID: [1021 231 -599577464 11180628]
StyleMap: 0x0040
FSType: 0
OS2Version: 1
OS2_WeightWidthSlopeOnly: 0
OS2_UseTypoMetrics: 0
CreationTime: 1584382373
ModificationTime: 1584382373
PfmFamily: 17
TTFWeight: 400
TTFWidth: 5
LineGap: 0
VLineGap: 0
Panose: 2 2 5 2 6 5 5 2 2 4
OS2TypoAscent: 1100
OS2TypoAOffset: 0
OS2TypoDescent: -800
OS2TypoDOffset: 0
OS2TypoLinegap: 0
OS2WinAscent: 1100
OS2WinAOffset: 0
OS2WinDescent: 900
OS2WinDOffset: 0
HheadAscent: 1100
HheadAOffset: 0
HheadDescent: -800
HheadDOffset: 0
OS2SubXSize: 650
OS2SubYSize: 600
OS2SubXOff: 0
OS2SubYOff: 75
OS2SupXSize: 650
OS2SupYSize: 600
OS2SupXOff: 0
OS2SupYOff: 350
OS2StrikeYSize: 50
OS2StrikeYPos: 322
OS2Vendor: 'BAYU'
OS2CodePages: 00000001.00000000
OS2UnicodeRanges: 08000000.00000000.00000000.00000000
Lookup: 4 0 0 "'ccmp' Glyph Composition/Decomposition in Balinese lookup 0" { "'ccmp' Glyph Composition/Decomposition in Balinese lookup 0 subtable"  } ['ccmp' ('DFLT' <'dflt' > 'bali' <'dflt' > ) ]
Lookup: 2 0 0 "'ccmp' Glyph Composition/Decomposition in Balinese lookup 1" { "'ccmp' Glyph Composition/Decomposition in Balinese lookup 1 subtable"  } ['ccmp' ('DFLT' <'dflt' > 'bali' <'dflt' > ) ]
Lookup: 6 0 0 "'rphf' Reph Form in Balinese lookup 2" { "'rphf' Reph Form in Balinese lookup 2 subtable"  } ['rphf' ('bali' <'KAW ' > ) ]
Lookup: 4 0 0 "Ligature Substitution lookup 3" { "Ligature Substitution lookup 3 subtable"  } []
Lookup: 4 0 0 "'blwf' Below Base Forms in Balinese lookup 4" { "'blwf' Below Base Forms in Balinese lookup 4 subtable"  } ['blwf' ('DFLT' <'dflt' > 'bali' <'dflt' > ) ]

StartChar: .notdef
Encoding: 65536 -1 0
Width: 600
GlyphClass: 2
Flags: W
LayerCount: 2
Fore
SplineSet
94 0 m 1,0,-1
 94 714 l 1,1,-1
 505 714 l 1,2,-1
 505 0 l 1,3,-1
 94 0 l 1,0,-1
145 663 m 1,4,-1
 145 51 l 1,5,-1
 454 51 l 1,6,-1
 454 663 l 1,7,-1
 145 663 l 1,4,-1
EndSplineSet
EndChar

StartChar: uni1B00
Encoding: 6912 6912 5
Width: 0
GlyphClass: 4
Flags: W
AnchorPoint: "Anchor-0" -366 505 mark 0
LayerCount: 2
Fore
SplineSet
-221 501 m 1,0,-1
 -253 525 l 1,1,2
 -217 596 -217 596 -217 663 c 2,3,-1
 -217 676 l 1,4,5
 -227 828 -227 828 -367 828 c 2,6,-1
 -377 828 l 2,7,8
 -518 828 -518 828 -526 676 c 2,9,-1
 -527 660 l 1,10,11
 -527 595 -527 595 -491 525 c 1,12,-1
 -523 501 l 1,13,14
 -601 596 -601 596 -601 688 c 2,15,-1
 -601 699 l 1,16,17
 -597 797 -597 797 -538.5 854 c 128,-1,18
 -480 911 -480 911 -377 911 c 2,19,-1
 -367 911 l 2,20,21
 -264 911 -264 911 -205.5 854 c 128,-1,22
 -147 797 -147 797 -142 699 c 1,23,-1
 -142 690 l 2,24,25
 -142 597 -142 597 -221 501 c 1,0,-1
-317 548 m 1,26,-1
 -342 572 l 1,27,28
 -320 597 -320 597 -320 630 c 0,29,30
 -322 689 -322 689 -372 689 c 0,31,32
 -423 689 -423 689 -425 630 c 0,33,34
 -425 597 -425 597 -403 572 c 1,35,-1
 -428 548 l 1,36,37
 -481 591 -481 591 -481 651 c 0,38,39
 -481 697 -481 697 -452 725 c 128,-1,40
 -423 753 -423 753 -372 753 c 0,41,42
 -322 753 -322 753 -293 725 c 128,-1,43
 -264 697 -264 697 -264 651 c 0,44,45
 -264 591 -264 591 -317 548 c 1,26,-1
EndSplineSet
Ligature2: "'liga' Standard Ligatures in Balinese lookup 357 subtable" _reorder uni1B00
MultipleSubs2: "Multiple Substitution lookup 303 subtable" uni1B00 _reorder
Ligature2: "'liga' Standard Ligatures in Balinese lookup 301 subtable" _reorder uni1B00
MultipleSubs2: "Multiple Substitution lookup 247 subtable" uni1B00 _reorder
Ligature2: "'liga' Standard Ligatures in Balinese lookup 245 subtable" _reorder uni1B00
MultipleSubs2: "Multiple Substitution lookup 191 subtable" uni1B00 _reorder
Ligature2: "'liga' Standard Ligatures in Balinese lookup 184 subtable" _reorder uni1B00
MultipleSubs2: "Multiple Substitution lookup 130 subtable" uni1B00 _reorder
Ligature2: "'liga' Standard Ligatures in Balinese lookup 128 subtable" _reorder uni1B00
MultipleSubs2: "Multiple Substitution lookup 74 subtable" uni1B00 _reorder
Ligature2: "'liga' Standard Ligatures in Balinese lookup 72 subtable" _reorder uni1B00
MultipleSubs2: "Multiple Substitution lookup 18 subtable" uni1B00 _reorder
EndChar

StartChar: uni1B01
Encoding: 6913 6913 6
Width: 0
GlyphClass: 4
Flags: W
AnchorPoint: "Anchor-0" -274 494 mark 0
LayerCount: 2
Fore
SplineSet
-307 675 m 1,0,-1
 -296 926 l 1,1,-1
 -261 926 l 1,2,-1
 -249 675 l 1,3,4
 -229 667 -229 667 -213 650 c 0,5,6
 -191 626 -191 626 -187 578 c 1,7,8
 -179 581 -179 581 -172 586 c 0,9,10
 -126 612 -126 612 -101 663 c 1,11,-1
 -76 650 l 1,12,13
 -112 499 -112 499 -271 495 c 1,14,-1
 -294 495 l 1,15,16
 -453 499 -453 499 -489 650 c 1,17,-1
 -464 663 l 1,18,19
 -439 612 -439 612 -393 586 c 0,20,21
 -383 579 -383 579 -370 574 c 1,22,23
 -367 625 -367 625 -344 650 c 0,24,25
 -327 668 -327 668 -307 675 c 1,0,-1
-236 563 m 1,26,27
 -238 594 -238 594 -245 611 c 0,28,29
 -256 630 -256 630 -279 630 c 0,30,31
 -301 630 -301 630 -311 611 c 0,32,33
 -320 594 -320 594 -321 562 c 1,34,35
 -303 560 -303 560 -283 560 c 0,36,37
 -257 560 -257 560 -236 563 c 1,26,27
EndSplineSet
Ligature2: "'liga' Standard Ligatures in Balinese lookup 357 subtable" _reorder uni1B01
MultipleSubs2: "Multiple Substitution lookup 304 subtable" uni1B01 _reorder
Ligature2: "'liga' Standard Ligatures in Balinese lookup 301 subtable" _reorder uni1B01
MultipleSubs2: "Multiple Substitution lookup 248 subtable" uni1B01 _reorder
Ligature2: "'liga' Standard Ligatures in Balinese lookup 245 subtable" _reorder uni1B01
MultipleSubs2: "Multiple Substitution lookup 192 subtable" uni1B01 _reorder
Ligature2: "'liga' Standard Ligatures in Balinese lookup 184 subtable" _reorder uni1B01
MultipleSubs2: "Multiple Substitution lookup 131 subtable" uni1B01 _reorder
Ligature2: "'liga' Standard Ligatures in Balinese lookup 128 subtable" _reorder uni1B01
MultipleSubs2: "Multiple Substitution lookup 75 subtable" uni1B01 _reorder
Ligature2: "'liga' Standard Ligatures in Balinese lookup 72 subtable" _reorder uni1B01
MultipleSubs2: "Multiple Substitution lookup 19 subtable" uni1B01 _reorder
EndChar

StartChar: uni1B02
Encoding: 6914 6914 7
Width: 0
GlyphClass: 4
Flags: W
AnchorPoint: "Anchor-0" -225 502 mark 0
LayerCount: 2
Fore
SplineSet
-165 503 m 1,0,1
 -207 643 -207 643 -301 724 c 1,2,-1
 -252 783 l 1,3,4
 -140 711 -140 711 -140 522 c 2,5,-1
 -140 508 l 1,6,-1
 -165 503 l 1,0,1
EndSplineSet
Ligature2: "'liga' Standard Ligatures in Balinese lookup 357 subtable" _reorder uni1B02
MultipleSubs2: "Multiple Substitution lookup 305 subtable" uni1B02 _reorder
Ligature2: "'liga' Standard Ligatures in Balinese lookup 301 subtable" _reorder uni1B02
MultipleSubs2: "Multiple Substitution lookup 249 subtable" uni1B02 _reorder
Ligature2: "'liga' Standard Ligatures in Balinese lookup 245 subtable" _reorder uni1B02
MultipleSubs2: "Multiple Substitution lookup 193 subtable" uni1B02 _reorder
Ligature2: "'liga' Standard Ligatures in Balinese lookup 184 subtable" _reorder uni1B02
MultipleSubs2: "Multiple Substitution lookup 132 subtable" uni1B02 _reorder
Ligature2: "'liga' Standard Ligatures in Balinese lookup 128 subtable" _reorder uni1B02
MultipleSubs2: "Multiple Substitution lookup 76 subtable" uni1B02 _reorder
Ligature2: "'liga' Standard Ligatures in Balinese lookup 72 subtable" _reorder uni1B02
MultipleSubs2: "Multiple Substitution lookup 20 subtable" uni1B02 _reorder
EndChar

StartChar: uni1B03
Encoding: 6915 6915 8
Width: 0
GlyphClass: 4
Flags: W
LayerCount: 2
Fore
SplineSet
-335 497 m 0,0,1
 -379 497 -379 497 -419 510 c 0,2,3
 -525 545 -525 545 -525 657 c 0,4,5
 -525 716 -525 716 -499 778 c 1,6,-1
 -462 767 l 1,7,8
 -471 720 -471 720 -471 691 c 0,9,10
 -471 556 -471 556 -277 556 c 0,11,12
 -241 556 -241 556 -202 562 c 1,13,-1
 -191 529 l 1,14,15
 -268 497 -268 497 -335 497 c 0,0,1
EndSplineSet
Ligature2: "'liga' Standard Ligatures in Balinese lookup 357 subtable" _reorder uni1B03
MultipleSubs2: "Multiple Substitution lookup 306 subtable" uni1B03 _reorder
Ligature2: "'liga' Standard Ligatures in Balinese lookup 301 subtable" _reorder uni1B03
MultipleSubs2: "Multiple Substitution lookup 250 subtable" uni1B03 _reorder
Ligature2: "'liga' Standard Ligatures in Balinese lookup 245 subtable" _reorder uni1B03
MultipleSubs2: "Multiple Substitution lookup 194 subtable" uni1B03 _reorder
Ligature2: "'liga' Standard Ligatures in Balinese lookup 184 subtable" _reorder uni1B03
MultipleSubs2: "Multiple Substitution lookup 133 subtable" uni1B03 _reorder
Ligature2: "'liga' Standard Ligatures in Balinese lookup 128 subtable" _reorder uni1B03
MultipleSubs2: "Multiple Substitution lookup 77 subtable" uni1B03 _reorder
Ligature2: "'liga' Standard Ligatures in Balinese lookup 72 subtable" _reorder uni1B03
MultipleSubs2: "Multiple Substitution lookup 21 subtable" uni1B03 _reorder
Ligature2: "Ligature Substitution lookup 3 subtable" uni1B2D uni1B44
Position2: "Single Positioning lookup 341 subtable" dx=-300 dy=180 dh=0 dv=0
Position2: "Single Positioning lookup 340 subtable" dx=-275 dy=0 dh=0 dv=0
Position2: "Single Positioning lookup 339 subtable" dx=-300 dy=0 dh=0 dv=0
Position2: "Single Positioning lookup 338 subtable" dx=-250 dy=0 dh=0 dv=0
Position2: "Single Positioning lookup 337 subtable" dx=70 dy=20 dh=0 dv=0
Position2: "Single Positioning lookup 336 subtable" dx=30 dy=20 dh=0 dv=0
Position2: "Single Positioning lookup 335 subtable" dx=0 dy=180 dh=0 dv=0
EndChar

StartChar: uni1B04
Encoding: 6916 6916 9
Width: 321
GlyphClass: 2
Flags: W
LayerCount: 2
Fore
SplineSet
224 -893 m 1,0,1
 85 -784 85 -784 85 -496 c 1,2,3
 89 -328 89 -328 166 -145 c 1,4,5
 199 -39 199 -39 200 -20 c 0,6,7
 200 86 200 86 53 159 c 1,8,-1
 55 213 l 1,9,10
 204 218 204 218 209 301 c 0,11,12
 209 357 209 357 150 357 c 0,13,14
 92 357 92 357 70 275 c 1,15,-1
 30 285 l 1,16,17
 43 418 43 418 163 422 c 0,18,19
 221 420 221 420 254 389.5 c 128,-1,20
 287 359 287 359 287 309 c 0,21,22
 287 205 287 205 158 176 c 1,23,24
 284 96 284 96 284 3 c 0,25,26
 284 -55 284 -55 250 -148 c 0,27,28
 166 -355 166 -355 166 -546 c 0,29,30
 166 -770 166 -770 253 -858 c 1,31,-1
 224 -893 l 1,0,1
EndSplineSet
EndChar

StartChar: uni1B09
Encoding: 6921 6921 14
Width: 641
GlyphClass: 2
Flags: W
AnchorPoint: "Anchor-0" 371 490 basechar 0
LayerCount: 2
Fore
SplineSet
624 -882 m 1,0,1
 598 -658 598 -658 472 -658 c 0,2,3
 394 -658 394 -658 273 -766 c 2,4,-1
 217 -816 l 1,5,6
 141 -875 141 -875 63 -875 c 0,7,8
 1 -875 1 -875 -41.5 -833 c 128,-1,9
 -84 -791 -84 -791 -84 -715 c 0,10,11
 -84 -669 -84 -669 -63 -622 c 0,12,13
 -25 -533 -25 -533 164.5 -299 c 128,-1,14
 354 -65 354 -65 422.5 33 c 128,-1,15
 491 131 491 131 491 216 c 0,16,17
 491 348 491 348 371 348 c 0,18,19
 316 348 316 348 284 301.5 c 128,-1,20
 252 255 252 255 252 163 c 0,21,22
 252 134 252 134 255 101 c 1,23,-1
 225 84 l 1,24,-1
 36 341 l 1,25,-1
 90 382 l 1,26,-1
 192 236 l 1,27,28
 196 316 196 316 248 368 c 128,-1,29
 300 420 300 420 386 420 c 0,30,31
 570 413 570 413 570 208 c 0,32,33
 570 145 570 145 533 61.5 c 128,-1,34
 496 -22 496 -22 282.5 -288 c 128,-1,35
 69 -554 69 -554 34.5 -614 c 128,-1,36
 0 -674 0 -674 0 -711 c 0,37,38
 0 -788 0 -788 76 -788 c 0,39,40
 124 -788 124 -788 242.5 -684 c 128,-1,41
 361 -580 361 -580 456 -580 c 0,42,43
 657 -580 657 -580 657 -856 c 1,44,-1
 656 -878 l 1,45,-1
 624 -882 l 1,0,1
EndSplineSet
Position2: "Single Positioning lookup 88 subtable" dx=214 dy=0 dh=214 dv=0
Position2: "Single Positioning lookup 81 subtable" dx=255 dy=0 dh=255 dv=0
Position2: "Single Positioning lookup 74 subtable" dx=173 dy=0 dh=173 dv=0
Position2: "Single Positioning lookup 67 subtable" dx=305 dy=0 dh=305 dv=0
Position2: "Single Positioning lookup 60 subtable" dx=275 dy=0 dh=275 dv=0
Position2: "Single Positioning lookup 53 subtable" dx=358 dy=0 dh=358 dv=0
EndChar

StartChar: uni1B10
Encoding: 6928 6928 21
Width: 997
GlyphClass: 2
Flags: W
AnchorPoint: "Anchor-0" 406 490 basechar 0
LayerCount: 2
Fore
SplineSet
796 0 m 1,0,-1
 717 0 l 1,1,-1
 717 265 l 2,2,3
 717 346 717 346 646 346 c 0,4,5
 583 346 583 346 564 267 c 1,6,-1
 509 267 l 1,7,8
 487 354 487 354 428 354 c 0,9,10
 360 354 360 354 360 248 c 0,11,12
 360 121 360 121 450 49 c 1,13,-1
 445 0 l 1,14,-1
 243 0 l 2,15,16
 152 0 152 0 123 67 c 0,17,18
 115 89 115 89 115 111 c 0,19,20
 115 146 115 146 133 182 c 2,21,-1
 177 274 l 2,22,23
 186 295 186 295 186 312 c 256,24,25
 186 329 186 329 175 341.5 c 128,-1,26
 164 354 164 354 147 354 c 2,27,-1
 136 353 l 1,28,29
 88 342 88 342 88 251 c 2,30,-1
 88 231 l 1,31,-1
 45 228 l 1,32,33
 30 270 30 270 30 303 c 0,34,35
 30 353 30 353 60.5 386 c 128,-1,36
 91 419 91 419 149 419 c 0,37,38
 202 419 202 419 231.5 388 c 128,-1,39
 261 357 261 357 261 310 c 0,40,41
 261 275 261 275 243 233 c 1,42,43
 197 149 197 149 197 110 c 0,44,45
 197 65 197 65 244 65 c 2,46,-1
 354 65 l 1,47,48
 283 128 283 128 283 245 c 0,49,50
 283 325 283 325 320.5 372 c 128,-1,51
 358 419 358 419 428 419 c 0,52,53
 515 417 515 417 539 359 c 1,54,55
 577 413 577 413 652 413 c 0,56,57
 796 413 796 413 796 261 c 2,58,-1
 796 0 l 1,0,-1
707 -879 m 2,59,-1
 396 -879 l 2,60,61
 211 -879 211 -879 134 -784 c 0,62,63
 80 -719 80 -719 80 -634 c 0,64,65
 80 -596 80 -596 91 -553 c 0,66,67
 126 -416 126 -416 327 -339.5 c 128,-1,68
 528 -263 528 -263 622.5 -197 c 128,-1,69
 717 -131 717 -131 717 -16 c 2,70,-1
 717 15 l 1,71,-1
 796 15 l 1,72,-1
 796 -6 l 1,73,74
 791 -181 791 -181 678.5 -253.5 c 128,-1,75
 566 -326 566 -326 395.5 -389 c 128,-1,76
 225 -452 225 -452 188 -550 c 0,77,78
 172 -593 172 -593 172 -631 c 0,79,80
 172 -682 172 -682 200 -725 c 0,81,82
 249 -800 249 -800 404 -801 c 2,83,-1
 700 -801 l 2,84,85
 872 -801 872 -801 872 -614 c 2,86,-1
 872 316 l 2,87,88
 871 415 871 415 847 468.5 c 128,-1,89
 823 522 823 522 787 524 c 2,90,-1
 784 524 l 2,91,92
 762 524 762 524 762 502 c 0,93,94
 762 463 762 463 837 463.5 c 128,-1,95
 912 464 912 464 1012 595 c 1,96,-1
 1054 565 l 1,97,98
 956 414 956 414 870.5 402 c 128,-1,99
 785 390 785 390 737 422.5 c 128,-1,100
 689 455 689 455 689 513 c 0,101,102
 689 550 689 550 713.5 573.5 c 128,-1,103
 738 597 738 597 782 597 c 0,104,105
 796 597 796 597 812 593 c 0,106,107
 947 564 947 564 947 287 c 2,108,-1
 947 263 l 1,109,-1
 947 -611 l 1,110,111
 942 -879 942 -879 707 -879 c 2,59,-1
EndSplineSet
Position2: "Single Positioning lookup 89 subtable" dx=100 dy=0 dh=100 dv=0
Position2: "Single Positioning lookup 82 subtable" dx=141 dy=0 dh=141 dv=0
Position2: "Single Positioning lookup 75 subtable" dx=59 dy=0 dh=59 dv=0
Position2: "Single Positioning lookup 68 subtable" dx=191 dy=0 dh=191 dv=0
Position2: "Single Positioning lookup 61 subtable" dx=161 dy=0 dh=161 dv=0
Position2: "Single Positioning lookup 54 subtable" dx=244 dy=0 dh=244 dv=0
EndChar

StartChar: uni1B11
Encoding: 6929 6929 22
Width: 846
GlyphClass: 2
Flags: W
AnchorPoint: "Anchor-0" 540 490 basechar 0
LayerCount: 2
Fore
SplineSet
796 0 m 1,0,-1
 717 0 l 1,1,-1
 717 265 l 2,2,3
 717 346 717 346 646 346 c 0,4,5
 583 346 583 346 564 267 c 1,6,-1
 509 267 l 1,7,8
 487 354 487 354 428 354 c 0,9,10
 360 354 360 354 360 248 c 0,11,12
 360 121 360 121 450 49 c 1,13,-1
 445 0 l 1,14,-1
 243 0 l 2,15,16
 152 0 152 0 123 67 c 0,17,18
 115 89 115 89 115 111 c 0,19,20
 115 146 115 146 133 182 c 2,21,-1
 177 274 l 2,22,23
 186 295 186 295 186 312 c 256,24,25
 186 329 186 329 175 341.5 c 128,-1,26
 164 354 164 354 147 354 c 2,27,-1
 136 353 l 1,28,29
 88 342 88 342 88 251 c 2,30,-1
 88 231 l 1,31,-1
 45 228 l 1,32,33
 30 270 30 270 30 303 c 0,34,35
 30 353 30 353 60.5 386 c 128,-1,36
 91 419 91 419 149 419 c 0,37,38
 202 419 202 419 231.5 388 c 128,-1,39
 261 357 261 357 261 310 c 0,40,41
 261 275 261 275 243 233 c 1,42,43
 197 149 197 149 197 110 c 0,44,45
 197 65 197 65 244 65 c 2,46,-1
 354 65 l 1,47,48
 283 128 283 128 283 245 c 0,49,50
 283 325 283 325 320.5 372 c 128,-1,51
 358 419 358 419 428 419 c 0,52,53
 515 417 515 417 539 359 c 1,54,55
 577 413 577 413 652 413 c 0,56,57
 796 413 796 413 796 261 c 2,58,-1
 796 0 l 1,0,-1
772 -882 m 1,59,60
 745 -658 745 -658 621 -658 c 0,61,62
 542 -658 542 -658 424 -755 c 0,63,64
 272 -880 272 -880 181 -880 c 0,65,66
 104 -879 104 -879 57.5 -834.5 c 128,-1,67
 11 -790 11 -790 11 -712 c 0,68,69
 11 -676 11 -676 23 -636 c 0,70,71
 66 -515 66 -515 251.5 -425 c 128,-1,72
 437 -335 437 -335 577 -248 c 128,-1,73
 717 -161 717 -161 717 -16 c 2,74,-1
 717 76 l 1,75,-1
 796 76 l 1,76,-1
 796 -6 l 1,77,78
 791 -210 791 -210 630.5 -305 c 128,-1,79
 470 -400 470 -400 313 -481.5 c 128,-1,80
 156 -563 156 -563 116 -633 c 0,81,82
 97 -670 97 -670 97 -706 c 0,83,84
 97 -749 97 -749 116.5 -773 c 128,-1,85
 136 -797 136 -797 174 -797 c 2,86,-1
 185 -796 l 2,87,88
 249 -791 249 -791 399 -669 c 0,89,90
 508 -581 508 -581 606 -581 c 0,91,92
 804 -581 804 -581 804 -856 c 2,93,-1
 804 -878 l 1,94,-1
 772 -882 l 1,59,60
EndSplineSet
Position2: "Single Positioning lookup 90 subtable" dx=119 dy=0 dh=119 dv=0
Position2: "Single Positioning lookup 83 subtable" dx=160 dy=0 dh=160 dv=0
Position2: "Single Positioning lookup 76 subtable" dx=78 dy=0 dh=78 dv=0
Position2: "Single Positioning lookup 69 subtable" dx=210 dy=0 dh=210 dv=0
Position2: "Single Positioning lookup 62 subtable" dx=180 dy=0 dh=180 dv=0
Position2: "Single Positioning lookup 55 subtable" dx=263 dy=0 dh=263 dv=0
EndChar

StartChar: uni1B13
Encoding: 6931 6931 24
Width: 937
GlyphClass: 2
Flags: W
AnchorPoint: "Anchor-3" 508 0 basechar 0
AnchorPoint: "Anchor-0" 476 490 basechar 0
LayerCount: 2
Fore
SplineSet
447 54 m 0,0,1
 457 54 457 54 463.5 63.5 c 128,-1,2
 470 73 470 73 470 88 c 0,3,4
 470 105 470 105 457 120.5 c 128,-1,5
 444 136 444 136 417 139 c 1,6,-1
 417 100 l 2,7,8
 418 54 418 54 447 54 c 0,0,1
446 -1 m 0,9,10
 431 -1 431 -1 415 2 c 0,11,12
 349 21 349 21 342 104 c 1,13,-1
 342 141 l 1,14,-1
 288 141 l 1,15,-1
 288 194 l 1,16,-1
 342 194 l 1,17,-1
 342 234 l 2,18,19
 343 415 343 415 498 417 c 2,20,-1
 548 417 l 2,21,22
 638 416 638 416 676 359 c 1,23,-1
 684 370 l 2,24,25
 718 415 718 415 774 415 c 0,26,27
 885 415 885 415 887 288 c 2,28,-1
 887 0 l 1,29,-1
 808 0 l 1,30,-1
 808 293 l 2,31,32
 808 354 808 354 768 354 c 2,33,-1
 766 354 l 2,34,35
 723 352 723 352 704 304 c 1,36,-1
 704 0 l 1,37,-1
 624 0 l 1,38,-1
 624 240 l 2,39,40
 621 350 621 350 540 353 c 2,41,-1
 501 353 l 2,42,43
 420 350 420 350 417 259 c 2,44,-1
 417 194 l 1,45,46
 454 193 454 193 492 169.5 c 128,-1,47
 530 146 530 146 536 98 c 2,48,-1
 537 83 l 2,49,50
 537 47 537 47 512.5 23 c 128,-1,51
 488 -1 488 -1 446 -1 c 0,9,10
184 54 m 0,52,53
 212 54 212 54 213 100 c 2,54,-1
 213 139 l 1,55,56
 184 136 184 136 172 120 c 128,-1,57
 160 104 160 104 160 87 c 0,58,59
 160 54 160 54 184 54 c 0,52,53
147 175 m 1,60,61
 172 190 172 190 213 194 c 1,62,-1
 213 294 l 2,63,64
 213 350 213 350 163 350 c 0,65,66
 137 350 137 350 119.5 329 c 128,-1,67
 102 308 102 308 102 266 c 0,68,69
 106 209 106 209 147 175 c 1,60,61
184 -1 m 0,70,71
 145 -1 145 -1 119 21 c 128,-1,72
 93 43 93 43 93 82 c 2,73,-1
 94 98 l 2,74,75
 98 130 98 130 116 151 c 1,76,77
 72 172 72 172 51 210 c 128,-1,78
 30 248 30 248 30 290 c 0,79,80
 30 326 30 326 49 360 c 0,81,82
 80 419 80 419 164 419 c 0,83,84
 286 419 286 419 288 293 c 2,85,-1
 288 104 l 1,86,87
 280 21 280 21 215 2 c 0,88,89
 198 -1 198 -1 184 -1 c 0,70,71
EndSplineSet
MultipleSubs2: "Multiple Substitution lookup 311 subtable" uni1B13 _reorder
MultipleSubs2: "Multiple Substitution lookup 255 subtable" uni1B13 _reorder
MultipleSubs2: "Multiple Substitution lookup 199 subtable" uni1B13 _reorder
MultipleSubs2: "Multiple Substitution lookup 138 subtable" uni1B13 _reorder
MultipleSubs2: "Multiple Substitution lookup 82 subtable" uni1B13 _reorder
MultipleSubs2: "Multiple Substitution lookup 26 subtable" uni1B13 _reorder
Position2: "Single Positioning lookup 332 subtable" dx=130 dy=0 dh=130 dv=0
Position2: "Single Positioning lookup 331 subtable" dx=130 dy=0 dh=130 dv=0
Position2: "Single Positioning lookup 327 subtable" dx=130 dy=0 dh=130 dv=0
Position2: "Single Positioning lookup 324 subtable" dx=130 dy=0 dh=130 dv=0
Position2: "Single Positioning lookup 320 subtable" dx=130 dy=0 dh=130 dv=0
Position2: "Single Positioning lookup 319 subtable" dx=130 dy=0 dh=130 dv=0
Position2: "Single Positioning lookup 313 subtable" dx=130 dy=0 dh=130 dv=0
Position2: "Single Positioning lookup 305 subtable" dx=130 dy=0 dh=130 dv=0
Position2: "Single Positioning lookup 302 subtable" dx=130 dy=0 dh=130 dv=0
Position2: "Single Positioning lookup 299 subtable" dx=130 dy=0 dh=130 dv=0
Position2: "Single Positioning lookup 298 subtable" dx=130 dy=0 dh=130 dv=0
Position2: "Single Positioning lookup 296 subtable" dx=130 dy=0 dh=130 dv=0
Position2: "Single Positioning lookup 294 subtable" dx=130 dy=0 dh=130 dv=0
Position2: "Single Positioning lookup 293 subtable" dx=171 dy=0 dh=171 dv=0
Position2: "Single Positioning lookup 292 subtable" dx=171 dy=0 dh=171 dv=0
Position2: "Single Positioning lookup 291 subtable" dx=171 dy=0 dh=171 dv=0
Position2: "Single Positioning lookup 287 subtable" dx=171 dy=0 dh=171 dv=0
Position2: "Single Positioning lookup 284 subtable" dx=171 dy=0 dh=171 dv=0
Position2: "Single Positioning lookup 281 subtable" dx=171 dy=0 dh=171 dv=0
Position2: "Single Positioning lookup 280 subtable" dx=171 dy=0 dh=171 dv=0
Position2: "Single Positioning lookup 279 subtable" dx=171 dy=0 dh=171 dv=0
Position2: "Single Positioning lookup 273 subtable" dx=171 dy=0 dh=171 dv=0
Position2: "Single Positioning lookup 272 subtable" dx=171 dy=0 dh=171 dv=0
Position2: "Single Positioning lookup 270 subtable" dx=171 dy=0 dh=171 dv=0
Position2: "Single Positioning lookup 265 subtable" dx=171 dy=0 dh=171 dv=0
Position2: "Single Positioning lookup 262 subtable" dx=171 dy=0 dh=171 dv=0
Position2: "Single Positioning lookup 259 subtable" dx=171 dy=0 dh=171 dv=0
Position2: "Single Positioning lookup 258 subtable" dx=171 dy=0 dh=171 dv=0
Position2: "Single Positioning lookup 256 subtable" dx=171 dy=0 dh=171 dv=0
Position2: "Single Positioning lookup 254 subtable" dx=171 dy=0 dh=171 dv=0
Position2: "Single Positioning lookup 253 subtable" dx=89 dy=0 dh=89 dv=0
Position2: "Single Positioning lookup 252 subtable" dx=89 dy=0 dh=89 dv=0
Position2: "Single Positioning lookup 248 subtable" dx=89 dy=0 dh=89 dv=0
Position2: "Single Positioning lookup 245 subtable" dx=89 dy=0 dh=89 dv=0
Position2: "Single Positioning lookup 241 subtable" dx=89 dy=0 dh=89 dv=0
Position2: "Single Positioning lookup 240 subtable" dx=89 dy=0 dh=89 dv=0
Position2: "Single Positioning lookup 226 subtable" dx=89 dy=0 dh=89 dv=0
Position2: "Single Positioning lookup 223 subtable" dx=89 dy=0 dh=89 dv=0
Position2: "Single Positioning lookup 220 subtable" dx=89 dy=0 dh=89 dv=0
Position2: "Single Positioning lookup 219 subtable" dx=89 dy=0 dh=89 dv=0
Position2: "Single Positioning lookup 217 subtable" dx=89 dy=0 dh=89 dv=0
Position2: "Single Positioning lookup 214 subtable" dx=221 dy=0 dh=221 dv=0
Position2: "Single Positioning lookup 213 subtable" dx=221 dy=0 dh=221 dv=0
Position2: "Single Positioning lookup 212 subtable" dx=221 dy=0 dh=221 dv=0
Position2: "Single Positioning lookup 208 subtable" dx=221 dy=0 dh=221 dv=0
Position2: "Single Positioning lookup 206 subtable" dx=221 dy=0 dh=221 dv=0
Position2: "Single Positioning lookup 205 subtable" dx=221 dy=0 dh=221 dv=0
Position2: "Single Positioning lookup 202 subtable" dx=221 dy=0 dh=221 dv=0
Position2: "Single Positioning lookup 201 subtable" dx=221 dy=0 dh=221 dv=0
Position2: "Single Positioning lookup 200 subtable" dx=221 dy=0 dh=221 dv=0
Position2: "Single Positioning lookup 197 subtable" dx=221 dy=0 dh=221 dv=0
Position2: "Single Positioning lookup 194 subtable" dx=221 dy=0 dh=221 dv=0
Position2: "Single Positioning lookup 193 subtable" dx=221 dy=0 dh=221 dv=0
Position2: "Single Positioning lookup 191 subtable" dx=221 dy=0 dh=221 dv=0
Position2: "Single Positioning lookup 190 subtable" dx=221 dy=0 dh=221 dv=0
Position2: "Single Positioning lookup 186 subtable" dx=221 dy=0 dh=221 dv=0
Position2: "Single Positioning lookup 183 subtable" dx=221 dy=0 dh=221 dv=0
Position2: "Single Positioning lookup 181 subtable" dx=221 dy=0 dh=221 dv=0
Position2: "Single Positioning lookup 180 subtable" dx=221 dy=0 dh=221 dv=0
Position2: "Single Positioning lookup 179 subtable" dx=221 dy=0 dh=221 dv=0
Position2: "Single Positioning lookup 177 subtable" dx=221 dy=0 dh=221 dv=0
Position2: "Single Positioning lookup 176 subtable" dx=221 dy=0 dh=221 dv=0
Position2: "Single Positioning lookup 175 subtable" dx=221 dy=0 dh=221 dv=0
Position2: "Single Positioning lookup 174 subtable" dx=191 dy=0 dh=191 dv=0
Position2: "Single Positioning lookup 173 subtable" dx=191 dy=0 dh=191 dv=0
Position2: "Single Positioning lookup 172 subtable" dx=191 dy=0 dh=191 dv=0
Position2: "Single Positioning lookup 168 subtable" dx=191 dy=0 dh=191 dv=0
Position2: "Single Positioning lookup 166 subtable" dx=191 dy=0 dh=191 dv=0
Position2: "Single Positioning lookup 165 subtable" dx=191 dy=0 dh=191 dv=0
Position2: "Single Positioning lookup 162 subtable" dx=191 dy=0 dh=191 dv=0
Position2: "Single Positioning lookup 161 subtable" dx=191 dy=0 dh=191 dv=0
Position2: "Single Positioning lookup 160 subtable" dx=191 dy=0 dh=191 dv=0
Position2: "Single Positioning lookup 154 subtable" dx=191 dy=0 dh=191 dv=0
Position2: "Single Positioning lookup 153 subtable" dx=191 dy=0 dh=191 dv=0
Position2: "Single Positioning lookup 151 subtable" dx=191 dy=0 dh=191 dv=0
Position2: "Single Positioning lookup 150 subtable" dx=191 dy=0 dh=191 dv=0
Position2: "Single Positioning lookup 146 subtable" dx=191 dy=0 dh=191 dv=0
Position2: "Single Positioning lookup 143 subtable" dx=191 dy=0 dh=191 dv=0
Position2: "Single Positioning lookup 140 subtable" dx=191 dy=0 dh=191 dv=0
Position2: "Single Positioning lookup 139 subtable" dx=191 dy=0 dh=191 dv=0
Position2: "Single Positioning lookup 137 subtable" dx=191 dy=0 dh=191 dv=0
Position2: "Single Positioning lookup 136 subtable" dx=191 dy=0 dh=191 dv=0
Position2: "Single Positioning lookup 135 subtable" dx=191 dy=0 dh=191 dv=0
Position2: "Single Positioning lookup 134 subtable" dx=274 dy=0 dh=274 dv=0
Position2: "Single Positioning lookup 133 subtable" dx=274 dy=0 dh=274 dv=0
Position2: "Single Positioning lookup 132 subtable" dx=274 dy=0 dh=274 dv=0
Position2: "Single Positioning lookup 128 subtable" dx=274 dy=0 dh=274 dv=0
Position2: "Single Positioning lookup 126 subtable" dx=274 dy=0 dh=274 dv=0
Position2: "Single Positioning lookup 125 subtable" dx=274 dy=0 dh=274 dv=0
Position2: "Single Positioning lookup 122 subtable" dx=274 dy=0 dh=274 dv=0
Position2: "Single Positioning lookup 121 subtable" dx=274 dy=0 dh=274 dv=0
Position2: "Single Positioning lookup 120 subtable" dx=274 dy=0 dh=274 dv=0
Position2: "Single Positioning lookup 118 subtable" dx=274 dy=0 dh=274 dv=0
Position2: "Single Positioning lookup 117 subtable" dx=274 dy=0 dh=274 dv=0
Position2: "Single Positioning lookup 116 subtable" dx=274 dy=0 dh=274 dv=0
Position2: "Single Positioning lookup 114 subtable" dx=274 dy=0 dh=274 dv=0
Position2: "Single Positioning lookup 113 subtable" dx=274 dy=0 dh=274 dv=0
Position2: "Single Positioning lookup 112 subtable" dx=274 dy=0 dh=274 dv=0
Position2: "Single Positioning lookup 111 subtable" dx=274 dy=0 dh=274 dv=0
Position2: "Single Positioning lookup 110 subtable" dx=274 dy=0 dh=274 dv=0
Position2: "Single Positioning lookup 106 subtable" dx=274 dy=0 dh=274 dv=0
Position2: "Single Positioning lookup 103 subtable" dx=274 dy=0 dh=274 dv=0
Position2: "Single Positioning lookup 102 subtable" dx=274 dy=0 dh=274 dv=0
Position2: "Single Positioning lookup 101 subtable" dx=274 dy=0 dh=274 dv=0
Position2: "Single Positioning lookup 100 subtable" dx=274 dy=0 dh=274 dv=0
Position2: "Single Positioning lookup 99 subtable" dx=274 dy=0 dh=274 dv=0
Position2: "Single Positioning lookup 97 subtable" dx=274 dy=0 dh=274 dv=0
Position2: "Single Positioning lookup 96 subtable" dx=274 dy=0 dh=274 dv=0
Position2: "Single Positioning lookup 95 subtable" dx=274 dy=0 dh=274 dv=0
Position2: "Single Positioning lookup 48 subtable" dx=49 dy=0 dh=49 dv=0
Position2: "Single Positioning lookup 44 subtable" dx=0 dy=0 dh=243 dv=0
Position2: "Single Positioning lookup 43 subtable" dx=164 dy=0 dh=164 dv=0
Position2: "Single Positioning lookup 42 subtable" dx=0 dy=0 dh=211 dv=0
Position2: "Single Positioning lookup 41 subtable" dx=133 dy=0 dh=133 dv=0
Position2: "Single Positioning lookup 29 subtable" dx=63 dy=0 dh=63 dv=0
Position2: "Single Positioning lookup 28 subtable" dx=29 dy=0 dh=29 dv=0
Position2: "Single Positioning lookup 14 subtable" dx=0 dy=0 dh=154 dv=0
Position2: "Single Positioning lookup 13 subtable" dx=76 dy=0 dh=76 dv=0
Position2: "Single Positioning lookup 7 subtable" dx=89 dy=0 dh=89 dv=0
Position2: "Single Positioning lookup 4 subtable" dx=134 dy=0 dh=134 dv=0
EndChar

StartChar: uni1B14
Encoding: 6932 6932 25
Width: 1096
GlyphClass: 2
Flags: W
AnchorPoint: "Anchor-3" 599 0 basechar 0
AnchorPoint: "Anchor-0" 380 490 basechar 0
LayerCount: 2
Fore
SplineSet
447 54 m 0,0,1
 457 54 457 54 463.5 63.5 c 128,-1,2
 470 73 470 73 470 88 c 0,3,4
 470 105 470 105 457 120.5 c 128,-1,5
 444 136 444 136 417 139 c 1,6,-1
 417 100 l 2,7,8
 418 54 418 54 447 54 c 0,0,1
789 -3 m 0,9,10
 715 -3 715 -3 682 37.5 c 128,-1,11
 649 78 649 78 649 142 c 2,12,-1
 649 240 l 1,13,14
 645 350 645 350 555 353 c 2,15,-1
 515 353 l 2,16,17
 420 350 420 350 417 259 c 2,18,-1
 417 194 l 1,19,20
 454 193 454 193 492 169.5 c 128,-1,21
 530 146 530 146 536 98 c 2,22,-1
 537 83 l 2,23,24
 537 47 537 47 512.5 23 c 128,-1,25
 488 -1 488 -1 446 -1 c 0,26,27
 351 -1 351 -1 342 104 c 1,28,-1
 342 141 l 1,29,-1
 288 141 l 1,30,-1
 288 194 l 1,31,-1
 342 194 l 1,32,-1
 342 234 l 2,33,34
 343 415 343 415 513 417 c 2,35,-1
 557 417 l 2,36,37
 727 415 727 415 728 234 c 2,38,-1
 728 157 l 2,39,40
 728 65 728 65 799 65 c 0,41,42
 892 70 892 70 1062 188 c 1,43,-1
 1089 145 l 1,44,45
 906 -2 906 -2 789 -3 c 0,9,10
184 54 m 0,46,47
 212 54 212 54 213 100 c 2,48,-1
 213 139 l 1,49,50
 184 136 184 136 172 120 c 128,-1,51
 160 104 160 104 160 87 c 0,52,53
 160 54 160 54 184 54 c 0,46,47
147 175 m 1,54,55
 172 190 172 190 213 194 c 1,56,-1
 213 294 l 2,57,58
 213 350 213 350 163 350 c 0,59,60
 137 350 137 350 119.5 329 c 128,-1,61
 102 308 102 308 102 266 c 0,62,63
 106 209 106 209 147 175 c 1,54,55
184 -1 m 0,64,65
 145 -1 145 -1 119 21 c 128,-1,66
 93 43 93 43 93 82 c 2,67,-1
 94 98 l 2,68,69
 98 130 98 130 116 151 c 1,70,71
 72 172 72 172 51 210 c 128,-1,72
 30 248 30 248 30 290 c 0,73,74
 30 326 30 326 49 360 c 0,75,76
 80 419 80 419 164 419 c 0,77,78
 286 419 286 419 288 293 c 2,79,-1
 288 104 l 1,80,81
 280 21 280 21 215 2 c 0,82,83
 198 -1 198 -1 184 -1 c 0,64,65
EndSplineSet
MultipleSubs2: "Multiple Substitution lookup 312 subtable" uni1B14 _reorder
MultipleSubs2: "Multiple Substitution lookup 256 subtable" uni1B14 _reorder
MultipleSubs2: "Multiple Substitution lookup 200 subtable" uni1B14 _reorder
MultipleSubs2: "Multiple Substitution lookup 139 subtable" uni1B14 _reorder
MultipleSubs2: "Multiple Substitution lookup 83 subtable" uni1B14 _reorder
MultipleSubs2: "Multiple Substitution lookup 27 subtable" uni1B14 _reorder
Position2: "Single Positioning lookup 332 subtable" dx=130 dy=0 dh=130 dv=0
Position2: "Single Positioning lookup 331 subtable" dx=130 dy=0 dh=130 dv=0
Position2: "Single Positioning lookup 320 subtable" dx=130 dy=0 dh=130 dv=0
Position2: "Single Positioning lookup 305 subtable" dx=130 dy=0 dh=130 dv=0
Position2: "Single Positioning lookup 299 subtable" dx=130 dy=0 dh=130 dv=0
Position2: "Single Positioning lookup 296 subtable" dx=130 dy=0 dh=130 dv=0
Position2: "Single Positioning lookup 293 subtable" dx=171 dy=0 dh=171 dv=0
Position2: "Single Positioning lookup 292 subtable" dx=171 dy=0 dh=171 dv=0
Position2: "Single Positioning lookup 284 subtable" dx=171 dy=0 dh=171 dv=0
Position2: "Single Positioning lookup 280 subtable" dx=171 dy=0 dh=171 dv=0
Position2: "Single Positioning lookup 279 subtable" dx=171 dy=0 dh=171 dv=0
Position2: "Single Positioning lookup 265 subtable" dx=171 dy=0 dh=171 dv=0
Position2: "Single Positioning lookup 259 subtable" dx=171 dy=0 dh=171 dv=0
Position2: "Single Positioning lookup 256 subtable" dx=171 dy=0 dh=171 dv=0
Position2: "Single Positioning lookup 253 subtable" dx=89 dy=0 dh=89 dv=0
Position2: "Single Positioning lookup 252 subtable" dx=89 dy=0 dh=89 dv=0
Position2: "Single Positioning lookup 226 subtable" dx=89 dy=0 dh=89 dv=0
Position2: "Single Positioning lookup 220 subtable" dx=89 dy=0 dh=89 dv=0
Position2: "Single Positioning lookup 217 subtable" dx=89 dy=0 dh=89 dv=0
Position2: "Single Positioning lookup 214 subtable" dx=221 dy=0 dh=221 dv=0
Position2: "Single Positioning lookup 213 subtable" dx=221 dy=0 dh=221 dv=0
Position2: "Single Positioning lookup 208 subtable" dx=221 dy=0 dh=221 dv=0
Position2: "Single Positioning lookup 205 subtable" dx=221 dy=0 dh=221 dv=0
Position2: "Single Positioning lookup 201 subtable" dx=221 dy=0 dh=221 dv=0
Position2: "Single Positioning lookup 200 subtable" dx=221 dy=0 dh=221 dv=0
Position2: "Single Positioning lookup 186 subtable" dx=221 dy=0 dh=221 dv=0
Position2: "Single Positioning lookup 180 subtable" dx=221 dy=0 dh=221 dv=0
Position2: "Single Positioning lookup 179 subtable" dx=221 dy=0 dh=221 dv=0
Position2: "Single Positioning lookup 177 subtable" dx=221 dy=0 dh=221 dv=0
Position2: "Single Positioning lookup 174 subtable" dx=191 dy=0 dh=191 dv=0
Position2: "Single Positioning lookup 173 subtable" dx=191 dy=0 dh=191 dv=0
Position2: "Single Positioning lookup 165 subtable" dx=191 dy=0 dh=191 dv=0
Position2: "Single Positioning lookup 161 subtable" dx=191 dy=0 dh=191 dv=0
Position2: "Single Positioning lookup 160 subtable" dx=191 dy=0 dh=191 dv=0
Position2: "Single Positioning lookup 146 subtable" dx=191 dy=0 dh=191 dv=0
Position2: "Single Positioning lookup 140 subtable" dx=191 dy=0 dh=191 dv=0
Position2: "Single Positioning lookup 137 subtable" dx=191 dy=0 dh=191 dv=0
Position2: "Single Positioning lookup 134 subtable" dx=274 dy=0 dh=274 dv=0
Position2: "Single Positioning lookup 133 subtable" dx=274 dy=0 dh=274 dv=0
Position2: "Single Positioning lookup 128 subtable" dx=274 dy=0 dh=274 dv=0
Position2: "Single Positioning lookup 125 subtable" dx=274 dy=0 dh=274 dv=0
Position2: "Single Positioning lookup 121 subtable" dx=274 dy=0 dh=274 dv=0
Position2: "Single Positioning lookup 120 subtable" dx=274 dy=0 dh=274 dv=0
Position2: "Single Positioning lookup 114 subtable" dx=274 dy=0 dh=274 dv=0
Position2: "Single Positioning lookup 106 subtable" dx=274 dy=0 dh=274 dv=0
Position2: "Single Positioning lookup 103 subtable" dx=274 dy=0 dh=274 dv=0
Position2: "Single Positioning lookup 100 subtable" dx=274 dy=0 dh=274 dv=0
Position2: "Single Positioning lookup 99 subtable" dx=274 dy=0 dh=274 dv=0
Position2: "Single Positioning lookup 97 subtable" dx=274 dy=0 dh=274 dv=0
Position2: "Single Positioning lookup 44 subtable" dx=0 dy=0 dh=175 dv=0
Position2: "Single Positioning lookup 43 subtable" dx=73 dy=0 dh=73 dv=0
Position2: "Single Positioning lookup 42 subtable" dx=0 dy=0 dh=143 dv=0
Position2: "Single Positioning lookup 41 subtable" dx=42 dy=0 dh=42 dv=0
Position2: "Single Positioning lookup 14 subtable" dx=0 dy=0 dh=86 dv=0
EndChar

StartChar: uni1B15
Encoding: 6933 6933 26
Width: 824
GlyphClass: 2
Flags: W
AnchorPoint: "Anchor-3" 472 0 basechar 0
AnchorPoint: "Anchor-0" 426 490 basechar 0
LayerCount: 2
Fore
SplineSet
774 0 m 1,0,-1
 695 0 l 1,1,-1
 695 288 l 2,2,3
 695 349 695 349 655 349 c 2,4,-1
 653 349 l 2,5,6
 610 347 610 347 590 299 c 1,7,-1
 590 0 l 1,8,-1
 510 0 l 1,9,-1
 510 252 l 2,10,11
 509 343 509 343 406 345 c 0,12,13
 351 345 351 345 303 316 c 128,-1,14
 255 287 255 287 242 271 c 1,15,16
 233 201 233 201 233 148 c 0,17,18
 233 65 233 65 301 64 c 2,19,-1
 364 64 l 1,20,-1
 364 0 l 1,21,-1
 292 0 l 2,22,23
 150 0 150 0 150 128 c 0,24,25
 151 167 151 167 156 221.5 c 128,-1,26
 161 276 161 276 161 297 c 0,27,28
 161 354 161 354 132 354 c 2,29,-1
 122 353 l 1,30,31
 88 342 88 342 88 251 c 2,32,-1
 88 231 l 1,33,-1
 45 228 l 1,34,35
 30 270 30 270 30 303 c 0,36,37
 30 353 30 353 60.5 386 c 128,-1,38
 91 419 91 419 134 419 c 0,39,40
 214 419 214 419 234 349 c 1,41,42
 306 415 306 415 408 417 c 0,43,44
 506 417 506 417 556 356 c 1,45,46
 606 415 606 415 665 415 c 0,47,48
 772 415 772 415 774 288 c 2,49,-1
 774 0 l 1,0,-1
EndSplineSet
MultipleSubs2: "Multiple Substitution lookup 313 subtable" uni1B15 _reorder
MultipleSubs2: "Multiple Substitution lookup 257 subtable" uni1B15 _reorder
MultipleSubs2: "Multiple Substitution lookup 201 subtable" uni1B15 _reorder
MultipleSubs2: "Multiple Substitution lookup 140 subtable" uni1B15 _reorder
MultipleSubs2: "Multiple Substitution lookup 84 subtable" uni1B15 _reorder
MultipleSubs2: "Multiple Substitution lookup 28 subtable" uni1B15 _reorder
Position2: "Single Positioning lookup 332 subtable" dx=130 dy=0 dh=130 dv=0
Position2: "Single Positioning lookup 331 subtable" dx=130 dy=0 dh=130 dv=0
Position2: "Single Positioning lookup 330 subtable" dx=130 dy=0 dh=130 dv=0
Position2: "Single Positioning lookup 327 subtable" dx=130 dy=0 dh=130 dv=0
Position2: "Single Positioning lookup 325 subtable" dx=130 dy=0 dh=130 dv=0
Position2: "Single Positioning lookup 324 subtable" dx=130 dy=0 dh=130 dv=0
Position2: "Single Positioning lookup 321 subtable" dx=130 dy=0 dh=130 dv=0
Position2: "Single Positioning lookup 320 subtable" dx=130 dy=0 dh=130 dv=0
Position2: "Single Positioning lookup 319 subtable" dx=130 dy=0 dh=130 dv=0
Position2: "Single Positioning lookup 317 subtable" dx=130 dy=0 dh=130 dv=0
Position2: "Single Positioning lookup 316 subtable" dx=130 dy=0 dh=130 dv=0
Position2: "Single Positioning lookup 313 subtable" dx=130 dy=0 dh=130 dv=0
Position2: "Single Positioning lookup 312 subtable" dx=130 dy=0 dh=130 dv=0
Position2: "Single Positioning lookup 310 subtable" dx=130 dy=0 dh=130 dv=0
Position2: "Single Positioning lookup 309 subtable" dx=130 dy=0 dh=130 dv=0
Position2: "Single Positioning lookup 305 subtable" dx=130 dy=0 dh=130 dv=0
Position2: "Single Positioning lookup 302 subtable" dx=130 dy=0 dh=130 dv=0
Position2: "Single Positioning lookup 300 subtable" dx=130 dy=0 dh=130 dv=0
Position2: "Single Positioning lookup 299 subtable" dx=130 dy=0 dh=130 dv=0
Position2: "Single Positioning lookup 298 subtable" dx=130 dy=0 dh=130 dv=0
Position2: "Single Positioning lookup 296 subtable" dx=130 dy=0 dh=130 dv=0
Position2: "Single Positioning lookup 295 subtable" dx=130 dy=0 dh=130 dv=0
Position2: "Single Positioning lookup 294 subtable" dx=130 dy=0 dh=130 dv=0
Position2: "Single Positioning lookup 293 subtable" dx=171 dy=0 dh=171 dv=0
Position2: "Single Positioning lookup 292 subtable" dx=171 dy=0 dh=171 dv=0
Position2: "Single Positioning lookup 291 subtable" dx=171 dy=0 dh=171 dv=0
Position2: "Single Positioning lookup 287 subtable" dx=171 dy=0 dh=171 dv=0
Position2: "Single Positioning lookup 286 subtable" dx=171 dy=0 dh=171 dv=0
Position2: "Single Positioning lookup 285 subtable" dx=171 dy=0 dh=171 dv=0
Position2: "Single Positioning lookup 284 subtable" dx=171 dy=0 dh=171 dv=0
Position2: "Single Positioning lookup 281 subtable" dx=171 dy=0 dh=171 dv=0
Position2: "Single Positioning lookup 280 subtable" dx=171 dy=0 dh=171 dv=0
Position2: "Single Positioning lookup 279 subtable" dx=171 dy=0 dh=171 dv=0
Position2: "Single Positioning lookup 277 subtable" dx=171 dy=0 dh=171 dv=0
Position2: "Single Positioning lookup 276 subtable" dx=171 dy=0 dh=171 dv=0
Position2: "Single Positioning lookup 275 subtable" dx=171 dy=0 dh=171 dv=0
Position2: "Single Positioning lookup 273 subtable" dx=171 dy=0 dh=171 dv=0
Position2: "Single Positioning lookup 272 subtable" dx=171 dy=0 dh=171 dv=0
Position2: "Single Positioning lookup 271 subtable" dx=171 dy=0 dh=171 dv=0
Position2: "Single Positioning lookup 270 subtable" dx=171 dy=0 dh=171 dv=0
Position2: "Single Positioning lookup 269 subtable" dx=171 dy=0 dh=171 dv=0
Position2: "Single Positioning lookup 265 subtable" dx=171 dy=0 dh=171 dv=0
Position2: "Single Positioning lookup 262 subtable" dx=171 dy=0 dh=171 dv=0
Position2: "Single Positioning lookup 261 subtable" dx=171 dy=0 dh=171 dv=0
Position2: "Single Positioning lookup 260 subtable" dx=171 dy=0 dh=171 dv=0
Position2: "Single Positioning lookup 259 subtable" dx=171 dy=0 dh=171 dv=0
Position2: "Single Positioning lookup 258 subtable" dx=171 dy=0 dh=171 dv=0
Position2: "Single Positioning lookup 256 subtable" dx=171 dy=0 dh=171 dv=0
Position2: "Single Positioning lookup 255 subtable" dx=171 dy=0 dh=171 dv=0
Position2: "Single Positioning lookup 254 subtable" dx=171 dy=0 dh=171 dv=0
Position2: "Single Positioning lookup 253 subtable" dx=89 dy=0 dh=89 dv=0
Position2: "Single Positioning lookup 252 subtable" dx=89 dy=0 dh=89 dv=0
Position2: "Single Positioning lookup 251 subtable" dx=89 dy=0 dh=89 dv=0
Position2: "Single Positioning lookup 248 subtable" dx=89 dy=0 dh=89 dv=0
Position2: "Single Positioning lookup 246 subtable" dx=89 dy=0 dh=89 dv=0
Position2: "Single Positioning lookup 245 subtable" dx=89 dy=0 dh=89 dv=0
Position2: "Single Positioning lookup 242 subtable" dx=89 dy=0 dh=89 dv=0
Position2: "Single Positioning lookup 241 subtable" dx=89 dy=0 dh=89 dv=0
Position2: "Single Positioning lookup 240 subtable" dx=89 dy=0 dh=89 dv=0
Position2: "Single Positioning lookup 234 subtable" dx=89 dy=0 dh=89 dv=0
Position2: "Single Positioning lookup 233 subtable" dx=89 dy=0 dh=89 dv=0
Position2: "Single Positioning lookup 231 subtable" dx=89 dy=0 dh=89 dv=0
Position2: "Single Positioning lookup 230 subtable" dx=89 dy=0 dh=89 dv=0
Position2: "Single Positioning lookup 226 subtable" dx=89 dy=0 dh=89 dv=0
Position2: "Single Positioning lookup 223 subtable" dx=89 dy=0 dh=89 dv=0
Position2: "Single Positioning lookup 220 subtable" dx=89 dy=0 dh=89 dv=0
Position2: "Single Positioning lookup 219 subtable" dx=89 dy=0 dh=89 dv=0
Position2: "Single Positioning lookup 217 subtable" dx=89 dy=0 dh=89 dv=0
Position2: "Single Positioning lookup 216 subtable" dx=89 dy=0 dh=89 dv=0
Position2: "Single Positioning lookup 215 subtable" dx=89 dy=0 dh=89 dv=0
Position2: "Single Positioning lookup 214 subtable" dx=221 dy=0 dh=221 dv=0
Position2: "Single Positioning lookup 213 subtable" dx=221 dy=0 dh=221 dv=0
Position2: "Single Positioning lookup 212 subtable" dx=221 dy=0 dh=221 dv=0
Position2: "Single Positioning lookup 210 subtable" dx=221 dy=0 dh=221 dv=0
Position2: "Single Positioning lookup 209 subtable" dx=221 dy=0 dh=221 dv=0
Position2: "Single Positioning lookup 208 subtable" dx=221 dy=0 dh=221 dv=0
Position2: "Single Positioning lookup 207 subtable" dx=221 dy=0 dh=221 dv=0
Position2: "Single Positioning lookup 206 subtable" dx=221 dy=0 dh=221 dv=0
Position2: "Single Positioning lookup 205 subtable" dx=221 dy=0 dh=221 dv=0
Position2: "Single Positioning lookup 204 subtable" dx=221 dy=0 dh=221 dv=0
Position2: "Single Positioning lookup 202 subtable" dx=221 dy=0 dh=221 dv=0
Position2: "Single Positioning lookup 201 subtable" dx=221 dy=0 dh=221 dv=0
Position2: "Single Positioning lookup 200 subtable" dx=221 dy=0 dh=221 dv=0
Position2: "Single Positioning lookup 199 subtable" dx=221 dy=0 dh=221 dv=0
Position2: "Single Positioning lookup 198 subtable" dx=221 dy=0 dh=221 dv=0
Position2: "Single Positioning lookup 197 subtable" dx=221 dy=0 dh=221 dv=0
Position2: "Single Positioning lookup 196 subtable" dx=221 dy=0 dh=221 dv=0
Position2: "Single Positioning lookup 194 subtable" dx=221 dy=0 dh=221 dv=0
Position2: "Single Positioning lookup 193 subtable" dx=221 dy=0 dh=221 dv=0
Position2: "Single Positioning lookup 192 subtable" dx=221 dy=0 dh=221 dv=0
Position2: "Single Positioning lookup 191 subtable" dx=221 dy=0 dh=221 dv=0
Position2: "Single Positioning lookup 190 subtable" dx=221 dy=0 dh=221 dv=0
Position2: "Single Positioning lookup 189 subtable" dx=221 dy=0 dh=221 dv=0
Position2: "Single Positioning lookup 186 subtable" dx=221 dy=0 dh=221 dv=0
Position2: "Single Positioning lookup 184 subtable" dx=221 dy=0 dh=221 dv=0
Position2: "Single Positioning lookup 183 subtable" dx=221 dy=0 dh=221 dv=0
Position2: "Single Positioning lookup 182 subtable" dx=221 dy=0 dh=221 dv=0
Position2: "Single Positioning lookup 181 subtable" dx=221 dy=0 dh=221 dv=0
Position2: "Single Positioning lookup 180 subtable" dx=221 dy=0 dh=221 dv=0
Position2: "Single Positioning lookup 179 subtable" dx=221 dy=0 dh=221 dv=0
Position2: "Single Positioning lookup 178 subtable" dx=221 dy=0 dh=221 dv=0
Position2: "Single Positioning lookup 177 subtable" dx=221 dy=0 dh=221 dv=0
Position2: "Single Positioning lookup 176 subtable" dx=221 dy=0 dh=221 dv=0
Position2: "Single Positioning lookup 175 subtable" dx=221 dy=0 dh=221 dv=0
Position2: "Single Positioning lookup 174 subtable" dx=191 dy=0 dh=191 dv=0
Position2: "Single Positioning lookup 173 subtable" dx=191 dy=0 dh=191 dv=0
Position2: "Single Positioning lookup 172 subtable" dx=191 dy=0 dh=191 dv=0
Position2: "Single Positioning lookup 168 subtable" dx=191 dy=0 dh=191 dv=0
Position2: "Single Positioning lookup 167 subtable" dx=191 dy=0 dh=191 dv=0
Position2: "Single Positioning lookup 166 subtable" dx=191 dy=0 dh=191 dv=0
Position2: "Single Positioning lookup 165 subtable" dx=191 dy=0 dh=191 dv=0
Position2: "Single Positioning lookup 162 subtable" dx=191 dy=0 dh=191 dv=0
Position2: "Single Positioning lookup 161 subtable" dx=191 dy=0 dh=191 dv=0
Position2: "Single Positioning lookup 160 subtable" dx=191 dy=0 dh=191 dv=0
Position2: "Single Positioning lookup 158 subtable" dx=191 dy=0 dh=191 dv=0
Position2: "Single Positioning lookup 157 subtable" dx=191 dy=0 dh=191 dv=0
Position2: "Single Positioning lookup 156 subtable" dx=191 dy=0 dh=191 dv=0
Position2: "Single Positioning lookup 154 subtable" dx=191 dy=0 dh=191 dv=0
Position2: "Single Positioning lookup 153 subtable" dx=191 dy=0 dh=191 dv=0
Position2: "Single Positioning lookup 152 subtable" dx=191 dy=0 dh=191 dv=0
Position2: "Single Positioning lookup 151 subtable" dx=191 dy=0 dh=191 dv=0
Position2: "Single Positioning lookup 150 subtable" dx=191 dy=0 dh=191 dv=0
Position2: "Single Positioning lookup 146 subtable" dx=191 dy=0 dh=191 dv=0
Position2: "Single Positioning lookup 144 subtable" dx=191 dy=0 dh=191 dv=0
Position2: "Single Positioning lookup 143 subtable" dx=191 dy=0 dh=191 dv=0
Position2: "Single Positioning lookup 142 subtable" dx=191 dy=0 dh=191 dv=0
Position2: "Single Positioning lookup 141 subtable" dx=191 dy=0 dh=191 dv=0
Position2: "Single Positioning lookup 140 subtable" dx=191 dy=0 dh=191 dv=0
Position2: "Single Positioning lookup 139 subtable" dx=191 dy=0 dh=191 dv=0
Position2: "Single Positioning lookup 137 subtable" dx=191 dy=0 dh=191 dv=0
Position2: "Single Positioning lookup 136 subtable" dx=191 dy=0 dh=191 dv=0
Position2: "Single Positioning lookup 135 subtable" dx=191 dy=0 dh=191 dv=0
Position2: "Single Positioning lookup 134 subtable" dx=274 dy=0 dh=274 dv=0
Position2: "Single Positioning lookup 133 subtable" dx=274 dy=0 dh=274 dv=0
Position2: "Single Positioning lookup 132 subtable" dx=274 dy=0 dh=274 dv=0
Position2: "Single Positioning lookup 130 subtable" dx=274 dy=0 dh=274 dv=0
Position2: "Single Positioning lookup 129 subtable" dx=274 dy=0 dh=274 dv=0
Position2: "Single Positioning lookup 128 subtable" dx=274 dy=0 dh=274 dv=0
Position2: "Single Positioning lookup 127 subtable" dx=274 dy=0 dh=274 dv=0
Position2: "Single Positioning lookup 126 subtable" dx=274 dy=0 dh=274 dv=0
Position2: "Single Positioning lookup 125 subtable" dx=274 dy=0 dh=274 dv=0
Position2: "Single Positioning lookup 124 subtable" dx=274 dy=0 dh=274 dv=0
Position2: "Single Positioning lookup 123 subtable" dx=274 dy=0 dh=274 dv=0
Position2: "Single Positioning lookup 122 subtable" dx=274 dy=0 dh=274 dv=0
Position2: "Single Positioning lookup 121 subtable" dx=274 dy=0 dh=274 dv=0
Position2: "Single Positioning lookup 120 subtable" dx=274 dy=0 dh=274 dv=0
Position2: "Single Positioning lookup 119 subtable" dx=274 dy=0 dh=274 dv=0
Position2: "Single Positioning lookup 118 subtable" dx=274 dy=0 dh=274 dv=0
Position2: "Single Positioning lookup 117 subtable" dx=274 dy=0 dh=274 dv=0
Position2: "Single Positioning lookup 116 subtable" dx=274 dy=0 dh=274 dv=0
Position2: "Single Positioning lookup 115 subtable" dx=274 dy=0 dh=274 dv=0
Position2: "Single Positioning lookup 114 subtable" dx=274 dy=0 dh=274 dv=0
Position2: "Single Positioning lookup 113 subtable" dx=274 dy=0 dh=274 dv=0
Position2: "Single Positioning lookup 112 subtable" dx=274 dy=0 dh=274 dv=0
Position2: "Single Positioning lookup 111 subtable" dx=274 dy=0 dh=274 dv=0
Position2: "Single Positioning lookup 110 subtable" dx=274 dy=0 dh=274 dv=0
Position2: "Single Positioning lookup 109 subtable" dx=274 dy=0 dh=274 dv=0
Position2: "Single Positioning lookup 108 subtable" dx=274 dy=0 dh=274 dv=0
Position2: "Single Positioning lookup 107 subtable" dx=274 dy=0 dh=274 dv=0
Position2: "Single Positioning lookup 106 subtable" dx=274 dy=0 dh=274 dv=0
Position2: "Single Positioning lookup 105 subtable" dx=274 dy=0 dh=274 dv=0
Position2: "Single Positioning lookup 104 subtable" dx=274 dy=0 dh=274 dv=0
Position2: "Single Positioning lookup 103 subtable" dx=274 dy=0 dh=274 dv=0
Position2: "Single Positioning lookup 102 subtable" dx=274 dy=0 dh=274 dv=0
Position2: "Single Positioning lookup 101 subtable" dx=274 dy=0 dh=274 dv=0
Position2: "Single Positioning lookup 100 subtable" dx=274 dy=0 dh=274 dv=0
Position2: "Single Positioning lookup 99 subtable" dx=274 dy=0 dh=274 dv=0
Position2: "Single Positioning lookup 98 subtable" dx=274 dy=0 dh=274 dv=0
Position2: "Single Positioning lookup 97 subtable" dx=274 dy=0 dh=274 dv=0
Position2: "Single Positioning lookup 96 subtable" dx=274 dy=0 dh=274 dv=0
Position2: "Single Positioning lookup 95 subtable" dx=274 dy=0 dh=274 dv=0
Position2: "Single Positioning lookup 49 subtable" dx=7 dy=0 dh=7 dv=0
Position2: "Single Positioning lookup 48 subtable" dx=162 dy=0 dh=162 dv=0
Position2: "Single Positioning lookup 47 subtable" dx=6 dy=0 dh=6 dv=0
Position2: "Single Positioning lookup 44 subtable" dx=0 dy=0 dh=320 dv=0
Position2: "Single Positioning lookup 43 subtable" dx=200 dy=0 dh=200 dv=0
Position2: "Single Positioning lookup 42 subtable" dx=0 dy=0 dh=288 dv=0
Position2: "Single Positioning lookup 41 subtable" dx=169 dy=0 dh=169 dv=0
Position2: "Single Positioning lookup 36 subtable" dx=54 dy=0 dh=54 dv=0
Position2: "Single Positioning lookup 33 subtable" dx=101 dy=0 dh=101 dv=0
Position2: "Single Positioning lookup 29 subtable" dx=176 dy=0 dh=176 dv=0
Position2: "Single Positioning lookup 28 subtable" dx=142 dy=0 dh=142 dv=0
Position2: "Single Positioning lookup 22 subtable" dx=6 dy=0 dh=6 dv=0
Position2: "Single Positioning lookup 14 subtable" dx=0 dy=0 dh=231 dv=0
Position2: "Single Positioning lookup 13 subtable" dx=112 dy=0 dh=112 dv=0
Position2: "Single Positioning lookup 10 subtable" dx=40 dy=0 dh=40 dv=0
Position2: "Single Positioning lookup 7 subtable" dx=202 dy=0 dh=202 dv=0
Position2: "Single Positioning lookup 6 subtable" dx=76 dy=0 dh=76 dv=0
Position2: "Single Positioning lookup 4 subtable" dx=247 dy=0 dh=247 dv=0
EndChar

StartChar: uni1B16
Encoding: 6934 6934 27
Width: 1056
GlyphClass: 2
Flags: W
AnchorPoint: "Anchor-3" 588 0 basechar 0
AnchorPoint: "Anchor-0" 539 490 basechar 0
LayerCount: 2
Fore
SplineSet
616 52 m 1,0,1
 585 3 585 3 516 -2 c 1,2,3
 401 -2 401 -2 398 121 c 2,4,-1
 398 302 l 2,5,6
 397 350 397 350 358 353 c 2,7,-1
 349 354 l 2,8,9
 324 354 324 354 308.5 337.5 c 128,-1,10
 293 321 293 321 293 301 c 2,11,-1
 293 0 l 1,12,-1
 213 0 l 1,13,-1
 213 294 l 2,14,15
 210 350 210 350 162 350 c 0,16,17
 102 350 102 350 102 267 c 1,18,19
 106 209 106 209 138 179 c 1,20,-1
 116 152 l 1,21,22
 72 173 72 173 51 211 c 128,-1,23
 30 249 30 249 30 290 c 0,24,25
 30 327 30 327 49 361 c 0,26,27
 80 419 80 419 164 419 c 0,28,29
 231 419 231 419 263 384 c 1,30,31
 303 416 303 416 356 416 c 0,32,33
 476 416 476 416 478 303 c 2,34,-1
 478 116 l 2,35,36
 478 65 478 65 520 65 c 0,37,38
 570 65 570 65 592 145 c 1,39,-1
 646 145 l 1,40,41
 670 65 670 65 723 65 c 0,42,43
 795 69 795 69 797 161 c 0,44,45
 795 334 795 334 676 373 c 1,46,-1
 682 417 l 1,47,-1
 859 417 l 2,48,49
 1004 415 1004 415 1006 269 c 2,50,-1
 1006 0 l 1,51,-1
 927 0 l 1,52,-1
 927 274 l 2,53,54
 924 350 924 350 857 353 c 2,55,-1
 807 353 l 1,56,57
 864 292 864 292 869 189 c 1,58,-1
 869 167 l 2,59,60
 869 83 869 83 833.5 43 c 128,-1,61
 798 3 798 3 731 0 c 0,62,63
 647 0 647 0 616 52 c 1,0,1
EndSplineSet
MultipleSubs2: "Multiple Substitution lookup 314 subtable" uni1B16 _reorder
MultipleSubs2: "Multiple Substitution lookup 258 subtable" uni1B16 _reorder
MultipleSubs2: "Multiple Substitution lookup 202 subtable" uni1B16 _reorder
MultipleSubs2: "Multiple Substitution lookup 141 subtable" uni1B16 _reorder
MultipleSubs2: "Multiple Substitution lookup 85 subtable" uni1B16 _reorder
MultipleSubs2: "Multiple Substitution lookup 29 subtable" uni1B16 _reorder
Position2: "Single Positioning lookup 332 subtable" dx=130 dy=0 dh=130 dv=0
Position2: "Single Positioning lookup 331 subtable" dx=130 dy=0 dh=130 dv=0
Position2: "Single Positioning lookup 320 subtable" dx=130 dy=0 dh=130 dv=0
Position2: "Single Positioning lookup 319 subtable" dx=130 dy=0 dh=130 dv=0
Position2: "Single Positioning lookup 305 subtable" dx=130 dy=0 dh=130 dv=0
Position2: "Single Positioning lookup 299 subtable" dx=130 dy=0 dh=130 dv=0
Position2: "Single Positioning lookup 296 subtable" dx=130 dy=0 dh=130 dv=0
Position2: "Single Positioning lookup 293 subtable" dx=171 dy=0 dh=171 dv=0
Position2: "Single Positioning lookup 292 subtable" dx=171 dy=0 dh=171 dv=0
Position2: "Single Positioning lookup 284 subtable" dx=171 dy=0 dh=171 dv=0
Position2: "Single Positioning lookup 280 subtable" dx=171 dy=0 dh=171 dv=0
Position2: "Single Positioning lookup 279 subtable" dx=171 dy=0 dh=171 dv=0
Position2: "Single Positioning lookup 265 subtable" dx=171 dy=0 dh=171 dv=0
Position2: "Single Positioning lookup 259 subtable" dx=171 dy=0 dh=171 dv=0
Position2: "Single Positioning lookup 258 subtable" dx=171 dy=0 dh=171 dv=0
Position2: "Single Positioning lookup 256 subtable" dx=171 dy=0 dh=171 dv=0
Position2: "Single Positioning lookup 253 subtable" dx=89 dy=0 dh=89 dv=0
Position2: "Single Positioning lookup 252 subtable" dx=89 dy=0 dh=89 dv=0
Position2: "Single Positioning lookup 241 subtable" dx=89 dy=0 dh=89 dv=0
Position2: "Single Positioning lookup 226 subtable" dx=89 dy=0 dh=89 dv=0
Position2: "Single Positioning lookup 220 subtable" dx=89 dy=0 dh=89 dv=0
Position2: "Single Positioning lookup 217 subtable" dx=89 dy=0 dh=89 dv=0
Position2: "Single Positioning lookup 214 subtable" dx=221 dy=0 dh=221 dv=0
Position2: "Single Positioning lookup 213 subtable" dx=221 dy=0 dh=221 dv=0
Position2: "Single Positioning lookup 208 subtable" dx=221 dy=0 dh=221 dv=0
Position2: "Single Positioning lookup 205 subtable" dx=221 dy=0 dh=221 dv=0
Position2: "Single Positioning lookup 201 subtable" dx=221 dy=0 dh=221 dv=0
Position2: "Single Positioning lookup 200 subtable" dx=221 dy=0 dh=221 dv=0
Position2: "Single Positioning lookup 186 subtable" dx=221 dy=0 dh=221 dv=0
Position2: "Single Positioning lookup 183 subtable" dx=221 dy=0 dh=221 dv=0
Position2: "Single Positioning lookup 180 subtable" dx=221 dy=0 dh=221 dv=0
Position2: "Single Positioning lookup 179 subtable" dx=221 dy=0 dh=221 dv=0
Position2: "Single Positioning lookup 177 subtable" dx=221 dy=0 dh=221 dv=0
Position2: "Single Positioning lookup 174 subtable" dx=191 dy=0 dh=191 dv=0
Position2: "Single Positioning lookup 173 subtable" dx=191 dy=0 dh=191 dv=0
Position2: "Single Positioning lookup 168 subtable" dx=191 dy=0 dh=191 dv=0
Position2: "Single Positioning lookup 165 subtable" dx=191 dy=0 dh=191 dv=0
Position2: "Single Positioning lookup 161 subtable" dx=191 dy=0 dh=191 dv=0
Position2: "Single Positioning lookup 160 subtable" dx=191 dy=0 dh=191 dv=0
Position2: "Single Positioning lookup 146 subtable" dx=191 dy=0 dh=191 dv=0
Position2: "Single Positioning lookup 140 subtable" dx=191 dy=0 dh=191 dv=0
Position2: "Single Positioning lookup 139 subtable" dx=191 dy=0 dh=191 dv=0
Position2: "Single Positioning lookup 137 subtable" dx=191 dy=0 dh=191 dv=0
Position2: "Single Positioning lookup 134 subtable" dx=274 dy=0 dh=274 dv=0
Position2: "Single Positioning lookup 133 subtable" dx=274 dy=0 dh=274 dv=0
Position2: "Single Positioning lookup 128 subtable" dx=274 dy=0 dh=274 dv=0
Position2: "Single Positioning lookup 125 subtable" dx=274 dy=0 dh=274 dv=0
Position2: "Single Positioning lookup 121 subtable" dx=274 dy=0 dh=274 dv=0
Position2: "Single Positioning lookup 120 subtable" dx=274 dy=0 dh=274 dv=0
Position2: "Single Positioning lookup 114 subtable" dx=274 dy=0 dh=274 dv=0
Position2: "Single Positioning lookup 111 subtable" dx=274 dy=0 dh=274 dv=0
Position2: "Single Positioning lookup 106 subtable" dx=274 dy=0 dh=274 dv=0
Position2: "Single Positioning lookup 103 subtable" dx=274 dy=0 dh=274 dv=0
Position2: "Single Positioning lookup 100 subtable" dx=274 dy=0 dh=274 dv=0
Position2: "Single Positioning lookup 99 subtable" dx=274 dy=0 dh=274 dv=0
Position2: "Single Positioning lookup 97 subtable" dx=274 dy=0 dh=274 dv=0
Position2: "Single Positioning lookup 95 subtable" dx=274 dy=0 dh=274 dv=0
Position2: "Single Positioning lookup 44 subtable" dx=0 dy=0 dh=204 dv=0
Position2: "Single Positioning lookup 43 subtable" dx=84 dy=0 dh=84 dv=0
Position2: "Single Positioning lookup 42 subtable" dx=0 dy=0 dh=172 dv=0
Position2: "Single Positioning lookup 41 subtable" dx=53 dy=0 dh=53 dv=0
Position2: "Single Positioning lookup 14 subtable" dx=0 dy=0 dh=115 dv=0
Position2: "Single Positioning lookup 4 subtable" dx=15 dy=0 dh=15 dv=0
EndChar

StartChar: uni1B17
Encoding: 6935 6935 28
Width: 846
GlyphClass: 2
Flags: W
AnchorPoint: "Anchor-3" 483 0 basechar 0
AnchorPoint: "Anchor-0" 453 490 basechar 0
LayerCount: 2
Fore
SplineSet
796 0 m 1,0,-1
 717 0 l 1,1,-1
 717 265 l 2,2,3
 717 346 717 346 646 346 c 0,4,5
 583 346 583 346 564 267 c 1,6,-1
 509 267 l 1,7,8
 487 354 487 354 428 354 c 0,9,10
 360 354 360 354 360 248 c 0,11,12
 360 121 360 121 450 49 c 1,13,-1
 445 0 l 1,14,-1
 243 0 l 2,15,16
 152 0 152 0 123 67 c 0,17,18
 115 89 115 89 115 111 c 0,19,20
 115 146 115 146 133 182 c 2,21,-1
 177 274 l 2,22,23
 186 295 186 295 186 312 c 256,24,25
 186 329 186 329 175 341.5 c 128,-1,26
 164 354 164 354 147 354 c 2,27,-1
 136 353 l 1,28,29
 88 342 88 342 88 251 c 2,30,-1
 88 231 l 1,31,-1
 45 228 l 1,32,33
 30 270 30 270 30 303 c 0,34,35
 30 353 30 353 60.5 386 c 128,-1,36
 91 419 91 419 149 419 c 0,37,38
 202 419 202 419 231.5 388 c 128,-1,39
 261 357 261 357 261 310 c 0,40,41
 261 275 261 275 243 233 c 1,42,43
 197 149 197 149 197 110 c 0,44,45
 197 65 197 65 244 65 c 2,46,-1
 354 65 l 1,47,48
 283 128 283 128 283 245 c 0,49,50
 283 325 283 325 320.5 372 c 128,-1,51
 358 419 358 419 428 419 c 0,52,53
 515 417 515 417 539 359 c 1,54,55
 577 413 577 413 652 413 c 0,56,57
 796 413 796 413 796 261 c 2,58,-1
 796 0 l 1,0,-1
EndSplineSet
MultipleSubs2: "Multiple Substitution lookup 315 subtable" uni1B17 _reorder
MultipleSubs2: "Multiple Substitution lookup 259 subtable" uni1B17 _reorder
MultipleSubs2: "Multiple Substitution lookup 203 subtable" uni1B17 _reorder
MultipleSubs2: "Multiple Substitution lookup 142 subtable" uni1B17 _reorder
MultipleSubs2: "Multiple Substitution lookup 86 subtable" uni1B17 _reorder
MultipleSubs2: "Multiple Substitution lookup 30 subtable" uni1B17 _reorder
Position2: "Single Positioning lookup 332 subtable" dx=130 dy=0 dh=130 dv=0
Position2: "Single Positioning lookup 331 subtable" dx=130 dy=0 dh=130 dv=0
Position2: "Single Positioning lookup 330 subtable" dx=130 dy=0 dh=130 dv=0
Position2: "Single Positioning lookup 327 subtable" dx=130 dy=0 dh=130 dv=0
Position2: "Single Positioning lookup 325 subtable" dx=130 dy=0 dh=130 dv=0
Position2: "Single Positioning lookup 324 subtable" dx=130 dy=0 dh=130 dv=0
Position2: "Single Positioning lookup 321 subtable" dx=130 dy=0 dh=130 dv=0
Position2: "Single Positioning lookup 320 subtable" dx=130 dy=0 dh=130 dv=0
Position2: "Single Positioning lookup 319 subtable" dx=130 dy=0 dh=130 dv=0
Position2: "Single Positioning lookup 316 subtable" dx=130 dy=0 dh=130 dv=0
Position2: "Single Positioning lookup 313 subtable" dx=130 dy=0 dh=130 dv=0
Position2: "Single Positioning lookup 312 subtable" dx=130 dy=0 dh=130 dv=0
Position2: "Single Positioning lookup 310 subtable" dx=130 dy=0 dh=130 dv=0
Position2: "Single Positioning lookup 309 subtable" dx=130 dy=0 dh=130 dv=0
Position2: "Single Positioning lookup 305 subtable" dx=130 dy=0 dh=130 dv=0
Position2: "Single Positioning lookup 302 subtable" dx=130 dy=0 dh=130 dv=0
Position2: "Single Positioning lookup 300 subtable" dx=130 dy=0 dh=130 dv=0
Position2: "Single Positioning lookup 299 subtable" dx=130 dy=0 dh=130 dv=0
Position2: "Single Positioning lookup 298 subtable" dx=130 dy=0 dh=130 dv=0
Position2: "Single Positioning lookup 296 subtable" dx=130 dy=0 dh=130 dv=0
Position2: "Single Positioning lookup 295 subtable" dx=130 dy=0 dh=130 dv=0
Position2: "Single Positioning lookup 294 subtable" dx=130 dy=0 dh=130 dv=0
Position2: "Single Positioning lookup 293 subtable" dx=171 dy=0 dh=171 dv=0
Position2: "Single Positioning lookup 292 subtable" dx=171 dy=0 dh=171 dv=0
Position2: "Single Positioning lookup 291 subtable" dx=171 dy=0 dh=171 dv=0
Position2: "Single Positioning lookup 287 subtable" dx=171 dy=0 dh=171 dv=0
Position2: "Single Positioning lookup 285 subtable" dx=171 dy=0 dh=171 dv=0
Position2: "Single Positioning lookup 284 subtable" dx=171 dy=0 dh=171 dv=0
Position2: "Single Positioning lookup 281 subtable" dx=171 dy=0 dh=171 dv=0
Position2: "Single Positioning lookup 280 subtable" dx=171 dy=0 dh=171 dv=0
Position2: "Single Positioning lookup 279 subtable" dx=171 dy=0 dh=171 dv=0
Position2: "Single Positioning lookup 277 subtable" dx=171 dy=0 dh=171 dv=0
Position2: "Single Positioning lookup 276 subtable" dx=171 dy=0 dh=171 dv=0
Position2: "Single Positioning lookup 273 subtable" dx=171 dy=0 dh=171 dv=0
Position2: "Single Positioning lookup 272 subtable" dx=171 dy=0 dh=171 dv=0
Position2: "Single Positioning lookup 271 subtable" dx=171 dy=0 dh=171 dv=0
Position2: "Single Positioning lookup 270 subtable" dx=171 dy=0 dh=171 dv=0
Position2: "Single Positioning lookup 269 subtable" dx=171 dy=0 dh=171 dv=0
Position2: "Single Positioning lookup 265 subtable" dx=171 dy=0 dh=171 dv=0
Position2: "Single Positioning lookup 262 subtable" dx=171 dy=0 dh=171 dv=0
Position2: "Single Positioning lookup 261 subtable" dx=171 dy=0 dh=171 dv=0
Position2: "Single Positioning lookup 260 subtable" dx=171 dy=0 dh=171 dv=0
Position2: "Single Positioning lookup 259 subtable" dx=171 dy=0 dh=171 dv=0
Position2: "Single Positioning lookup 258 subtable" dx=171 dy=0 dh=171 dv=0
Position2: "Single Positioning lookup 256 subtable" dx=171 dy=0 dh=171 dv=0
Position2: "Single Positioning lookup 255 subtable" dx=171 dy=0 dh=171 dv=0
Position2: "Single Positioning lookup 254 subtable" dx=171 dy=0 dh=171 dv=0
Position2: "Single Positioning lookup 253 subtable" dx=89 dy=0 dh=89 dv=0
Position2: "Single Positioning lookup 252 subtable" dx=89 dy=0 dh=89 dv=0
Position2: "Single Positioning lookup 251 subtable" dx=89 dy=0 dh=89 dv=0
Position2: "Single Positioning lookup 248 subtable" dx=89 dy=0 dh=89 dv=0
Position2: "Single Positioning lookup 246 subtable" dx=89 dy=0 dh=89 dv=0
Position2: "Single Positioning lookup 245 subtable" dx=89 dy=0 dh=89 dv=0
Position2: "Single Positioning lookup 242 subtable" dx=89 dy=0 dh=89 dv=0
Position2: "Single Positioning lookup 241 subtable" dx=89 dy=0 dh=89 dv=0
Position2: "Single Positioning lookup 240 subtable" dx=89 dy=0 dh=89 dv=0
Position2: "Single Positioning lookup 234 subtable" dx=89 dy=0 dh=89 dv=0
Position2: "Single Positioning lookup 233 subtable" dx=89 dy=0 dh=89 dv=0
Position2: "Single Positioning lookup 231 subtable" dx=89 dy=0 dh=89 dv=0
Position2: "Single Positioning lookup 226 subtable" dx=89 dy=0 dh=89 dv=0
Position2: "Single Positioning lookup 223 subtable" dx=89 dy=0 dh=89 dv=0
Position2: "Single Positioning lookup 220 subtable" dx=89 dy=0 dh=89 dv=0
Position2: "Single Positioning lookup 219 subtable" dx=89 dy=0 dh=89 dv=0
Position2: "Single Positioning lookup 217 subtable" dx=89 dy=0 dh=89 dv=0
Position2: "Single Positioning lookup 215 subtable" dx=89 dy=0 dh=89 dv=0
Position2: "Single Positioning lookup 214 subtable" dx=221 dy=0 dh=221 dv=0
Position2: "Single Positioning lookup 213 subtable" dx=221 dy=0 dh=221 dv=0
Position2: "Single Positioning lookup 212 subtable" dx=221 dy=0 dh=221 dv=0
Position2: "Single Positioning lookup 208 subtable" dx=221 dy=0 dh=221 dv=0
Position2: "Single Positioning lookup 207 subtable" dx=221 dy=0 dh=221 dv=0
Position2: "Single Positioning lookup 206 subtable" dx=221 dy=0 dh=221 dv=0
Position2: "Single Positioning lookup 205 subtable" dx=221 dy=0 dh=221 dv=0
Position2: "Single Positioning lookup 202 subtable" dx=221 dy=0 dh=221 dv=0
Position2: "Single Positioning lookup 201 subtable" dx=221 dy=0 dh=221 dv=0
Position2: "Single Positioning lookup 200 subtable" dx=221 dy=0 dh=221 dv=0
Position2: "Single Positioning lookup 198 subtable" dx=221 dy=0 dh=221 dv=0
Position2: "Single Positioning lookup 197 subtable" dx=221 dy=0 dh=221 dv=0
Position2: "Single Positioning lookup 196 subtable" dx=221 dy=0 dh=221 dv=0
Position2: "Single Positioning lookup 194 subtable" dx=221 dy=0 dh=221 dv=0
Position2: "Single Positioning lookup 193 subtable" dx=221 dy=0 dh=221 dv=0
Position2: "Single Positioning lookup 192 subtable" dx=221 dy=0 dh=221 dv=0
Position2: "Single Positioning lookup 191 subtable" dx=221 dy=0 dh=221 dv=0
Position2: "Single Positioning lookup 190 subtable" dx=221 dy=0 dh=221 dv=0
Position2: "Single Positioning lookup 186 subtable" dx=221 dy=0 dh=221 dv=0
Position2: "Single Positioning lookup 184 subtable" dx=221 dy=0 dh=221 dv=0
Position2: "Single Positioning lookup 183 subtable" dx=221 dy=0 dh=221 dv=0
Position2: "Single Positioning lookup 182 subtable" dx=221 dy=0 dh=221 dv=0
Position2: "Single Positioning lookup 181 subtable" dx=221 dy=0 dh=221 dv=0
Position2: "Single Positioning lookup 180 subtable" dx=221 dy=0 dh=221 dv=0
Position2: "Single Positioning lookup 179 subtable" dx=221 dy=0 dh=221 dv=0
Position2: "Single Positioning lookup 177 subtable" dx=221 dy=0 dh=221 dv=0
Position2: "Single Positioning lookup 176 subtable" dx=221 dy=0 dh=221 dv=0
Position2: "Single Positioning lookup 175 subtable" dx=221 dy=0 dh=221 dv=0
Position2: "Single Positioning lookup 174 subtable" dx=191 dy=0 dh=191 dv=0
Position2: "Single Positioning lookup 173 subtable" dx=191 dy=0 dh=191 dv=0
Position2: "Single Positioning lookup 172 subtable" dx=191 dy=0 dh=191 dv=0
Position2: "Single Positioning lookup 168 subtable" dx=191 dy=0 dh=191 dv=0
Position2: "Single Positioning lookup 167 subtable" dx=191 dy=0 dh=191 dv=0
Position2: "Single Positioning lookup 166 subtable" dx=191 dy=0 dh=191 dv=0
Position2: "Single Positioning lookup 165 subtable" dx=191 dy=0 dh=191 dv=0
Position2: "Single Positioning lookup 162 subtable" dx=191 dy=0 dh=191 dv=0
Position2: "Single Positioning lookup 161 subtable" dx=191 dy=0 dh=191 dv=0
Position2: "Single Positioning lookup 160 subtable" dx=191 dy=0 dh=191 dv=0
Position2: "Single Positioning lookup 158 subtable" dx=191 dy=0 dh=191 dv=0
Position2: "Single Positioning lookup 157 subtable" dx=191 dy=0 dh=191 dv=0
Position2: "Single Positioning lookup 156 subtable" dx=191 dy=0 dh=191 dv=0
Position2: "Single Positioning lookup 154 subtable" dx=191 dy=0 dh=191 dv=0
Position2: "Single Positioning lookup 153 subtable" dx=191 dy=0 dh=191 dv=0
Position2: "Single Positioning lookup 152 subtable" dx=191 dy=0 dh=191 dv=0
Position2: "Single Positioning lookup 151 subtable" dx=191 dy=0 dh=191 dv=0
Position2: "Single Positioning lookup 150 subtable" dx=191 dy=0 dh=191 dv=0
Position2: "Single Positioning lookup 146 subtable" dx=191 dy=0 dh=191 dv=0
Position2: "Single Positioning lookup 143 subtable" dx=191 dy=0 dh=191 dv=0
Position2: "Single Positioning lookup 142 subtable" dx=191 dy=0 dh=191 dv=0
Position2: "Single Positioning lookup 141 subtable" dx=191 dy=0 dh=191 dv=0
Position2: "Single Positioning lookup 140 subtable" dx=191 dy=0 dh=191 dv=0
Position2: "Single Positioning lookup 139 subtable" dx=191 dy=0 dh=191 dv=0
Position2: "Single Positioning lookup 137 subtable" dx=191 dy=0 dh=191 dv=0
Position2: "Single Positioning lookup 136 subtable" dx=191 dy=0 dh=191 dv=0
Position2: "Single Positioning lookup 135 subtable" dx=191 dy=0 dh=191 dv=0
Position2: "Single Positioning lookup 134 subtable" dx=274 dy=0 dh=274 dv=0
Position2: "Single Positioning lookup 133 subtable" dx=274 dy=0 dh=274 dv=0
Position2: "Single Positioning lookup 132 subtable" dx=274 dy=0 dh=274 dv=0
Position2: "Single Positioning lookup 130 subtable" dx=274 dy=0 dh=274 dv=0
Position2: "Single Positioning lookup 129 subtable" dx=274 dy=0 dh=274 dv=0
Position2: "Single Positioning lookup 128 subtable" dx=274 dy=0 dh=274 dv=0
Position2: "Single Positioning lookup 127 subtable" dx=274 dy=0 dh=274 dv=0
Position2: "Single Positioning lookup 126 subtable" dx=274 dy=0 dh=274 dv=0
Position2: "Single Positioning lookup 125 subtable" dx=274 dy=0 dh=274 dv=0
Position2: "Single Positioning lookup 124 subtable" dx=274 dy=0 dh=274 dv=0
Position2: "Single Positioning lookup 122 subtable" dx=274 dy=0 dh=274 dv=0
Position2: "Single Positioning lookup 121 subtable" dx=274 dy=0 dh=274 dv=0
Position2: "Single Positioning lookup 120 subtable" dx=274 dy=0 dh=274 dv=0
Position2: "Single Positioning lookup 119 subtable" dx=274 dy=0 dh=274 dv=0
Position2: "Single Positioning lookup 118 subtable" dx=274 dy=0 dh=274 dv=0
Position2: "Single Positioning lookup 117 subtable" dx=274 dy=0 dh=274 dv=0
Position2: "Single Positioning lookup 116 subtable" dx=274 dy=0 dh=274 dv=0
Position2: "Single Positioning lookup 114 subtable" dx=274 dy=0 dh=274 dv=0
Position2: "Single Positioning lookup 113 subtable" dx=274 dy=0 dh=274 dv=0
Position2: "Single Positioning lookup 112 subtable" dx=274 dy=0 dh=274 dv=0
Position2: "Single Positioning lookup 111 subtable" dx=274 dy=0 dh=274 dv=0
Position2: "Single Positioning lookup 110 subtable" dx=274 dy=0 dh=274 dv=0
Position2: "Single Positioning lookup 109 subtable" dx=274 dy=0 dh=274 dv=0
Position2: "Single Positioning lookup 108 subtable" dx=274 dy=0 dh=274 dv=0
Position2: "Single Positioning lookup 106 subtable" dx=274 dy=0 dh=274 dv=0
Position2: "Single Positioning lookup 105 subtable" dx=274 dy=0 dh=274 dv=0
Position2: "Single Positioning lookup 104 subtable" dx=274 dy=0 dh=274 dv=0
Position2: "Single Positioning lookup 103 subtable" dx=274 dy=0 dh=274 dv=0
Position2: "Single Positioning lookup 102 subtable" dx=274 dy=0 dh=274 dv=0
Position2: "Single Positioning lookup 101 subtable" dx=274 dy=0 dh=274 dv=0
Position2: "Single Positioning lookup 100 subtable" dx=274 dy=0 dh=274 dv=0
Position2: "Single Positioning lookup 99 subtable" dx=274 dy=0 dh=274 dv=0
Position2: "Single Positioning lookup 98 subtable" dx=274 dy=0 dh=274 dv=0
Position2: "Single Positioning lookup 97 subtable" dx=274 dy=0 dh=274 dv=0
Position2: "Single Positioning lookup 96 subtable" dx=274 dy=0 dh=274 dv=0
Position2: "Single Positioning lookup 95 subtable" dx=274 dy=0 dh=274 dv=0
Position2: "Single Positioning lookup 48 subtable" dx=140 dy=0 dh=140 dv=0
Position2: "Single Positioning lookup 44 subtable" dx=0 dy=0 dh=309 dv=0
Position2: "Single Positioning lookup 43 subtable" dx=189 dy=0 dh=189 dv=0
Position2: "Single Positioning lookup 42 subtable" dx=0 dy=0 dh=277 dv=0
Position2: "Single Positioning lookup 41 subtable" dx=158 dy=0 dh=158 dv=0
Position2: "Single Positioning lookup 36 subtable" dx=32 dy=0 dh=32 dv=0
Position2: "Single Positioning lookup 33 subtable" dx=79 dy=0 dh=79 dv=0
Position2: "Single Positioning lookup 29 subtable" dx=154 dy=0 dh=154 dv=0
Position2: "Single Positioning lookup 28 subtable" dx=120 dy=0 dh=120 dv=0
Position2: "Single Positioning lookup 14 subtable" dx=0 dy=0 dh=220 dv=0
Position2: "Single Positioning lookup 13 subtable" dx=101 dy=0 dh=101 dv=0
Position2: "Single Positioning lookup 10 subtable" dx=18 dy=0 dh=18 dv=0
Position2: "Single Positioning lookup 7 subtable" dx=180 dy=0 dh=180 dv=0
Position2: "Single Positioning lookup 6 subtable" dx=54 dy=0 dh=54 dv=0
Position2: "Single Positioning lookup 4 subtable" dx=225 dy=0 dh=225 dv=0
EndChar

StartChar: uni1B18
Encoding: 6936 6936 29
Width: 755
GlyphClass: 2
Flags: W
AnchorPoint: "Anchor-3" 427 0 basechar 0
AnchorPoint: "Anchor-0" 347 490 basechar 0
LayerCount: 2
Fore
SplineSet
182 51 m 1,0,-1
 186 52 l 2,1,2
 213 55 213 55 213 104 c 1,3,4
 192 104 192 104 178.5 93.5 c 128,-1,5
 165 83 165 83 165 69 c 0,6,7
 165 51 165 51 182 51 c 1,0,-1
375 373 m 1,8,-1
 381 417 l 1,9,-1
 558 417 l 2,10,11
 703 415 703 415 705 269 c 2,12,-1
 705 0 l 1,13,-1
 626 0 l 1,14,-1
 626 274 l 2,15,16
 623 350 623 350 556 353 c 2,17,-1
 506 353 l 1,18,19
 563 292 563 292 564 181 c 0,20,21
 560 2 560 2 422 -1 c 0,22,23
 347 0 347 0 280 65 c 1,24,25
 259 2 259 2 194 -4 c 1,26,-1
 181 -4 l 2,27,28
 148 -4 148 -4 127.5 14.5 c 128,-1,29
 107 33 107 33 106 67 c 0,30,31
 106 106 106 106 134 133 c 128,-1,32
 162 160 162 160 213 161 c 1,33,-1
 213 294 l 2,34,35
 210 350 210 350 162 350 c 0,36,37
 102 350 102 350 102 267 c 1,38,39
 106 209 106 209 138 179 c 1,40,-1
 116 152 l 1,41,42
 72 173 72 173 51 211 c 128,-1,43
 30 249 30 249 30 290 c 0,44,45
 30 327 30 327 49 361 c 0,46,47
 80 419 80 419 164 419 c 0,48,49
 291 419 291 419 293 294 c 2,50,-1
 293 133 l 1,51,52
 367 66 367 66 414 66 c 2,53,-1
 419 66 l 1,54,55
 485 70 485 70 489 188 c 1,56,57
 485 337 485 337 375 373 c 1,8,-1
EndSplineSet
MultipleSubs2: "Multiple Substitution lookup 316 subtable" uni1B18 _reorder
MultipleSubs2: "Multiple Substitution lookup 260 subtable" uni1B18 _reorder
MultipleSubs2: "Multiple Substitution lookup 204 subtable" uni1B18 _reorder
MultipleSubs2: "Multiple Substitution lookup 143 subtable" uni1B18 _reorder
MultipleSubs2: "Multiple Substitution lookup 87 subtable" uni1B18 _reorder
MultipleSubs2: "Multiple Substitution lookup 31 subtable" uni1B18 _reorder
Position2: "Single Positioning lookup 332 subtable" dx=130 dy=0 dh=130 dv=0
Position2: "Single Positioning lookup 331 subtable" dx=130 dy=0 dh=130 dv=0
Position2: "Single Positioning lookup 330 subtable" dx=130 dy=0 dh=130 dv=0
Position2: "Single Positioning lookup 327 subtable" dx=130 dy=0 dh=130 dv=0
Position2: "Single Positioning lookup 326 subtable" dx=130 dy=0 dh=130 dv=0
Position2: "Single Positioning lookup 325 subtable" dx=130 dy=0 dh=130 dv=0
Position2: "Single Positioning lookup 324 subtable" dx=130 dy=0 dh=130 dv=0
Position2: "Single Positioning lookup 321 subtable" dx=130 dy=0 dh=130 dv=0
Position2: "Single Positioning lookup 320 subtable" dx=130 dy=0 dh=130 dv=0
Position2: "Single Positioning lookup 319 subtable" dx=130 dy=0 dh=130 dv=0
Position2: "Single Positioning lookup 317 subtable" dx=130 dy=0 dh=130 dv=0
Position2: "Single Positioning lookup 316 subtable" dx=130 dy=0 dh=130 dv=0
Position2: "Single Positioning lookup 315 subtable" dx=130 dy=0 dh=130 dv=0
Position2: "Single Positioning lookup 313 subtable" dx=130 dy=0 dh=130 dv=0
Position2: "Single Positioning lookup 312 subtable" dx=130 dy=0 dh=130 dv=0
Position2: "Single Positioning lookup 311 subtable" dx=130 dy=0 dh=130 dv=0
Position2: "Single Positioning lookup 310 subtable" dx=130 dy=0 dh=130 dv=0
Position2: "Single Positioning lookup 309 subtable" dx=130 dy=0 dh=130 dv=0
Position2: "Single Positioning lookup 305 subtable" dx=130 dy=0 dh=130 dv=0
Position2: "Single Positioning lookup 303 subtable" dx=130 dy=0 dh=130 dv=0
Position2: "Single Positioning lookup 302 subtable" dx=130 dy=0 dh=130 dv=0
Position2: "Single Positioning lookup 301 subtable" dx=130 dy=0 dh=130 dv=0
Position2: "Single Positioning lookup 300 subtable" dx=130 dy=0 dh=130 dv=0
Position2: "Single Positioning lookup 299 subtable" dx=130 dy=0 dh=130 dv=0
Position2: "Single Positioning lookup 298 subtable" dx=130 dy=0 dh=130 dv=0
Position2: "Single Positioning lookup 296 subtable" dx=130 dy=0 dh=130 dv=0
Position2: "Single Positioning lookup 295 subtable" dx=130 dy=0 dh=130 dv=0
Position2: "Single Positioning lookup 294 subtable" dx=130 dy=0 dh=130 dv=0
Position2: "Single Positioning lookup 293 subtable" dx=171 dy=0 dh=171 dv=0
Position2: "Single Positioning lookup 292 subtable" dx=171 dy=0 dh=171 dv=0
Position2: "Single Positioning lookup 291 subtable" dx=171 dy=0 dh=171 dv=0
Position2: "Single Positioning lookup 289 subtable" dx=171 dy=0 dh=171 dv=0
Position2: "Single Positioning lookup 288 subtable" dx=171 dy=0 dh=171 dv=0
Position2: "Single Positioning lookup 287 subtable" dx=171 dy=0 dh=171 dv=0
Position2: "Single Positioning lookup 286 subtable" dx=171 dy=0 dh=171 dv=0
Position2: "Single Positioning lookup 285 subtable" dx=171 dy=0 dh=171 dv=0
Position2: "Single Positioning lookup 284 subtable" dx=171 dy=0 dh=171 dv=0
Position2: "Single Positioning lookup 283 subtable" dx=171 dy=0 dh=171 dv=0
Position2: "Single Positioning lookup 281 subtable" dx=171 dy=0 dh=171 dv=0
Position2: "Single Positioning lookup 280 subtable" dx=171 dy=0 dh=171 dv=0
Position2: "Single Positioning lookup 279 subtable" dx=171 dy=0 dh=171 dv=0
Position2: "Single Positioning lookup 278 subtable" dx=171 dy=0 dh=171 dv=0
Position2: "Single Positioning lookup 277 subtable" dx=171 dy=0 dh=171 dv=0
Position2: "Single Positioning lookup 276 subtable" dx=171 dy=0 dh=171 dv=0
Position2: "Single Positioning lookup 275 subtable" dx=171 dy=0 dh=171 dv=0
Position2: "Single Positioning lookup 273 subtable" dx=171 dy=0 dh=171 dv=0
Position2: "Single Positioning lookup 272 subtable" dx=171 dy=0 dh=171 dv=0
Position2: "Single Positioning lookup 271 subtable" dx=171 dy=0 dh=171 dv=0
Position2: "Single Positioning lookup 270 subtable" dx=171 dy=0 dh=171 dv=0
Position2: "Single Positioning lookup 269 subtable" dx=171 dy=0 dh=171 dv=0
Position2: "Single Positioning lookup 268 subtable" dx=171 dy=0 dh=171 dv=0
Position2: "Single Positioning lookup 265 subtable" dx=171 dy=0 dh=171 dv=0
Position2: "Single Positioning lookup 263 subtable" dx=171 dy=0 dh=171 dv=0
Position2: "Single Positioning lookup 262 subtable" dx=171 dy=0 dh=171 dv=0
Position2: "Single Positioning lookup 261 subtable" dx=171 dy=0 dh=171 dv=0
Position2: "Single Positioning lookup 260 subtable" dx=171 dy=0 dh=171 dv=0
Position2: "Single Positioning lookup 259 subtable" dx=171 dy=0 dh=171 dv=0
Position2: "Single Positioning lookup 258 subtable" dx=171 dy=0 dh=171 dv=0
Position2: "Single Positioning lookup 257 subtable" dx=171 dy=0 dh=171 dv=0
Position2: "Single Positioning lookup 256 subtable" dx=171 dy=0 dh=171 dv=0
Position2: "Single Positioning lookup 255 subtable" dx=171 dy=0 dh=171 dv=0
Position2: "Single Positioning lookup 254 subtable" dx=171 dy=0 dh=171 dv=0
Position2: "Single Positioning lookup 253 subtable" dx=89 dy=0 dh=89 dv=0
Position2: "Single Positioning lookup 252 subtable" dx=89 dy=0 dh=89 dv=0
Position2: "Single Positioning lookup 251 subtable" dx=89 dy=0 dh=89 dv=0
Position2: "Single Positioning lookup 248 subtable" dx=89 dy=0 dh=89 dv=0
Position2: "Single Positioning lookup 246 subtable" dx=89 dy=0 dh=89 dv=0
Position2: "Single Positioning lookup 245 subtable" dx=89 dy=0 dh=89 dv=0
Position2: "Single Positioning lookup 242 subtable" dx=89 dy=0 dh=89 dv=0
Position2: "Single Positioning lookup 241 subtable" dx=89 dy=0 dh=89 dv=0
Position2: "Single Positioning lookup 240 subtable" dx=89 dy=0 dh=89 dv=0
Position2: "Single Positioning lookup 238 subtable" dx=89 dy=0 dh=89 dv=0
Position2: "Single Positioning lookup 237 subtable" dx=89 dy=0 dh=89 dv=0
Position2: "Single Positioning lookup 236 subtable" dx=89 dy=0 dh=89 dv=0
Position2: "Single Positioning lookup 234 subtable" dx=89 dy=0 dh=89 dv=0
Position2: "Single Positioning lookup 233 subtable" dx=89 dy=0 dh=89 dv=0
Position2: "Single Positioning lookup 232 subtable" dx=89 dy=0 dh=89 dv=0
Position2: "Single Positioning lookup 231 subtable" dx=89 dy=0 dh=89 dv=0
Position2: "Single Positioning lookup 230 subtable" dx=89 dy=0 dh=89 dv=0
Position2: "Single Positioning lookup 226 subtable" dx=89 dy=0 dh=89 dv=0
Position2: "Single Positioning lookup 223 subtable" dx=89 dy=0 dh=89 dv=0
Position2: "Single Positioning lookup 222 subtable" dx=89 dy=0 dh=89 dv=0
Position2: "Single Positioning lookup 221 subtable" dx=89 dy=0 dh=89 dv=0
Position2: "Single Positioning lookup 220 subtable" dx=89 dy=0 dh=89 dv=0
Position2: "Single Positioning lookup 219 subtable" dx=89 dy=0 dh=89 dv=0
Position2: "Single Positioning lookup 217 subtable" dx=89 dy=0 dh=89 dv=0
Position2: "Single Positioning lookup 216 subtable" dx=89 dy=0 dh=89 dv=0
Position2: "Single Positioning lookup 215 subtable" dx=89 dy=0 dh=89 dv=0
Position2: "Single Positioning lookup 214 subtable" dx=221 dy=0 dh=221 dv=0
Position2: "Single Positioning lookup 213 subtable" dx=221 dy=0 dh=221 dv=0
Position2: "Single Positioning lookup 212 subtable" dx=221 dy=0 dh=221 dv=0
Position2: "Single Positioning lookup 210 subtable" dx=221 dy=0 dh=221 dv=0
Position2: "Single Positioning lookup 209 subtable" dx=221 dy=0 dh=221 dv=0
Position2: "Single Positioning lookup 208 subtable" dx=221 dy=0 dh=221 dv=0
Position2: "Single Positioning lookup 207 subtable" dx=221 dy=0 dh=221 dv=0
Position2: "Single Positioning lookup 206 subtable" dx=221 dy=0 dh=221 dv=0
Position2: "Single Positioning lookup 205 subtable" dx=221 dy=0 dh=221 dv=0
Position2: "Single Positioning lookup 204 subtable" dx=221 dy=0 dh=221 dv=0
Position2: "Single Positioning lookup 203 subtable" dx=221 dy=0 dh=221 dv=0
Position2: "Single Positioning lookup 202 subtable" dx=221 dy=0 dh=221 dv=0
Position2: "Single Positioning lookup 201 subtable" dx=221 dy=0 dh=221 dv=0
Position2: "Single Positioning lookup 200 subtable" dx=221 dy=0 dh=221 dv=0
Position2: "Single Positioning lookup 199 subtable" dx=221 dy=0 dh=221 dv=0
Position2: "Single Positioning lookup 198 subtable" dx=221 dy=0 dh=221 dv=0
Position2: "Single Positioning lookup 197 subtable" dx=221 dy=0 dh=221 dv=0
Position2: "Single Positioning lookup 196 subtable" dx=221 dy=0 dh=221 dv=0
Position2: "Single Positioning lookup 195 subtable" dx=221 dy=0 dh=221 dv=0
Position2: "Single Positioning lookup 194 subtable" dx=221 dy=0 dh=221 dv=0
Position2: "Single Positioning lookup 193 subtable" dx=221 dy=0 dh=221 dv=0
Position2: "Single Positioning lookup 192 subtable" dx=221 dy=0 dh=221 dv=0
Position2: "Single Positioning lookup 191 subtable" dx=221 dy=0 dh=221 dv=0
Position2: "Single Positioning lookup 190 subtable" dx=221 dy=0 dh=221 dv=0
Position2: "Single Positioning lookup 189 subtable" dx=221 dy=0 dh=221 dv=0
Position2: "Single Positioning lookup 188 subtable" dx=221 dy=0 dh=221 dv=0
Position2: "Single Positioning lookup 187 subtable" dx=221 dy=0 dh=221 dv=0
Position2: "Single Positioning lookup 186 subtable" dx=221 dy=0 dh=221 dv=0
Position2: "Single Positioning lookup 185 subtable" dx=221 dy=0 dh=221 dv=0
Position2: "Single Positioning lookup 184 subtable" dx=221 dy=0 dh=221 dv=0
Position2: "Single Positioning lookup 183 subtable" dx=221 dy=0 dh=221 dv=0
Position2: "Single Positioning lookup 182 subtable" dx=221 dy=0 dh=221 dv=0
Position2: "Single Positioning lookup 181 subtable" dx=221 dy=0 dh=221 dv=0
Position2: "Single Positioning lookup 180 subtable" dx=221 dy=0 dh=221 dv=0
Position2: "Single Positioning lookup 179 subtable" dx=221 dy=0 dh=221 dv=0
Position2: "Single Positioning lookup 178 subtable" dx=221 dy=0 dh=221 dv=0
Position2: "Single Positioning lookup 177 subtable" dx=221 dy=0 dh=221 dv=0
Position2: "Single Positioning lookup 176 subtable" dx=221 dy=0 dh=221 dv=0
Position2: "Single Positioning lookup 175 subtable" dx=221 dy=0 dh=221 dv=0
Position2: "Single Positioning lookup 174 subtable" dx=191 dy=0 dh=191 dv=0
Position2: "Single Positioning lookup 173 subtable" dx=191 dy=0 dh=191 dv=0
Position2: "Single Positioning lookup 172 subtable" dx=191 dy=0 dh=191 dv=0
Position2: "Single Positioning lookup 170 subtable" dx=191 dy=0 dh=191 dv=0
Position2: "Single Positioning lookup 169 subtable" dx=191 dy=0 dh=191 dv=0
Position2: "Single Positioning lookup 168 subtable" dx=191 dy=0 dh=191 dv=0
Position2: "Single Positioning lookup 167 subtable" dx=191 dy=0 dh=191 dv=0
Position2: "Single Positioning lookup 166 subtable" dx=191 dy=0 dh=191 dv=0
Position2: "Single Positioning lookup 165 subtable" dx=191 dy=0 dh=191 dv=0
Position2: "Single Positioning lookup 164 subtable" dx=191 dy=0 dh=191 dv=0
Position2: "Single Positioning lookup 162 subtable" dx=191 dy=0 dh=191 dv=0
Position2: "Single Positioning lookup 161 subtable" dx=191 dy=0 dh=191 dv=0
Position2: "Single Positioning lookup 160 subtable" dx=191 dy=0 dh=191 dv=0
Position2: "Single Positioning lookup 159 subtable" dx=191 dy=0 dh=191 dv=0
Position2: "Single Positioning lookup 158 subtable" dx=191 dy=0 dh=191 dv=0
Position2: "Single Positioning lookup 157 subtable" dx=191 dy=0 dh=191 dv=0
Position2: "Single Positioning lookup 156 subtable" dx=191 dy=0 dh=191 dv=0
Position2: "Single Positioning lookup 154 subtable" dx=191 dy=0 dh=191 dv=0
Position2: "Single Positioning lookup 153 subtable" dx=191 dy=0 dh=191 dv=0
Position2: "Single Positioning lookup 152 subtable" dx=191 dy=0 dh=191 dv=0
Position2: "Single Positioning lookup 151 subtable" dx=191 dy=0 dh=191 dv=0
Position2: "Single Positioning lookup 150 subtable" dx=191 dy=0 dh=191 dv=0
Position2: "Single Positioning lookup 149 subtable" dx=191 dy=0 dh=191 dv=0
Position2: "Single Positioning lookup 148 subtable" dx=191 dy=0 dh=191 dv=0
Position2: "Single Positioning lookup 147 subtable" dx=191 dy=0 dh=191 dv=0
Position2: "Single Positioning lookup 146 subtable" dx=191 dy=0 dh=191 dv=0
Position2: "Single Positioning lookup 145 subtable" dx=191 dy=0 dh=191 dv=0
Position2: "Single Positioning lookup 144 subtable" dx=191 dy=0 dh=191 dv=0
Position2: "Single Positioning lookup 143 subtable" dx=191 dy=0 dh=191 dv=0
Position2: "Single Positioning lookup 142 subtable" dx=191 dy=0 dh=191 dv=0
Position2: "Single Positioning lookup 141 subtable" dx=191 dy=0 dh=191 dv=0
Position2: "Single Positioning lookup 140 subtable" dx=191 dy=0 dh=191 dv=0
Position2: "Single Positioning lookup 139 subtable" dx=191 dy=0 dh=191 dv=0
Position2: "Single Positioning lookup 138 subtable" dx=191 dy=0 dh=191 dv=0
Position2: "Single Positioning lookup 137 subtable" dx=191 dy=0 dh=191 dv=0
Position2: "Single Positioning lookup 136 subtable" dx=191 dy=0 dh=191 dv=0
Position2: "Single Positioning lookup 135 subtable" dx=191 dy=0 dh=191 dv=0
Position2: "Single Positioning lookup 134 subtable" dx=274 dy=0 dh=274 dv=0
Position2: "Single Positioning lookup 133 subtable" dx=274 dy=0 dh=274 dv=0
Position2: "Single Positioning lookup 132 subtable" dx=274 dy=0 dh=274 dv=0
Position2: "Single Positioning lookup 131 subtable" dx=274 dy=0 dh=274 dv=0
Position2: "Single Positioning lookup 130 subtable" dx=274 dy=0 dh=274 dv=0
Position2: "Single Positioning lookup 129 subtable" dx=274 dy=0 dh=274 dv=0
Position2: "Single Positioning lookup 128 subtable" dx=274 dy=0 dh=274 dv=0
Position2: "Single Positioning lookup 127 subtable" dx=274 dy=0 dh=274 dv=0
Position2: "Single Positioning lookup 126 subtable" dx=274 dy=0 dh=274 dv=0
Position2: "Single Positioning lookup 125 subtable" dx=274 dy=0 dh=274 dv=0
Position2: "Single Positioning lookup 124 subtable" dx=274 dy=0 dh=274 dv=0
Position2: "Single Positioning lookup 123 subtable" dx=274 dy=0 dh=274 dv=0
Position2: "Single Positioning lookup 122 subtable" dx=274 dy=0 dh=274 dv=0
Position2: "Single Positioning lookup 121 subtable" dx=274 dy=0 dh=274 dv=0
Position2: "Single Positioning lookup 120 subtable" dx=274 dy=0 dh=274 dv=0
Position2: "Single Positioning lookup 119 subtable" dx=274 dy=0 dh=274 dv=0
Position2: "Single Positioning lookup 118 subtable" dx=274 dy=0 dh=274 dv=0
Position2: "Single Positioning lookup 117 subtable" dx=274 dy=0 dh=274 dv=0
Position2: "Single Positioning lookup 116 subtable" dx=274 dy=0 dh=274 dv=0
Position2: "Single Positioning lookup 115 subtable" dx=274 dy=0 dh=274 dv=0
Position2: "Single Positioning lookup 114 subtable" dx=274 dy=0 dh=274 dv=0
Position2: "Single Positioning lookup 113 subtable" dx=274 dy=0 dh=274 dv=0
Position2: "Single Positioning lookup 112 subtable" dx=274 dy=0 dh=274 dv=0
Position2: "Single Positioning lookup 111 subtable" dx=274 dy=0 dh=274 dv=0
Position2: "Single Positioning lookup 110 subtable" dx=274 dy=0 dh=274 dv=0
Position2: "Single Positioning lookup 109 subtable" dx=274 dy=0 dh=274 dv=0
Position2: "Single Positioning lookup 108 subtable" dx=274 dy=0 dh=274 dv=0
Position2: "Single Positioning lookup 107 subtable" dx=274 dy=0 dh=274 dv=0
Position2: "Single Positioning lookup 106 subtable" dx=274 dy=0 dh=274 dv=0
Position2: "Single Positioning lookup 105 subtable" dx=274 dy=0 dh=274 dv=0
Position2: "Single Positioning lookup 104 subtable" dx=274 dy=0 dh=274 dv=0
Position2: "Single Positioning lookup 103 subtable" dx=274 dy=0 dh=274 dv=0
Position2: "Single Positioning lookup 102 subtable" dx=274 dy=0 dh=274 dv=0
Position2: "Single Positioning lookup 101 subtable" dx=274 dy=0 dh=274 dv=0
Position2: "Single Positioning lookup 100 subtable" dx=274 dy=0 dh=274 dv=0
Position2: "Single Positioning lookup 99 subtable" dx=274 dy=0 dh=274 dv=0
Position2: "Single Positioning lookup 98 subtable" dx=274 dy=0 dh=274 dv=0
Position2: "Single Positioning lookup 97 subtable" dx=274 dy=0 dh=274 dv=0
Position2: "Single Positioning lookup 96 subtable" dx=274 dy=0 dh=274 dv=0
Position2: "Single Positioning lookup 95 subtable" dx=274 dy=0 dh=274 dv=0
Position2: "Single Positioning lookup 49 subtable" dx=76 dy=0 dh=76 dv=0
Position2: "Single Positioning lookup 48 subtable" dx=231 dy=0 dh=231 dv=0
Position2: "Single Positioning lookup 47 subtable" dx=75 dy=0 dh=75 dv=0
Position2: "Single Positioning lookup 44 subtable" dx=0 dy=0 dh=344 dv=0
Position2: "Single Positioning lookup 43 subtable" dx=245 dy=0 dh=245 dv=0
Position2: "Single Positioning lookup 42 subtable" dx=0 dy=0 dh=312 dv=0
Position2: "Single Positioning lookup 41 subtable" dx=214 dy=0 dh=214 dv=0
Position2: "Single Positioning lookup 36 subtable" dx=123 dy=0 dh=123 dv=0
Position2: "Single Positioning lookup 34 subtable" dx=8 dy=0 dh=8 dv=0
Position2: "Single Positioning lookup 33 subtable" dx=170 dy=0 dh=170 dv=0
Position2: "Single Positioning lookup 30 subtable" dx=12 dy=0 dh=12 dv=0
Position2: "Single Positioning lookup 29 subtable" dx=245 dy=0 dh=245 dv=0
Position2: "Single Positioning lookup 28 subtable" dx=211 dy=0 dh=211 dv=0
Position2: "Single Positioning lookup 22 subtable" dx=75 dy=0 dh=75 dv=0
Position2: "Single Positioning lookup 21 subtable" dx=20 dy=0 dh=20 dv=0
Position2: "Single Positioning lookup 19 subtable" dx=31 dy=0 dh=31 dv=0
Position2: "Single Positioning lookup 14 subtable" dx=0 dy=0 dh=255 dv=0
Position2: "Single Positioning lookup 13 subtable" dx=157 dy=0 dh=157 dv=0
Position2: "Single Positioning lookup 10 subtable" dx=109 dy=0 dh=109 dv=0
Position2: "Single Positioning lookup 7 subtable" dx=271 dy=0 dh=271 dv=0
Position2: "Single Positioning lookup 6 subtable" dx=145 dy=0 dh=145 dv=0
Position2: "Single Positioning lookup 4 subtable" dx=316 dy=0 dh=316 dv=0
Position2: "Single Positioning lookup 2 subtable" dx=61 dy=0 dh=61 dv=0
EndChar

StartChar: uni1B19
Encoding: 6937 6937 30
Width: 894
GlyphClass: 2
Flags: W
AnchorPoint: "Anchor-3" 477 0 basechar 0
AnchorPoint: "Anchor-0" 463 490 basechar 0
LayerCount: 2
Fore
SplineSet
844 0 m 1,0,-1
 765 0 l 1,1,-1
 765 288 l 2,2,3
 765 344 765 344 717 344 c 256,4,5
 669 344 669 344 669 288 c 2,6,-1
 669 199 l 1,7,-1
 590 211 l 1,8,-1
 590 279 l 2,9,10
 590 417 590 417 717 417 c 256,11,12
 844 417 844 417 844 279 c 2,13,-1
 844 0 l 1,0,-1
210 -6 m 1,14,15
 121 -2 121 -2 75.5 57 c 128,-1,16
 30 116 30 116 30 212 c 0,17,18
 30 307 30 307 77.5 361 c 128,-1,19
 125 415 125 415 200 418 c 2,20,-1
 213 419 l 1,21,22
 286 419 286 419 330.5 378 c 128,-1,23
 375 337 375 337 412 245 c 0,24,25
 459 125 459 125 481.5 97 c 128,-1,26
 504 69 504 69 536 69 c 0,27,28
 589 69 589 69 590 160 c 2,29,-1
 590 240 l 1,30,-1
 669 276 l 1,31,-1
 669 157 l 2,32,33
 669 68 669 68 629 31.5 c 128,-1,34
 589 -5 589 -5 529 -5 c 0,35,36
 467 -4 467 -4 430.5 30.5 c 128,-1,37
 394 65 394 65 363 140 c 128,-1,38
 332 215 332 215 307 272 c 128,-1,39
 282 329 282 329 241 342 c 0,40,41
 225 347 225 347 211 347 c 0,42,43
 172 347 172 347 142.5 313 c 128,-1,44
 113 279 113 279 113 217 c 2,45,-1
 113 206 l 2,46,47
 116 140 116 140 144.5 102 c 128,-1,48
 173 64 173 64 221 64 c 1,49,-1
 228 65 l 2,50,51
 281 72 281 72 296 160 c 1,52,-1
 334 155 l 1,53,-1
 334 136 l 2,54,55
 334 -4 334 -4 210 -6 c 1,14,15
EndSplineSet
MultipleSubs2: "Multiple Substitution lookup 317 subtable" uni1B19 _reorder
MultipleSubs2: "Multiple Substitution lookup 261 subtable" uni1B19 _reorder
MultipleSubs2: "Multiple Substitution lookup 205 subtable" uni1B19 _reorder
MultipleSubs2: "Multiple Substitution lookup 144 subtable" uni1B19 _reorder
MultipleSubs2: "Multiple Substitution lookup 88 subtable" uni1B19 _reorder
MultipleSubs2: "Multiple Substitution lookup 32 subtable" uni1B19 _reorder
Position2: "Single Positioning lookup 332 subtable" dx=130 dy=0 dh=130 dv=0
Position2: "Single Positioning lookup 331 subtable" dx=130 dy=0 dh=130 dv=0
Position2: "Single Positioning lookup 330 subtable" dx=130 dy=0 dh=130 dv=0
Position2: "Single Positioning lookup 327 subtable" dx=130 dy=0 dh=130 dv=0
Position2: "Single Positioning lookup 324 subtable" dx=130 dy=0 dh=130 dv=0
Position2: "Single Positioning lookup 321 subtable" dx=130 dy=0 dh=130 dv=0
Position2: "Single Positioning lookup 320 subtable" dx=130 dy=0 dh=130 dv=0
Position2: "Single Positioning lookup 319 subtable" dx=130 dy=0 dh=130 dv=0
Position2: "Single Positioning lookup 313 subtable" dx=130 dy=0 dh=130 dv=0
Position2: "Single Positioning lookup 312 subtable" dx=130 dy=0 dh=130 dv=0
Position2: "Single Positioning lookup 310 subtable" dx=130 dy=0 dh=130 dv=0
Position2: "Single Positioning lookup 305 subtable" dx=130 dy=0 dh=130 dv=0
Position2: "Single Positioning lookup 302 subtable" dx=130 dy=0 dh=130 dv=0
Position2: "Single Positioning lookup 299 subtable" dx=130 dy=0 dh=130 dv=0
Position2: "Single Positioning lookup 298 subtable" dx=130 dy=0 dh=130 dv=0
Position2: "Single Positioning lookup 296 subtable" dx=130 dy=0 dh=130 dv=0
Position2: "Single Positioning lookup 294 subtable" dx=130 dy=0 dh=130 dv=0
Position2: "Single Positioning lookup 293 subtable" dx=171 dy=0 dh=171 dv=0
Position2: "Single Positioning lookup 292 subtable" dx=171 dy=0 dh=171 dv=0
Position2: "Single Positioning lookup 291 subtable" dx=171 dy=0 dh=171 dv=0
Position2: "Single Positioning lookup 287 subtable" dx=171 dy=0 dh=171 dv=0
Position2: "Single Positioning lookup 285 subtable" dx=171 dy=0 dh=171 dv=0
Position2: "Single Positioning lookup 284 subtable" dx=171 dy=0 dh=171 dv=0
Position2: "Single Positioning lookup 281 subtable" dx=171 dy=0 dh=171 dv=0
Position2: "Single Positioning lookup 280 subtable" dx=171 dy=0 dh=171 dv=0
Position2: "Single Positioning lookup 279 subtable" dx=171 dy=0 dh=171 dv=0
Position2: "Single Positioning lookup 276 subtable" dx=171 dy=0 dh=171 dv=0
Position2: "Single Positioning lookup 273 subtable" dx=171 dy=0 dh=171 dv=0
Position2: "Single Positioning lookup 272 subtable" dx=171 dy=0 dh=171 dv=0
Position2: "Single Positioning lookup 270 subtable" dx=171 dy=0 dh=171 dv=0
Position2: "Single Positioning lookup 269 subtable" dx=171 dy=0 dh=171 dv=0
Position2: "Single Positioning lookup 265 subtable" dx=171 dy=0 dh=171 dv=0
Position2: "Single Positioning lookup 262 subtable" dx=171 dy=0 dh=171 dv=0
Position2: "Single Positioning lookup 260 subtable" dx=171 dy=0 dh=171 dv=0
Position2: "Single Positioning lookup 259 subtable" dx=171 dy=0 dh=171 dv=0
Position2: "Single Positioning lookup 258 subtable" dx=171 dy=0 dh=171 dv=0
Position2: "Single Positioning lookup 256 subtable" dx=171 dy=0 dh=171 dv=0
Position2: "Single Positioning lookup 255 subtable" dx=171 dy=0 dh=171 dv=0
Position2: "Single Positioning lookup 254 subtable" dx=171 dy=0 dh=171 dv=0
Position2: "Single Positioning lookup 253 subtable" dx=89 dy=0 dh=89 dv=0
Position2: "Single Positioning lookup 252 subtable" dx=89 dy=0 dh=89 dv=0
Position2: "Single Positioning lookup 248 subtable" dx=89 dy=0 dh=89 dv=0
Position2: "Single Positioning lookup 245 subtable" dx=89 dy=0 dh=89 dv=0
Position2: "Single Positioning lookup 241 subtable" dx=89 dy=0 dh=89 dv=0
Position2: "Single Positioning lookup 240 subtable" dx=89 dy=0 dh=89 dv=0
Position2: "Single Positioning lookup 234 subtable" dx=89 dy=0 dh=89 dv=0
Position2: "Single Positioning lookup 226 subtable" dx=89 dy=0 dh=89 dv=0
Position2: "Single Positioning lookup 223 subtable" dx=89 dy=0 dh=89 dv=0
Position2: "Single Positioning lookup 220 subtable" dx=89 dy=0 dh=89 dv=0
Position2: "Single Positioning lookup 219 subtable" dx=89 dy=0 dh=89 dv=0
Position2: "Single Positioning lookup 217 subtable" dx=89 dy=0 dh=89 dv=0
Position2: "Single Positioning lookup 215 subtable" dx=89 dy=0 dh=89 dv=0
Position2: "Single Positioning lookup 214 subtable" dx=221 dy=0 dh=221 dv=0
Position2: "Single Positioning lookup 213 subtable" dx=221 dy=0 dh=221 dv=0
Position2: "Single Positioning lookup 212 subtable" dx=221 dy=0 dh=221 dv=0
Position2: "Single Positioning lookup 208 subtable" dx=221 dy=0 dh=221 dv=0
Position2: "Single Positioning lookup 206 subtable" dx=221 dy=0 dh=221 dv=0
Position2: "Single Positioning lookup 205 subtable" dx=221 dy=0 dh=221 dv=0
Position2: "Single Positioning lookup 202 subtable" dx=221 dy=0 dh=221 dv=0
Position2: "Single Positioning lookup 201 subtable" dx=221 dy=0 dh=221 dv=0
Position2: "Single Positioning lookup 200 subtable" dx=221 dy=0 dh=221 dv=0
Position2: "Single Positioning lookup 198 subtable" dx=221 dy=0 dh=221 dv=0
Position2: "Single Positioning lookup 197 subtable" dx=221 dy=0 dh=221 dv=0
Position2: "Single Positioning lookup 194 subtable" dx=221 dy=0 dh=221 dv=0
Position2: "Single Positioning lookup 193 subtable" dx=221 dy=0 dh=221 dv=0
Position2: "Single Positioning lookup 192 subtable" dx=221 dy=0 dh=221 dv=0
Position2: "Single Positioning lookup 191 subtable" dx=221 dy=0 dh=221 dv=0
Position2: "Single Positioning lookup 190 subtable" dx=221 dy=0 dh=221 dv=0
Position2: "Single Positioning lookup 186 subtable" dx=221 dy=0 dh=221 dv=0
Position2: "Single Positioning lookup 183 subtable" dx=221 dy=0 dh=221 dv=0
Position2: "Single Positioning lookup 182 subtable" dx=221 dy=0 dh=221 dv=0
Position2: "Single Positioning lookup 181 subtable" dx=221 dy=0 dh=221 dv=0
Position2: "Single Positioning lookup 180 subtable" dx=221 dy=0 dh=221 dv=0
Position2: "Single Positioning lookup 179 subtable" dx=221 dy=0 dh=221 dv=0
Position2: "Single Positioning lookup 177 subtable" dx=221 dy=0 dh=221 dv=0
Position2: "Single Positioning lookup 176 subtable" dx=221 dy=0 dh=221 dv=0
Position2: "Single Positioning lookup 175 subtable" dx=221 dy=0 dh=221 dv=0
Position2: "Single Positioning lookup 174 subtable" dx=191 dy=0 dh=191 dv=0
Position2: "Single Positioning lookup 173 subtable" dx=191 dy=0 dh=191 dv=0
Position2: "Single Positioning lookup 172 subtable" dx=191 dy=0 dh=191 dv=0
Position2: "Single Positioning lookup 168 subtable" dx=191 dy=0 dh=191 dv=0
Position2: "Single Positioning lookup 166 subtable" dx=191 dy=0 dh=191 dv=0
Position2: "Single Positioning lookup 165 subtable" dx=191 dy=0 dh=191 dv=0
Position2: "Single Positioning lookup 162 subtable" dx=191 dy=0 dh=191 dv=0
Position2: "Single Positioning lookup 161 subtable" dx=191 dy=0 dh=191 dv=0
Position2: "Single Positioning lookup 160 subtable" dx=191 dy=0 dh=191 dv=0
Position2: "Single Positioning lookup 158 subtable" dx=191 dy=0 dh=191 dv=0
Position2: "Single Positioning lookup 157 subtable" dx=191 dy=0 dh=191 dv=0
Position2: "Single Positioning lookup 154 subtable" dx=191 dy=0 dh=191 dv=0
Position2: "Single Positioning lookup 153 subtable" dx=191 dy=0 dh=191 dv=0
Position2: "Single Positioning lookup 151 subtable" dx=191 dy=0 dh=191 dv=0
Position2: "Single Positioning lookup 150 subtable" dx=191 dy=0 dh=191 dv=0
Position2: "Single Positioning lookup 146 subtable" dx=191 dy=0 dh=191 dv=0
Position2: "Single Positioning lookup 143 subtable" dx=191 dy=0 dh=191 dv=0
Position2: "Single Positioning lookup 141 subtable" dx=191 dy=0 dh=191 dv=0
Position2: "Single Positioning lookup 140 subtable" dx=191 dy=0 dh=191 dv=0
Position2: "Single Positioning lookup 139 subtable" dx=191 dy=0 dh=191 dv=0
Position2: "Single Positioning lookup 137 subtable" dx=191 dy=0 dh=191 dv=0
Position2: "Single Positioning lookup 136 subtable" dx=191 dy=0 dh=191 dv=0
Position2: "Single Positioning lookup 135 subtable" dx=191 dy=0 dh=191 dv=0
Position2: "Single Positioning lookup 134 subtable" dx=274 dy=0 dh=274 dv=0
Position2: "Single Positioning lookup 133 subtable" dx=274 dy=0 dh=274 dv=0
Position2: "Single Positioning lookup 132 subtable" dx=274 dy=0 dh=274 dv=0
Position2: "Single Positioning lookup 128 subtable" dx=274 dy=0 dh=274 dv=0
Position2: "Single Positioning lookup 127 subtable" dx=274 dy=0 dh=274 dv=0
Position2: "Single Positioning lookup 126 subtable" dx=274 dy=0 dh=274 dv=0
Position2: "Single Positioning lookup 125 subtable" dx=274 dy=0 dh=274 dv=0
Position2: "Single Positioning lookup 124 subtable" dx=274 dy=0 dh=274 dv=0
Position2: "Single Positioning lookup 122 subtable" dx=274 dy=0 dh=274 dv=0
Position2: "Single Positioning lookup 121 subtable" dx=274 dy=0 dh=274 dv=0
Position2: "Single Positioning lookup 120 subtable" dx=274 dy=0 dh=274 dv=0
Position2: "Single Positioning lookup 118 subtable" dx=274 dy=0 dh=274 dv=0
Position2: "Single Positioning lookup 117 subtable" dx=274 dy=0 dh=274 dv=0
Position2: "Single Positioning lookup 116 subtable" dx=274 dy=0 dh=274 dv=0
Position2: "Single Positioning lookup 114 subtable" dx=274 dy=0 dh=274 dv=0
Position2: "Single Positioning lookup 113 subtable" dx=274 dy=0 dh=274 dv=0
Position2: "Single Positioning lookup 112 subtable" dx=274 dy=0 dh=274 dv=0
Position2: "Single Positioning lookup 111 subtable" dx=274 dy=0 dh=274 dv=0
Position2: "Single Positioning lookup 110 subtable" dx=274 dy=0 dh=274 dv=0
Position2: "Single Positioning lookup 106 subtable" dx=274 dy=0 dh=274 dv=0
Position2: "Single Positioning lookup 104 subtable" dx=274 dy=0 dh=274 dv=0
Position2: "Single Positioning lookup 103 subtable" dx=274 dy=0 dh=274 dv=0
Position2: "Single Positioning lookup 102 subtable" dx=274 dy=0 dh=274 dv=0
Position2: "Single Positioning lookup 101 subtable" dx=274 dy=0 dh=274 dv=0
Position2: "Single Positioning lookup 100 subtable" dx=274 dy=0 dh=274 dv=0
Position2: "Single Positioning lookup 99 subtable" dx=274 dy=0 dh=274 dv=0
Position2: "Single Positioning lookup 97 subtable" dx=274 dy=0 dh=274 dv=0
Position2: "Single Positioning lookup 96 subtable" dx=274 dy=0 dh=274 dv=0
Position2: "Single Positioning lookup 95 subtable" dx=274 dy=0 dh=274 dv=0
Position2: "Single Positioning lookup 48 subtable" dx=92 dy=0 dh=92 dv=0
Position2: "Single Positioning lookup 44 subtable" dx=0 dy=0 dh=255 dv=0
Position2: "Single Positioning lookup 43 subtable" dx=195 dy=0 dh=195 dv=0
Position2: "Single Positioning lookup 42 subtable" dx=0 dy=0 dh=223 dv=0
Position2: "Single Positioning lookup 41 subtable" dx=164 dy=0 dh=164 dv=0
Position2: "Single Positioning lookup 33 subtable" dx=31 dy=0 dh=31 dv=0
Position2: "Single Positioning lookup 29 subtable" dx=106 dy=0 dh=106 dv=0
Position2: "Single Positioning lookup 28 subtable" dx=72 dy=0 dh=72 dv=0
Position2: "Single Positioning lookup 14 subtable" dx=0 dy=0 dh=166 dv=0
Position2: "Single Positioning lookup 13 subtable" dx=107 dy=0 dh=107 dv=0
Position2: "Single Positioning lookup 7 subtable" dx=132 dy=0 dh=132 dv=0
Position2: "Single Positioning lookup 6 subtable" dx=6 dy=0 dh=6 dv=0
Position2: "Single Positioning lookup 4 subtable" dx=177 dy=0 dh=177 dv=0
EndChar

StartChar: uni1B1A
Encoding: 6938 6938 31
Width: 732
GlyphClass: 2
Flags: W
AnchorPoint: "Anchor-3" 456 0 basechar 0
AnchorPoint: "Anchor-0" 354 490 basechar 0
LayerCount: 2
Fore
SplineSet
645 -2 m 1,0,1
 583 147 583 147 423 168 c 1,2,-1
 416 219 l 1,3,4
 575 277 575 277 575 324 c 0,5,6
 575 359 575 359 514 359 c 0,7,8
 434 359 434 359 395.5 320.5 c 128,-1,9
 357 282 357 282 357 222 c 0,10,11
 357 174 357 174 387 124.5 c 128,-1,12
 417 75 417 75 475 43 c 1,13,-1
 475 0 l 1,14,-1
 243 0 l 2,15,16
 152 0 152 0 123 67 c 0,17,18
 115 89 115 89 115 111 c 0,19,20
 115 146 115 146 133 182 c 2,21,-1
 177 274 l 2,22,23
 186 295 186 295 186 312 c 256,24,25
 186 329 186 329 175 341.5 c 128,-1,26
 164 354 164 354 147 354 c 2,27,-1
 136 353 l 1,28,29
 88 342 88 342 88 251 c 2,30,-1
 88 231 l 1,31,-1
 45 228 l 1,32,33
 30 270 30 270 30 303 c 0,34,35
 30 353 30 353 60.5 386 c 128,-1,36
 91 419 91 419 149 419 c 0,37,38
 202 419 202 419 231.5 388 c 128,-1,39
 261 357 261 357 261 310 c 0,40,41
 261 275 261 275 243 233 c 1,42,43
 196 146 196 146 196 109 c 0,44,45
 196 65 196 65 254 65 c 2,46,-1
 365 65 l 1,47,48
 285 115 285 115 285 222 c 0,49,50
 285 297 285 297 333 352 c 0,51,52
 388 417 388 417 512 417 c 0,53,54
 654 417 654 417 654 331 c 0,55,56
 654 239 654 239 488 199 c 1,57,58
 662 197 662 197 682 10 c 1,59,-1
 645 -2 l 1,0,1
EndSplineSet
MultipleSubs2: "Multiple Substitution lookup 318 subtable" uni1B1A _reorder
MultipleSubs2: "Multiple Substitution lookup 262 subtable" uni1B1A _reorder
MultipleSubs2: "Multiple Substitution lookup 206 subtable" uni1B1A _reorder
MultipleSubs2: "Multiple Substitution lookup 145 subtable" uni1B1A _reorder
MultipleSubs2: "Multiple Substitution lookup 89 subtable" uni1B1A _reorder
MultipleSubs2: "Multiple Substitution lookup 33 subtable" uni1B1A _reorder
Substitution2: "Single Substitution lookup 10 subtable" uni1B1A.2
Position2: "Single Positioning lookup 332 subtable" dx=130 dy=0 dh=130 dv=0
Position2: "Single Positioning lookup 331 subtable" dx=130 dy=0 dh=130 dv=0
Position2: "Single Positioning lookup 330 subtable" dx=130 dy=0 dh=130 dv=0
Position2: "Single Positioning lookup 329 subtable" dx=130 dy=0 dh=130 dv=0
Position2: "Single Positioning lookup 328 subtable" dx=130 dy=0 dh=130 dv=0
Position2: "Single Positioning lookup 327 subtable" dx=130 dy=0 dh=130 dv=0
Position2: "Single Positioning lookup 326 subtable" dx=130 dy=0 dh=130 dv=0
Position2: "Single Positioning lookup 325 subtable" dx=130 dy=0 dh=130 dv=0
Position2: "Single Positioning lookup 324 subtable" dx=130 dy=0 dh=130 dv=0
Position2: "Single Positioning lookup 323 subtable" dx=130 dy=0 dh=130 dv=0
Position2: "Single Positioning lookup 321 subtable" dx=130 dy=0 dh=130 dv=0
Position2: "Single Positioning lookup 320 subtable" dx=130 dy=0 dh=130 dv=0
Position2: "Single Positioning lookup 319 subtable" dx=130 dy=0 dh=130 dv=0
Position2: "Single Positioning lookup 318 subtable" dx=130 dy=0 dh=130 dv=0
Position2: "Single Positioning lookup 317 subtable" dx=130 dy=0 dh=130 dv=0
Position2: "Single Positioning lookup 316 subtable" dx=130 dy=0 dh=130 dv=0
Position2: "Single Positioning lookup 315 subtable" dx=130 dy=0 dh=130 dv=0
Position2: "Single Positioning lookup 313 subtable" dx=130 dy=0 dh=130 dv=0
Position2: "Single Positioning lookup 312 subtable" dx=130 dy=0 dh=130 dv=0
Position2: "Single Positioning lookup 311 subtable" dx=130 dy=0 dh=130 dv=0
Position2: "Single Positioning lookup 310 subtable" dx=130 dy=0 dh=130 dv=0
Position2: "Single Positioning lookup 309 subtable" dx=130 dy=0 dh=130 dv=0
Position2: "Single Positioning lookup 308 subtable" dx=130 dy=0 dh=130 dv=0
Position2: "Single Positioning lookup 305 subtable" dx=130 dy=0 dh=130 dv=0
Position2: "Single Positioning lookup 303 subtable" dx=130 dy=0 dh=130 dv=0
Position2: "Single Positioning lookup 302 subtable" dx=130 dy=0 dh=130 dv=0
Position2: "Single Positioning lookup 301 subtable" dx=130 dy=0 dh=130 dv=0
Position2: "Single Positioning lookup 300 subtable" dx=130 dy=0 dh=130 dv=0
Position2: "Single Positioning lookup 299 subtable" dx=130 dy=0 dh=130 dv=0
Position2: "Single Positioning lookup 298 subtable" dx=130 dy=0 dh=130 dv=0
Position2: "Single Positioning lookup 297 subtable" dx=130 dy=0 dh=130 dv=0
Position2: "Single Positioning lookup 296 subtable" dx=130 dy=0 dh=130 dv=0
Position2: "Single Positioning lookup 295 subtable" dx=130 dy=0 dh=130 dv=0
Position2: "Single Positioning lookup 294 subtable" dx=130 dy=0 dh=130 dv=0
Position2: "Single Positioning lookup 293 subtable" dx=171 dy=0 dh=171 dv=0
Position2: "Single Positioning lookup 292 subtable" dx=171 dy=0 dh=171 dv=0
Position2: "Single Positioning lookup 291 subtable" dx=171 dy=0 dh=171 dv=0
Position2: "Single Positioning lookup 289 subtable" dx=171 dy=0 dh=171 dv=0
Position2: "Single Positioning lookup 288 subtable" dx=171 dy=0 dh=171 dv=0
Position2: "Single Positioning lookup 287 subtable" dx=171 dy=0 dh=171 dv=0
Position2: "Single Positioning lookup 286 subtable" dx=171 dy=0 dh=171 dv=0
Position2: "Single Positioning lookup 285 subtable" dx=171 dy=0 dh=171 dv=0
Position2: "Single Positioning lookup 284 subtable" dx=171 dy=0 dh=171 dv=0
Position2: "Single Positioning lookup 283 subtable" dx=171 dy=0 dh=171 dv=0
Position2: "Single Positioning lookup 281 subtable" dx=171 dy=0 dh=171 dv=0
Position2: "Single Positioning lookup 280 subtable" dx=171 dy=0 dh=171 dv=0
Position2: "Single Positioning lookup 279 subtable" dx=171 dy=0 dh=171 dv=0
Position2: "Single Positioning lookup 278 subtable" dx=171 dy=0 dh=171 dv=0
Position2: "Single Positioning lookup 277 subtable" dx=171 dy=0 dh=171 dv=0
Position2: "Single Positioning lookup 276 subtable" dx=171 dy=0 dh=171 dv=0
Position2: "Single Positioning lookup 275 subtable" dx=171 dy=0 dh=171 dv=0
Position2: "Single Positioning lookup 273 subtable" dx=171 dy=0 dh=171 dv=0
Position2: "Single Positioning lookup 272 subtable" dx=171 dy=0 dh=171 dv=0
Position2: "Single Positioning lookup 271 subtable" dx=171 dy=0 dh=171 dv=0
Position2: "Single Positioning lookup 270 subtable" dx=171 dy=0 dh=171 dv=0
Position2: "Single Positioning lookup 269 subtable" dx=171 dy=0 dh=171 dv=0
Position2: "Single Positioning lookup 268 subtable" dx=171 dy=0 dh=171 dv=0
Position2: "Single Positioning lookup 267 subtable" dx=171 dy=0 dh=171 dv=0
Position2: "Single Positioning lookup 266 subtable" dx=171 dy=0 dh=171 dv=0
Position2: "Single Positioning lookup 265 subtable" dx=171 dy=0 dh=171 dv=0
Position2: "Single Positioning lookup 264 subtable" dx=171 dy=0 dh=171 dv=0
Position2: "Single Positioning lookup 263 subtable" dx=171 dy=0 dh=171 dv=0
Position2: "Single Positioning lookup 262 subtable" dx=171 dy=0 dh=171 dv=0
Position2: "Single Positioning lookup 261 subtable" dx=171 dy=0 dh=171 dv=0
Position2: "Single Positioning lookup 260 subtable" dx=171 dy=0 dh=171 dv=0
Position2: "Single Positioning lookup 259 subtable" dx=171 dy=0 dh=171 dv=0
Position2: "Single Positioning lookup 258 subtable" dx=171 dy=0 dh=171 dv=0
Position2: "Single Positioning lookup 257 subtable" dx=171 dy=0 dh=171 dv=0
Position2: "Single Positioning lookup 256 subtable" dx=171 dy=0 dh=171 dv=0
Position2: "Single Positioning lookup 255 subtable" dx=171 dy=0 dh=171 dv=0
Position2: "Single Positioning lookup 254 subtable" dx=171 dy=0 dh=171 dv=0
Position2: "Single Positioning lookup 253 subtable" dx=89 dy=0 dh=89 dv=0
Position2: "Single Positioning lookup 252 subtable" dx=89 dy=0 dh=89 dv=0
Position2: "Single Positioning lookup 251 subtable" dx=89 dy=0 dh=89 dv=0
Position2: "Single Positioning lookup 248 subtable" dx=89 dy=0 dh=89 dv=0
Position2: "Single Positioning lookup 247 subtable" dx=89 dy=0 dh=89 dv=0
Position2: "Single Positioning lookup 246 subtable" dx=89 dy=0 dh=89 dv=0
Position2: "Single Positioning lookup 245 subtable" dx=89 dy=0 dh=89 dv=0
Position2: "Single Positioning lookup 242 subtable" dx=89 dy=0 dh=89 dv=0
Position2: "Single Positioning lookup 241 subtable" dx=89 dy=0 dh=89 dv=0
Position2: "Single Positioning lookup 240 subtable" dx=89 dy=0 dh=89 dv=0
Position2: "Single Positioning lookup 238 subtable" dx=89 dy=0 dh=89 dv=0
Position2: "Single Positioning lookup 237 subtable" dx=89 dy=0 dh=89 dv=0
Position2: "Single Positioning lookup 236 subtable" dx=89 dy=0 dh=89 dv=0
Position2: "Single Positioning lookup 234 subtable" dx=89 dy=0 dh=89 dv=0
Position2: "Single Positioning lookup 233 subtable" dx=89 dy=0 dh=89 dv=0
Position2: "Single Positioning lookup 232 subtable" dx=89 dy=0 dh=89 dv=0
Position2: "Single Positioning lookup 231 subtable" dx=89 dy=0 dh=89 dv=0
Position2: "Single Positioning lookup 230 subtable" dx=89 dy=0 dh=89 dv=0
Position2: "Single Positioning lookup 226 subtable" dx=89 dy=0 dh=89 dv=0
Position2: "Single Positioning lookup 224 subtable" dx=89 dy=0 dh=89 dv=0
Position2: "Single Positioning lookup 223 subtable" dx=89 dy=0 dh=89 dv=0
Position2: "Single Positioning lookup 222 subtable" dx=89 dy=0 dh=89 dv=0
Position2: "Single Positioning lookup 221 subtable" dx=89 dy=0 dh=89 dv=0
Position2: "Single Positioning lookup 220 subtable" dx=89 dy=0 dh=89 dv=0
Position2: "Single Positioning lookup 219 subtable" dx=89 dy=0 dh=89 dv=0
Position2: "Single Positioning lookup 217 subtable" dx=89 dy=0 dh=89 dv=0
Position2: "Single Positioning lookup 216 subtable" dx=89 dy=0 dh=89 dv=0
Position2: "Single Positioning lookup 215 subtable" dx=89 dy=0 dh=89 dv=0
Position2: "Single Positioning lookup 214 subtable" dx=221 dy=0 dh=221 dv=0
Position2: "Single Positioning lookup 213 subtable" dx=221 dy=0 dh=221 dv=0
Position2: "Single Positioning lookup 212 subtable" dx=221 dy=0 dh=221 dv=0
Position2: "Single Positioning lookup 210 subtable" dx=221 dy=0 dh=221 dv=0
Position2: "Single Positioning lookup 209 subtable" dx=221 dy=0 dh=221 dv=0
Position2: "Single Positioning lookup 208 subtable" dx=221 dy=0 dh=221 dv=0
Position2: "Single Positioning lookup 207 subtable" dx=221 dy=0 dh=221 dv=0
Position2: "Single Positioning lookup 206 subtable" dx=221 dy=0 dh=221 dv=0
Position2: "Single Positioning lookup 205 subtable" dx=221 dy=0 dh=221 dv=0
Position2: "Single Positioning lookup 204 subtable" dx=221 dy=0 dh=221 dv=0
Position2: "Single Positioning lookup 203 subtable" dx=221 dy=0 dh=221 dv=0
Position2: "Single Positioning lookup 202 subtable" dx=221 dy=0 dh=221 dv=0
Position2: "Single Positioning lookup 201 subtable" dx=221 dy=0 dh=221 dv=0
Position2: "Single Positioning lookup 200 subtable" dx=221 dy=0 dh=221 dv=0
Position2: "Single Positioning lookup 199 subtable" dx=221 dy=0 dh=221 dv=0
Position2: "Single Positioning lookup 198 subtable" dx=221 dy=0 dh=221 dv=0
Position2: "Single Positioning lookup 197 subtable" dx=221 dy=0 dh=221 dv=0
Position2: "Single Positioning lookup 196 subtable" dx=221 dy=0 dh=221 dv=0
Position2: "Single Positioning lookup 195 subtable" dx=221 dy=0 dh=221 dv=0
Position2: "Single Positioning lookup 194 subtable" dx=221 dy=0 dh=221 dv=0
Position2: "Single Positioning lookup 193 subtable" dx=221 dy=0 dh=221 dv=0
Position2: "Single Positioning lookup 192 subtable" dx=221 dy=0 dh=221 dv=0
Position2: "Single Positioning lookup 191 subtable" dx=221 dy=0 dh=221 dv=0
Position2: "Single Positioning lookup 190 subtable" dx=221 dy=0 dh=221 dv=0
Position2: "Single Positioning lookup 189 subtable" dx=221 dy=0 dh=221 dv=0
Position2: "Single Positioning lookup 188 subtable" dx=221 dy=0 dh=221 dv=0
Position2: "Single Positioning lookup 187 subtable" dx=221 dy=0 dh=221 dv=0
Position2: "Single Positioning lookup 186 subtable" dx=221 dy=0 dh=221 dv=0
Position2: "Single Positioning lookup 185 subtable" dx=221 dy=0 dh=221 dv=0
Position2: "Single Positioning lookup 184 subtable" dx=221 dy=0 dh=221 dv=0
Position2: "Single Positioning lookup 183 subtable" dx=221 dy=0 dh=221 dv=0
Position2: "Single Positioning lookup 182 subtable" dx=221 dy=0 dh=221 dv=0
Position2: "Single Positioning lookup 181 subtable" dx=221 dy=0 dh=221 dv=0
Position2: "Single Positioning lookup 180 subtable" dx=221 dy=0 dh=221 dv=0
Position2: "Single Positioning lookup 179 subtable" dx=221 dy=0 dh=221 dv=0
Position2: "Single Positioning lookup 178 subtable" dx=221 dy=0 dh=221 dv=0
Position2: "Single Positioning lookup 177 subtable" dx=221 dy=0 dh=221 dv=0
Position2: "Single Positioning lookup 176 subtable" dx=221 dy=0 dh=221 dv=0
Position2: "Single Positioning lookup 175 subtable" dx=221 dy=0 dh=221 dv=0
Position2: "Single Positioning lookup 174 subtable" dx=191 dy=0 dh=191 dv=0
Position2: "Single Positioning lookup 173 subtable" dx=191 dy=0 dh=191 dv=0
Position2: "Single Positioning lookup 172 subtable" dx=191 dy=0 dh=191 dv=0
Position2: "Single Positioning lookup 170 subtable" dx=191 dy=0 dh=191 dv=0
Position2: "Single Positioning lookup 169 subtable" dx=191 dy=0 dh=191 dv=0
Position2: "Single Positioning lookup 168 subtable" dx=191 dy=0 dh=191 dv=0
Position2: "Single Positioning lookup 167 subtable" dx=191 dy=0 dh=191 dv=0
Position2: "Single Positioning lookup 166 subtable" dx=191 dy=0 dh=191 dv=0
Position2: "Single Positioning lookup 165 subtable" dx=191 dy=0 dh=191 dv=0
Position2: "Single Positioning lookup 164 subtable" dx=191 dy=0 dh=191 dv=0
Position2: "Single Positioning lookup 163 subtable" dx=191 dy=0 dh=191 dv=0
Position2: "Single Positioning lookup 162 subtable" dx=191 dy=0 dh=191 dv=0
Position2: "Single Positioning lookup 161 subtable" dx=191 dy=0 dh=191 dv=0
Position2: "Single Positioning lookup 160 subtable" dx=191 dy=0 dh=191 dv=0
Position2: "Single Positioning lookup 159 subtable" dx=191 dy=0 dh=191 dv=0
Position2: "Single Positioning lookup 158 subtable" dx=191 dy=0 dh=191 dv=0
Position2: "Single Positioning lookup 157 subtable" dx=191 dy=0 dh=191 dv=0
Position2: "Single Positioning lookup 156 subtable" dx=191 dy=0 dh=191 dv=0
Position2: "Single Positioning lookup 155 subtable" dx=191 dy=0 dh=191 dv=0
Position2: "Single Positioning lookup 154 subtable" dx=191 dy=0 dh=191 dv=0
Position2: "Single Positioning lookup 153 subtable" dx=191 dy=0 dh=191 dv=0
Position2: "Single Positioning lookup 152 subtable" dx=191 dy=0 dh=191 dv=0
Position2: "Single Positioning lookup 151 subtable" dx=191 dy=0 dh=191 dv=0
Position2: "Single Positioning lookup 150 subtable" dx=191 dy=0 dh=191 dv=0
Position2: "Single Positioning lookup 149 subtable" dx=191 dy=0 dh=191 dv=0
Position2: "Single Positioning lookup 148 subtable" dx=191 dy=0 dh=191 dv=0
Position2: "Single Positioning lookup 147 subtable" dx=191 dy=0 dh=191 dv=0
Position2: "Single Positioning lookup 146 subtable" dx=191 dy=0 dh=191 dv=0
Position2: "Single Positioning lookup 145 subtable" dx=191 dy=0 dh=191 dv=0
Position2: "Single Positioning lookup 144 subtable" dx=191 dy=0 dh=191 dv=0
Position2: "Single Positioning lookup 143 subtable" dx=191 dy=0 dh=191 dv=0
Position2: "Single Positioning lookup 142 subtable" dx=191 dy=0 dh=191 dv=0
Position2: "Single Positioning lookup 141 subtable" dx=191 dy=0 dh=191 dv=0
Position2: "Single Positioning lookup 140 subtable" dx=191 dy=0 dh=191 dv=0
Position2: "Single Positioning lookup 139 subtable" dx=191 dy=0 dh=191 dv=0
Position2: "Single Positioning lookup 138 subtable" dx=191 dy=0 dh=191 dv=0
Position2: "Single Positioning lookup 137 subtable" dx=191 dy=0 dh=191 dv=0
Position2: "Single Positioning lookup 136 subtable" dx=191 dy=0 dh=191 dv=0
Position2: "Single Positioning lookup 135 subtable" dx=191 dy=0 dh=191 dv=0
Position2: "Single Positioning lookup 134 subtable" dx=274 dy=0 dh=274 dv=0
Position2: "Single Positioning lookup 133 subtable" dx=274 dy=0 dh=274 dv=0
Position2: "Single Positioning lookup 132 subtable" dx=274 dy=0 dh=274 dv=0
Position2: "Single Positioning lookup 131 subtable" dx=274 dy=0 dh=274 dv=0
Position2: "Single Positioning lookup 130 subtable" dx=274 dy=0 dh=274 dv=0
Position2: "Single Positioning lookup 129 subtable" dx=274 dy=0 dh=274 dv=0
Position2: "Single Positioning lookup 128 subtable" dx=274 dy=0 dh=274 dv=0
Position2: "Single Positioning lookup 127 subtable" dx=274 dy=0 dh=274 dv=0
Position2: "Single Positioning lookup 126 subtable" dx=274 dy=0 dh=274 dv=0
Position2: "Single Positioning lookup 125 subtable" dx=274 dy=0 dh=274 dv=0
Position2: "Single Positioning lookup 124 subtable" dx=274 dy=0 dh=274 dv=0
Position2: "Single Positioning lookup 123 subtable" dx=274 dy=0 dh=274 dv=0
Position2: "Single Positioning lookup 122 subtable" dx=274 dy=0 dh=274 dv=0
Position2: "Single Positioning lookup 121 subtable" dx=274 dy=0 dh=274 dv=0
Position2: "Single Positioning lookup 120 subtable" dx=274 dy=0 dh=274 dv=0
Position2: "Single Positioning lookup 119 subtable" dx=274 dy=0 dh=274 dv=0
Position2: "Single Positioning lookup 118 subtable" dx=274 dy=0 dh=274 dv=0
Position2: "Single Positioning lookup 117 subtable" dx=274 dy=0 dh=274 dv=0
Position2: "Single Positioning lookup 116 subtable" dx=274 dy=0 dh=274 dv=0
Position2: "Single Positioning lookup 115 subtable" dx=274 dy=0 dh=274 dv=0
Position2: "Single Positioning lookup 114 subtable" dx=274 dy=0 dh=274 dv=0
Position2: "Single Positioning lookup 113 subtable" dx=274 dy=0 dh=274 dv=0
Position2: "Single Positioning lookup 112 subtable" dx=274 dy=0 dh=274 dv=0
Position2: "Single Positioning lookup 111 subtable" dx=274 dy=0 dh=274 dv=0
Position2: "Single Positioning lookup 110 subtable" dx=274 dy=0 dh=274 dv=0
Position2: "Single Positioning lookup 109 subtable" dx=274 dy=0 dh=274 dv=0
Position2: "Single Positioning lookup 108 subtable" dx=274 dy=0 dh=274 dv=0
Position2: "Single Positioning lookup 107 subtable" dx=274 dy=0 dh=274 dv=0
Position2: "Single Positioning lookup 106 subtable" dx=274 dy=0 dh=274 dv=0
Position2: "Single Positioning lookup 105 subtable" dx=274 dy=0 dh=274 dv=0
Position2: "Single Positioning lookup 104 subtable" dx=274 dy=0 dh=274 dv=0
Position2: "Single Positioning lookup 103 subtable" dx=274 dy=0 dh=274 dv=0
Position2: "Single Positioning lookup 102 subtable" dx=274 dy=0 dh=274 dv=0
Position2: "Single Positioning lookup 101 subtable" dx=274 dy=0 dh=274 dv=0
Position2: "Single Positioning lookup 100 subtable" dx=274 dy=0 dh=274 dv=0
Position2: "Single Positioning lookup 99 subtable" dx=274 dy=0 dh=274 dv=0
Position2: "Single Positioning lookup 98 subtable" dx=274 dy=0 dh=274 dv=0
Position2: "Single Positioning lookup 97 subtable" dx=274 dy=0 dh=274 dv=0
Position2: "Single Positioning lookup 96 subtable" dx=274 dy=0 dh=274 dv=0
Position2: "Single Positioning lookup 95 subtable" dx=274 dy=0 dh=274 dv=0
Position2: "Single Positioning lookup 49 subtable" dx=99 dy=0 dh=99 dv=0
Position2: "Single Positioning lookup 48 subtable" dx=254 dy=0 dh=254 dv=0
Position2: "Single Positioning lookup 47 subtable" dx=98 dy=0 dh=98 dv=0
Position2: "Single Positioning lookup 44 subtable" dx=0 dy=0 dh=396 dv=0
Position2: "Single Positioning lookup 43 subtable" dx=216 dy=0 dh=216 dv=0
Position2: "Single Positioning lookup 42 subtable" dx=0 dy=0 dh=364 dv=0
Position2: "Single Positioning lookup 41 subtable" dx=185 dy=0 dh=185 dv=0
Position2: "Single Positioning lookup 36 subtable" dx=146 dy=0 dh=146 dv=0
Position2: "Single Positioning lookup 34 subtable" dx=31 dy=0 dh=31 dv=0
Position2: "Single Positioning lookup 33 subtable" dx=193 dy=0 dh=193 dv=0
Position2: "Single Positioning lookup 30 subtable" dx=35 dy=0 dh=35 dv=0
Position2: "Single Positioning lookup 29 subtable" dx=268 dy=0 dh=268 dv=0
Position2: "Single Positioning lookup 28 subtable" dx=234 dy=0 dh=234 dv=0
Position2: "Single Positioning lookup 25 subtable" dx=2 dy=0 dh=2 dv=0
Position2: "Single Positioning lookup 22 subtable" dx=98 dy=0 dh=98 dv=0
Position2: "Single Positioning lookup 21 subtable" dx=43 dy=0 dh=43 dv=0
Position2: "Single Positioning lookup 19 subtable" dx=54 dy=0 dh=54 dv=0
Position2: "Single Positioning lookup 18 subtable" dx=18 dy=0 dh=18 dv=0
Position2: "Single Positioning lookup 14 subtable" dx=0 dy=0 dh=307 dv=0
Position2: "Single Positioning lookup 13 subtable" dx=128 dy=0 dh=128 dv=0
Position2: "Single Positioning lookup 10 subtable" dx=132 dy=0 dh=132 dv=0
Position2: "Single Positioning lookup 7 subtable" dx=294 dy=0 dh=294 dv=0
Position2: "Single Positioning lookup 6 subtable" dx=168 dy=0 dh=168 dv=0
Position2: "Single Positioning lookup 4 subtable" dx=339 dy=0 dh=339 dv=0
Position2: "Single Positioning lookup 3 subtable" dx=15 dy=0 dh=15 dv=0
Position2: "Single Positioning lookup 2 subtable" dx=84 dy=0 dh=84 dv=0
EndChar

StartChar: uni1B1B
Encoding: 6939 6939 33
Width: 997
GlyphClass: 2
Flags: W
AnchorPoint: "Anchor-3" 498 0 basechar 0
AnchorPoint: "Anchor-2" 943 -462 basechar 0
AnchorPoint: "Anchor-0" 382 500 basechar 0
LayerCount: 2
Fore
SplineSet
796 0 m 1,0,-1
 717 0 l 1,1,-1
 717 265 l 2,2,3
 717 346 717 346 646 346 c 0,4,5
 583 346 583 346 564 267 c 1,6,-1
 509 267 l 1,7,8
 487 354 487 354 428 354 c 0,9,10
 360 354 360 354 360 248 c 0,11,12
 360 121 360 121 450 49 c 1,13,-1
 445 0 l 1,14,-1
 243 0 l 2,15,16
 152 0 152 0 123 67 c 0,17,18
 115 89 115 89 115 111 c 0,19,20
 115 146 115 146 133 182 c 2,21,-1
 177 274 l 2,22,23
 186 295 186 295 186 312 c 256,24,25
 186 329 186 329 175 341.5 c 128,-1,26
 164 354 164 354 147 354 c 2,27,-1
 136 353 l 1,28,29
 88 342 88 342 88 251 c 2,30,-1
 88 231 l 1,31,-1
 45 228 l 1,32,33
 30 270 30 270 30 303 c 0,34,35
 30 353 30 353 60.5 386 c 128,-1,36
 91 419 91 419 149 419 c 0,37,38
 202 419 202 419 231.5 388 c 128,-1,39
 261 357 261 357 261 310 c 0,40,41
 261 275 261 275 243 233 c 1,42,43
 197 149 197 149 197 110 c 0,44,45
 197 65 197 65 244 65 c 2,46,-1
 354 65 l 1,47,48
 283 128 283 128 283 245 c 0,49,50
 283 325 283 325 320.5 372 c 128,-1,51
 358 419 358 419 428 419 c 0,52,53
 515 417 515 417 539 359 c 1,54,55
 577 413 577 413 652 413 c 0,56,57
 796 413 796 413 796 261 c 2,58,-1
 796 0 l 1,0,-1
707 -879 m 2,59,-1
 396 -879 l 2,60,61
 211 -879 211 -879 134 -784 c 0,62,63
 80 -719 80 -719 80 -634 c 0,64,65
 80 -596 80 -596 91 -553 c 0,66,67
 126 -416 126 -416 327 -339.5 c 128,-1,68
 528 -263 528 -263 622.5 -197 c 128,-1,69
 717 -131 717 -131 717 -16 c 2,70,-1
 717 15 l 1,71,-1
 796 15 l 1,72,-1
 796 -6 l 1,73,74
 791 -181 791 -181 678.5 -253.5 c 128,-1,75
 566 -326 566 -326 395.5 -389 c 128,-1,76
 225 -452 225 -452 188 -550 c 0,77,78
 172 -593 172 -593 172 -631 c 0,79,80
 172 -682 172 -682 200 -725 c 0,81,82
 249 -800 249 -800 404 -801 c 2,83,-1
 700 -801 l 2,84,85
 872 -801 872 -801 872 -614 c 2,86,-1
 872 316 l 2,87,88
 871 415 871 415 843.5 468.5 c 128,-1,89
 816 522 816 522 787 524 c 2,90,-1
 784 524 l 2,91,92
 762 524 762 524 762 502 c 2,93,-1
 762 496 l 1,94,95
 766 467 766 467 828 404 c 1,96,-1
 820 388 l 1,97,98
 754 413 754 413 721.5 444.5 c 128,-1,99
 689 476 689 476 689 522 c 0,100,101
 689 559 689 559 713 578 c 128,-1,102
 737 597 737 597 772 597 c 0,103,104
 786 597 786 597 802 593 c 0,105,106
 947 564 947 564 947 287 c 2,107,-1
 947 263 l 1,108,-1
 947 -611 l 1,109,110
 942 -879 942 -879 707 -879 c 2,59,-1
EndSplineSet
MultipleSubs2: "Multiple Substitution lookup 319 subtable" uni1B1B _reorder
MultipleSubs2: "Multiple Substitution lookup 263 subtable" uni1B1B _reorder
MultipleSubs2: "Multiple Substitution lookup 207 subtable" uni1B1B _reorder
MultipleSubs2: "Multiple Substitution lookup 146 subtable" uni1B1B _reorder
MultipleSubs2: "Multiple Substitution lookup 90 subtable" uni1B1B _reorder
MultipleSubs2: "Multiple Substitution lookup 34 subtable" uni1B1B _reorder
Substitution2: "Single Substitution lookup 11 subtable" uni1B1B.2
Position2: "Single Positioning lookup 332 subtable" dx=130 dy=0 dh=130 dv=0
Position2: "Single Positioning lookup 331 subtable" dx=130 dy=0 dh=130 dv=0
Position2: "Single Positioning lookup 327 subtable" dx=130 dy=0 dh=130 dv=0
Position2: "Single Positioning lookup 324 subtable" dx=130 dy=0 dh=130 dv=0
Position2: "Single Positioning lookup 320 subtable" dx=130 dy=0 dh=130 dv=0
Position2: "Single Positioning lookup 319 subtable" dx=130 dy=0 dh=130 dv=0
Position2: "Single Positioning lookup 305 subtable" dx=130 dy=0 dh=130 dv=0
Position2: "Single Positioning lookup 299 subtable" dx=130 dy=0 dh=130 dv=0
Position2: "Single Positioning lookup 298 subtable" dx=130 dy=0 dh=130 dv=0
Position2: "Single Positioning lookup 296 subtable" dx=130 dy=0 dh=130 dv=0
Position2: "Single Positioning lookup 293 subtable" dx=171 dy=0 dh=171 dv=0
Position2: "Single Positioning lookup 292 subtable" dx=171 dy=0 dh=171 dv=0
Position2: "Single Positioning lookup 287 subtable" dx=171 dy=0 dh=171 dv=0
Position2: "Single Positioning lookup 284 subtable" dx=171 dy=0 dh=171 dv=0
Position2: "Single Positioning lookup 280 subtable" dx=171 dy=0 dh=171 dv=0
Position2: "Single Positioning lookup 279 subtable" dx=171 dy=0 dh=171 dv=0
Position2: "Single Positioning lookup 273 subtable" dx=171 dy=0 dh=171 dv=0
Position2: "Single Positioning lookup 265 subtable" dx=171 dy=0 dh=171 dv=0
Position2: "Single Positioning lookup 262 subtable" dx=171 dy=0 dh=171 dv=0
Position2: "Single Positioning lookup 259 subtable" dx=171 dy=0 dh=171 dv=0
Position2: "Single Positioning lookup 258 subtable" dx=171 dy=0 dh=171 dv=0
Position2: "Single Positioning lookup 256 subtable" dx=171 dy=0 dh=171 dv=0
Position2: "Single Positioning lookup 253 subtable" dx=89 dy=0 dh=89 dv=0
Position2: "Single Positioning lookup 252 subtable" dx=89 dy=0 dh=89 dv=0
Position2: "Single Positioning lookup 245 subtable" dx=89 dy=0 dh=89 dv=0
Position2: "Single Positioning lookup 241 subtable" dx=89 dy=0 dh=89 dv=0
Position2: "Single Positioning lookup 240 subtable" dx=89 dy=0 dh=89 dv=0
Position2: "Single Positioning lookup 226 subtable" dx=89 dy=0 dh=89 dv=0
Position2: "Single Positioning lookup 220 subtable" dx=89 dy=0 dh=89 dv=0
Position2: "Single Positioning lookup 217 subtable" dx=89 dy=0 dh=89 dv=0
Position2: "Single Positioning lookup 214 subtable" dx=221 dy=0 dh=221 dv=0
Position2: "Single Positioning lookup 213 subtable" dx=221 dy=0 dh=221 dv=0
Position2: "Single Positioning lookup 208 subtable" dx=221 dy=0 dh=221 dv=0
Position2: "Single Positioning lookup 205 subtable" dx=221 dy=0 dh=221 dv=0
Position2: "Single Positioning lookup 201 subtable" dx=221 dy=0 dh=221 dv=0
Position2: "Single Positioning lookup 200 subtable" dx=221 dy=0 dh=221 dv=0
Position2: "Single Positioning lookup 194 subtable" dx=221 dy=0 dh=221 dv=0
Position2: "Single Positioning lookup 191 subtable" dx=221 dy=0 dh=221 dv=0
Position2: "Single Positioning lookup 186 subtable" dx=221 dy=0 dh=221 dv=0
Position2: "Single Positioning lookup 183 subtable" dx=221 dy=0 dh=221 dv=0
Position2: "Single Positioning lookup 180 subtable" dx=221 dy=0 dh=221 dv=0
Position2: "Single Positioning lookup 179 subtable" dx=221 dy=0 dh=221 dv=0
Position2: "Single Positioning lookup 177 subtable" dx=221 dy=0 dh=221 dv=0
Position2: "Single Positioning lookup 175 subtable" dx=221 dy=0 dh=221 dv=0
Position2: "Single Positioning lookup 174 subtable" dx=191 dy=0 dh=191 dv=0
Position2: "Single Positioning lookup 173 subtable" dx=191 dy=0 dh=191 dv=0
Position2: "Single Positioning lookup 168 subtable" dx=191 dy=0 dh=191 dv=0
Position2: "Single Positioning lookup 165 subtable" dx=191 dy=0 dh=191 dv=0
Position2: "Single Positioning lookup 161 subtable" dx=191 dy=0 dh=191 dv=0
Position2: "Single Positioning lookup 160 subtable" dx=191 dy=0 dh=191 dv=0
Position2: "Single Positioning lookup 154 subtable" dx=191 dy=0 dh=191 dv=0
Position2: "Single Positioning lookup 146 subtable" dx=191 dy=0 dh=191 dv=0
Position2: "Single Positioning lookup 143 subtable" dx=191 dy=0 dh=191 dv=0
Position2: "Single Positioning lookup 140 subtable" dx=191 dy=0 dh=191 dv=0
Position2: "Single Positioning lookup 139 subtable" dx=191 dy=0 dh=191 dv=0
Position2: "Single Positioning lookup 137 subtable" dx=191 dy=0 dh=191 dv=0
Position2: "Single Positioning lookup 135 subtable" dx=191 dy=0 dh=191 dv=0
Position2: "Single Positioning lookup 134 subtable" dx=274 dy=0 dh=274 dv=0
Position2: "Single Positioning lookup 133 subtable" dx=274 dy=0 dh=274 dv=0
Position2: "Single Positioning lookup 132 subtable" dx=274 dy=0 dh=274 dv=0
Position2: "Single Positioning lookup 128 subtable" dx=274 dy=0 dh=274 dv=0
Position2: "Single Positioning lookup 126 subtable" dx=274 dy=0 dh=274 dv=0
Position2: "Single Positioning lookup 125 subtable" dx=274 dy=0 dh=274 dv=0
Position2: "Single Positioning lookup 122 subtable" dx=274 dy=0 dh=274 dv=0
Position2: "Single Positioning lookup 121 subtable" dx=274 dy=0 dh=274 dv=0
Position2: "Single Positioning lookup 120 subtable" dx=274 dy=0 dh=274 dv=0
Position2: "Single Positioning lookup 117 subtable" dx=274 dy=0 dh=274 dv=0
Position2: "Single Positioning lookup 114 subtable" dx=274 dy=0 dh=274 dv=0
Position2: "Single Positioning lookup 113 subtable" dx=274 dy=0 dh=274 dv=0
Position2: "Single Positioning lookup 111 subtable" dx=274 dy=0 dh=274 dv=0
Position2: "Single Positioning lookup 110 subtable" dx=274 dy=0 dh=274 dv=0
Position2: "Single Positioning lookup 106 subtable" dx=274 dy=0 dh=274 dv=0
Position2: "Single Positioning lookup 103 subtable" dx=274 dy=0 dh=274 dv=0
Position2: "Single Positioning lookup 101 subtable" dx=274 dy=0 dh=274 dv=0
Position2: "Single Positioning lookup 100 subtable" dx=274 dy=0 dh=274 dv=0
Position2: "Single Positioning lookup 99 subtable" dx=274 dy=0 dh=274 dv=0
Position2: "Single Positioning lookup 97 subtable" dx=274 dy=0 dh=274 dv=0
Position2: "Single Positioning lookup 96 subtable" dx=274 dy=0 dh=274 dv=0
Position2: "Single Positioning lookup 95 subtable" dx=274 dy=0 dh=274 dv=0
Position2: "Single Positioning lookup 44 subtable" dx=0 dy=0 dh=173 dv=0
Position2: "Single Positioning lookup 43 subtable" dx=174 dy=0 dh=174 dv=0
Position2: "Single Positioning lookup 42 subtable" dx=0 dy=0 dh=141 dv=0
Position2: "Single Positioning lookup 41 subtable" dx=143 dy=0 dh=143 dv=0
Position2: "Single Positioning lookup 29 subtable" dx=3 dy=0 dh=3 dv=0
Position2: "Single Positioning lookup 14 subtable" dx=0 dy=0 dh=84 dv=0
Position2: "Single Positioning lookup 13 subtable" dx=86 dy=0 dh=86 dv=0
Position2: "Single Positioning lookup 7 subtable" dx=29 dy=0 dh=29 dv=0
Position2: "Single Positioning lookup 4 subtable" dx=74 dy=0 dh=74 dv=0
EndChar

StartChar: uni1B1C
Encoding: 6940 6940 34
Width: 1247
GlyphClass: 2
Flags: W
AnchorPoint: "Anchor-3" 623 0 basechar 0
AnchorPoint: "Anchor-0" 587 490 basechar 0
LayerCount: 2
Fore
SplineSet
1017 -6 m 1,0,1
 893 -4 893 -4 893 136 c 2,2,-1
 893 155 l 1,3,-1
 921 160 l 1,4,5
 936 72 936 72 989 65 c 1,6,-1
 1007 64 l 2,7,8
 1052 64 1052 64 1081 99.5 c 128,-1,9
 1110 135 1110 135 1113 206 c 2,10,-1
 1114 217 l 1,11,12
 1114 274 1114 274 1086 310.5 c 128,-1,13
 1058 347 1058 347 1014 347 c 0,14,15
 962 347 962 347 919 299.5 c 128,-1,16
 876 252 876 252 763 0 c 1,17,-1
 707 32 l 1,18,19
 744 132 744 132 744 217 c 0,20,21
 744 344 744 344 670 350 c 1,22,-1
 666 350 l 2,23,24
 608 350 608 350 586 267 c 1,25,-1
 526 267 l 1,26,27
 504 350 504 350 441 350 c 2,28,-1
 436 350 l 1,29,30
 369 346 369 346 365 233 c 1,31,-1
 365 224 l 2,32,33
 365 118 365 118 456 53 c 1,34,-1
 454 0 l 1,35,-1
 254 0 l 1,36,-1
 282 61 l 1,37,-1
 363 61 l 1,38,39
 287 118 287 118 287 232 c 0,40,41
 287 314 287 314 321.5 363.5 c 128,-1,42
 356 413 356 413 423 416 c 2,43,-1
 438 417 l 1,44,45
 532 417 532 417 555 359 c 1,46,-1
 556 358 l 1,47,-1
 556 359 l 1,48,49
 579 417 579 417 669 417 c 1,50,-1
 684 416 l 2,51,52
 740 414 740 414 774 376.5 c 128,-1,53
 808 339 808 339 811 268 c 1,54,55
 884 422 884 422 1015 422 c 1,56,-1
 1034 421 l 2,57,58
 1102 415 1102 415 1149.5 360.5 c 128,-1,59
 1197 306 1197 306 1197 211 c 256,60,61
 1197 116 1197 116 1151.5 57 c 128,-1,62
 1106 -2 1106 -2 1017 -6 c 1,0,1
312 0 m 1,63,-1
 243 0 l 2,64,65
 152 0 152 0 123 67 c 0,66,67
 115 89 115 89 115 111 c 0,68,69
 115 146 115 146 133 182 c 2,70,-1
 177 274 l 2,71,72
 186 295 186 295 186 312 c 256,73,74
 186 329 186 329 175 341.5 c 128,-1,75
 164 354 164 354 147 354 c 2,76,-1
 136 353 l 1,77,78
 88 342 88 342 88 251 c 2,79,-1
 88 231 l 1,80,-1
 45 228 l 1,81,82
 30 270 30 270 30 303 c 0,83,84
 30 353 30 353 60.5 386 c 128,-1,85
 91 419 91 419 149 419 c 0,86,87
 202 419 202 419 231.5 388 c 128,-1,88
 261 357 261 357 261 310 c 0,89,90
 261 275 261 275 243 233 c 1,91,92
 196 146 196 146 196 109 c 0,93,94
 196 88 196 88 211 76.5 c 128,-1,95
 226 65 226 65 254 65 c 2,96,-1
 408 65 l 1,97,-1
 312 0 l 1,63,-1
EndSplineSet
MultipleSubs2: "Multiple Substitution lookup 320 subtable" uni1B1C _reorder
MultipleSubs2: "Multiple Substitution lookup 264 subtable" uni1B1C _reorder
MultipleSubs2: "Multiple Substitution lookup 208 subtable" uni1B1C _reorder
MultipleSubs2: "Multiple Substitution lookup 147 subtable" uni1B1C _reorder
MultipleSubs2: "Multiple Substitution lookup 91 subtable" uni1B1C _reorder
MultipleSubs2: "Multiple Substitution lookup 35 subtable" uni1B1C _reorder
Position2: "Single Positioning lookup 332 subtable" dx=130 dy=0 dh=130 dv=0
Position2: "Single Positioning lookup 331 subtable" dx=130 dy=0 dh=130 dv=0
Position2: "Single Positioning lookup 305 subtable" dx=130 dy=0 dh=130 dv=0
Position2: "Single Positioning lookup 293 subtable" dx=171 dy=0 dh=171 dv=0
Position2: "Single Positioning lookup 292 subtable" dx=171 dy=0 dh=171 dv=0
Position2: "Single Positioning lookup 265 subtable" dx=171 dy=0 dh=171 dv=0
Position2: "Single Positioning lookup 253 subtable" dx=89 dy=0 dh=89 dv=0
Position2: "Single Positioning lookup 252 subtable" dx=89 dy=0 dh=89 dv=0
Position2: "Single Positioning lookup 226 subtable" dx=89 dy=0 dh=89 dv=0
Position2: "Single Positioning lookup 214 subtable" dx=221 dy=0 dh=221 dv=0
Position2: "Single Positioning lookup 213 subtable" dx=221 dy=0 dh=221 dv=0
Position2: "Single Positioning lookup 186 subtable" dx=221 dy=0 dh=221 dv=0
Position2: "Single Positioning lookup 177 subtable" dx=221 dy=0 dh=221 dv=0
Position2: "Single Positioning lookup 174 subtable" dx=191 dy=0 dh=191 dv=0
Position2: "Single Positioning lookup 173 subtable" dx=191 dy=0 dh=191 dv=0
Position2: "Single Positioning lookup 146 subtable" dx=191 dy=0 dh=191 dv=0
Position2: "Single Positioning lookup 137 subtable" dx=191 dy=0 dh=191 dv=0
Position2: "Single Positioning lookup 134 subtable" dx=274 dy=0 dh=274 dv=0
Position2: "Single Positioning lookup 133 subtable" dx=274 dy=0 dh=274 dv=0
Position2: "Single Positioning lookup 121 subtable" dx=274 dy=0 dh=274 dv=0
Position2: "Single Positioning lookup 106 subtable" dx=274 dy=0 dh=274 dv=0
Position2: "Single Positioning lookup 100 subtable" dx=274 dy=0 dh=274 dv=0
Position2: "Single Positioning lookup 97 subtable" dx=274 dy=0 dh=274 dv=0
Position2: "Single Positioning lookup 44 subtable" dx=0 dy=0 dh=48 dv=0
Position2: "Single Positioning lookup 43 subtable" dx=49 dy=0 dh=49 dv=0
Position2: "Single Positioning lookup 42 subtable" dx=0 dy=0 dh=16 dv=0
Position2: "Single Positioning lookup 41 subtable" dx=18 dy=0 dh=18 dv=0
EndChar

StartChar: uni1B1D
Encoding: 6941 6941 35
Width: 840
GlyphClass: 2
Flags: W
AnchorPoint: "Anchor-3" 470 0 basechar 0
AnchorPoint: "Anchor-0" 426 490 basechar 0
LayerCount: 2
Fore
SplineSet
790 0 m 1,0,-1
 711 0 l 1,1,-1
 711 265 l 2,2,3
 711 346 711 346 640 346 c 0,4,5
 577 346 577 346 558 267 c 1,6,-1
 503 267 l 1,7,8
 481 354 481 354 423 354 c 0,9,10
 397 354 397 354 379.5 336.5 c 128,-1,11
 362 319 362 319 362 289 c 0,12,13
 362 262 362 262 381 234 c 1,14,-1
 357 215 l 1,15,16
 301 255 301 255 301 313 c 0,17,18
 301 361 301 361 334.5 390 c 128,-1,19
 368 419 368 419 422 419 c 0,20,21
 509 417 509 417 533 359 c 1,22,23
 572 413 572 413 646 413 c 0,24,25
 790 413 790 413 790 261 c 2,26,-1
 790 0 l 1,0,-1
268 0 m 1,27,-1
 243 0 l 2,28,29
 184 0 184 0 149.5 29 c 128,-1,30
 115 58 115 58 115 111 c 0,31,32
 115 147 115 147 159 238 c 0,33,34
 186 292 186 292 186 312 c 0,35,36
 186 354 186 354 147 354 c 2,37,-1
 136 353 l 1,38,39
 88 342 88 342 88 251 c 2,40,-1
 88 231 l 1,41,-1
 45 228 l 1,42,43
 30 270 30 270 30 303 c 0,44,45
 30 353 30 353 60.5 386 c 128,-1,46
 91 419 91 419 149 419 c 0,47,48
 202 419 202 419 231.5 388 c 128,-1,49
 261 357 261 357 261 310 c 0,50,51
 261 275 261 275 243 233 c 1,52,53
 197 149 197 149 197 110 c 0,54,55
 197 65 197 65 244 65 c 2,56,-1
 266 65 l 1,57,-1
 268 0 l 1,27,-1
338 61 m 2,58,59
 423 63 423 63 423 99 c 2,60,-1
 423 105 l 2,61,62
 420 124 420 124 396 126 c 2,63,-1
 390 126 l 2,64,65
 369 126 369 126 350.5 107 c 128,-1,66
 332 88 332 88 329 61 c 1,67,-1
 338 61 l 2,58,59
393 -123 m 2,68,69
 339 -123 339 -123 303.5 -91 c 128,-1,70
 268 -59 268 -59 261 0 c 1,71,-1
 253 0 l 1,72,-1
 252 61 l 1,73,-1
 259 61 l 1,74,75
 264 107 264 107 300.5 144.5 c 128,-1,76
 337 182 337 182 393 182 c 0,77,78
 434 182 434 182 462 160.5 c 128,-1,79
 490 139 490 139 490 99 c 0,80,81
 490 65 490 65 461 36 c 0,82,83
 425 0 425 0 357 0 c 2,84,-1
 331 0 l 1,85,86
 334 -31 334 -31 355 -49 c 128,-1,87
 376 -67 376 -67 413 -67 c 0,88,89
 458 -67 458 -67 503 -27 c 1,90,-1
 527 -54 l 1,91,92
 478 -115 478 -115 414 -122 c 2,93,-1
 393 -123 l 2,68,69
EndSplineSet
MultipleSubs2: "Multiple Substitution lookup 321 subtable" uni1B1D _reorder
MultipleSubs2: "Multiple Substitution lookup 265 subtable" uni1B1D _reorder
MultipleSubs2: "Multiple Substitution lookup 209 subtable" uni1B1D _reorder
MultipleSubs2: "Multiple Substitution lookup 148 subtable" uni1B1D _reorder
MultipleSubs2: "Multiple Substitution lookup 92 subtable" uni1B1D _reorder
MultipleSubs2: "Multiple Substitution lookup 36 subtable" uni1B1D _reorder
Position2: "Single Positioning lookup 332 subtable" dx=130 dy=0 dh=130 dv=0
Position2: "Single Positioning lookup 331 subtable" dx=130 dy=0 dh=130 dv=0
Position2: "Single Positioning lookup 330 subtable" dx=130 dy=0 dh=130 dv=0
Position2: "Single Positioning lookup 327 subtable" dx=130 dy=0 dh=130 dv=0
Position2: "Single Positioning lookup 325 subtable" dx=130 dy=0 dh=130 dv=0
Position2: "Single Positioning lookup 324 subtable" dx=130 dy=0 dh=130 dv=0
Position2: "Single Positioning lookup 321 subtable" dx=130 dy=0 dh=130 dv=0
Position2: "Single Positioning lookup 320 subtable" dx=130 dy=0 dh=130 dv=0
Position2: "Single Positioning lookup 319 subtable" dx=130 dy=0 dh=130 dv=0
Position2: "Single Positioning lookup 317 subtable" dx=130 dy=0 dh=130 dv=0
Position2: "Single Positioning lookup 316 subtable" dx=130 dy=0 dh=130 dv=0
Position2: "Single Positioning lookup 313 subtable" dx=130 dy=0 dh=130 dv=0
Position2: "Single Positioning lookup 312 subtable" dx=130 dy=0 dh=130 dv=0
Position2: "Single Positioning lookup 310 subtable" dx=130 dy=0 dh=130 dv=0
Position2: "Single Positioning lookup 309 subtable" dx=130 dy=0 dh=130 dv=0
Position2: "Single Positioning lookup 305 subtable" dx=130 dy=0 dh=130 dv=0
Position2: "Single Positioning lookup 302 subtable" dx=130 dy=0 dh=130 dv=0
Position2: "Single Positioning lookup 300 subtable" dx=130 dy=0 dh=130 dv=0
Position2: "Single Positioning lookup 299 subtable" dx=130 dy=0 dh=130 dv=0
Position2: "Single Positioning lookup 298 subtable" dx=130 dy=0 dh=130 dv=0
Position2: "Single Positioning lookup 296 subtable" dx=130 dy=0 dh=130 dv=0
Position2: "Single Positioning lookup 295 subtable" dx=130 dy=0 dh=130 dv=0
Position2: "Single Positioning lookup 294 subtable" dx=130 dy=0 dh=130 dv=0
Position2: "Single Positioning lookup 293 subtable" dx=171 dy=0 dh=171 dv=0
Position2: "Single Positioning lookup 292 subtable" dx=171 dy=0 dh=171 dv=0
Position2: "Single Positioning lookup 291 subtable" dx=171 dy=0 dh=171 dv=0
Position2: "Single Positioning lookup 287 subtable" dx=171 dy=0 dh=171 dv=0
Position2: "Single Positioning lookup 285 subtable" dx=171 dy=0 dh=171 dv=0
Position2: "Single Positioning lookup 284 subtable" dx=171 dy=0 dh=171 dv=0
Position2: "Single Positioning lookup 281 subtable" dx=171 dy=0 dh=171 dv=0
Position2: "Single Positioning lookup 280 subtable" dx=171 dy=0 dh=171 dv=0
Position2: "Single Positioning lookup 279 subtable" dx=171 dy=0 dh=171 dv=0
Position2: "Single Positioning lookup 277 subtable" dx=171 dy=0 dh=171 dv=0
Position2: "Single Positioning lookup 276 subtable" dx=171 dy=0 dh=171 dv=0
Position2: "Single Positioning lookup 275 subtable" dx=171 dy=0 dh=171 dv=0
Position2: "Single Positioning lookup 273 subtable" dx=171 dy=0 dh=171 dv=0
Position2: "Single Positioning lookup 272 subtable" dx=171 dy=0 dh=171 dv=0
Position2: "Single Positioning lookup 271 subtable" dx=171 dy=0 dh=171 dv=0
Position2: "Single Positioning lookup 270 subtable" dx=171 dy=0 dh=171 dv=0
Position2: "Single Positioning lookup 269 subtable" dx=171 dy=0 dh=171 dv=0
Position2: "Single Positioning lookup 265 subtable" dx=171 dy=0 dh=171 dv=0
Position2: "Single Positioning lookup 262 subtable" dx=171 dy=0 dh=171 dv=0
Position2: "Single Positioning lookup 261 subtable" dx=171 dy=0 dh=171 dv=0
Position2: "Single Positioning lookup 260 subtable" dx=171 dy=0 dh=171 dv=0
Position2: "Single Positioning lookup 259 subtable" dx=171 dy=0 dh=171 dv=0
Position2: "Single Positioning lookup 258 subtable" dx=171 dy=0 dh=171 dv=0
Position2: "Single Positioning lookup 256 subtable" dx=171 dy=0 dh=171 dv=0
Position2: "Single Positioning lookup 255 subtable" dx=171 dy=0 dh=171 dv=0
Position2: "Single Positioning lookup 254 subtable" dx=171 dy=0 dh=171 dv=0
Position2: "Single Positioning lookup 253 subtable" dx=89 dy=0 dh=89 dv=0
Position2: "Single Positioning lookup 252 subtable" dx=89 dy=0 dh=89 dv=0
Position2: "Single Positioning lookup 251 subtable" dx=89 dy=0 dh=89 dv=0
Position2: "Single Positioning lookup 248 subtable" dx=89 dy=0 dh=89 dv=0
Position2: "Single Positioning lookup 246 subtable" dx=89 dy=0 dh=89 dv=0
Position2: "Single Positioning lookup 245 subtable" dx=89 dy=0 dh=89 dv=0
Position2: "Single Positioning lookup 242 subtable" dx=89 dy=0 dh=89 dv=0
Position2: "Single Positioning lookup 241 subtable" dx=89 dy=0 dh=89 dv=0
Position2: "Single Positioning lookup 240 subtable" dx=89 dy=0 dh=89 dv=0
Position2: "Single Positioning lookup 234 subtable" dx=89 dy=0 dh=89 dv=0
Position2: "Single Positioning lookup 233 subtable" dx=89 dy=0 dh=89 dv=0
Position2: "Single Positioning lookup 231 subtable" dx=89 dy=0 dh=89 dv=0
Position2: "Single Positioning lookup 226 subtable" dx=89 dy=0 dh=89 dv=0
Position2: "Single Positioning lookup 223 subtable" dx=89 dy=0 dh=89 dv=0
Position2: "Single Positioning lookup 220 subtable" dx=89 dy=0 dh=89 dv=0
Position2: "Single Positioning lookup 219 subtable" dx=89 dy=0 dh=89 dv=0
Position2: "Single Positioning lookup 217 subtable" dx=89 dy=0 dh=89 dv=0
Position2: "Single Positioning lookup 215 subtable" dx=89 dy=0 dh=89 dv=0
Position2: "Single Positioning lookup 214 subtable" dx=221 dy=0 dh=221 dv=0
Position2: "Single Positioning lookup 213 subtable" dx=221 dy=0 dh=221 dv=0
Position2: "Single Positioning lookup 212 subtable" dx=221 dy=0 dh=221 dv=0
Position2: "Single Positioning lookup 208 subtable" dx=221 dy=0 dh=221 dv=0
Position2: "Single Positioning lookup 207 subtable" dx=221 dy=0 dh=221 dv=0
Position2: "Single Positioning lookup 206 subtable" dx=221 dy=0 dh=221 dv=0
Position2: "Single Positioning lookup 205 subtable" dx=221 dy=0 dh=221 dv=0
Position2: "Single Positioning lookup 204 subtable" dx=221 dy=0 dh=221 dv=0
Position2: "Single Positioning lookup 202 subtable" dx=221 dy=0 dh=221 dv=0
Position2: "Single Positioning lookup 201 subtable" dx=221 dy=0 dh=221 dv=0
Position2: "Single Positioning lookup 200 subtable" dx=221 dy=0 dh=221 dv=0
Position2: "Single Positioning lookup 198 subtable" dx=221 dy=0 dh=221 dv=0
Position2: "Single Positioning lookup 197 subtable" dx=221 dy=0 dh=221 dv=0
Position2: "Single Positioning lookup 196 subtable" dx=221 dy=0 dh=221 dv=0
Position2: "Single Positioning lookup 194 subtable" dx=221 dy=0 dh=221 dv=0
Position2: "Single Positioning lookup 193 subtable" dx=221 dy=0 dh=221 dv=0
Position2: "Single Positioning lookup 192 subtable" dx=221 dy=0 dh=221 dv=0
Position2: "Single Positioning lookup 191 subtable" dx=221 dy=0 dh=221 dv=0
Position2: "Single Positioning lookup 190 subtable" dx=221 dy=0 dh=221 dv=0
Position2: "Single Positioning lookup 186 subtable" dx=221 dy=0 dh=221 dv=0
Position2: "Single Positioning lookup 184 subtable" dx=221 dy=0 dh=221 dv=0
Position2: "Single Positioning lookup 183 subtable" dx=221 dy=0 dh=221 dv=0
Position2: "Single Positioning lookup 182 subtable" dx=221 dy=0 dh=221 dv=0
Position2: "Single Positioning lookup 181 subtable" dx=221 dy=0 dh=221 dv=0
Position2: "Single Positioning lookup 180 subtable" dx=221 dy=0 dh=221 dv=0
Position2: "Single Positioning lookup 179 subtable" dx=221 dy=0 dh=221 dv=0
Position2: "Single Positioning lookup 177 subtable" dx=221 dy=0 dh=221 dv=0
Position2: "Single Positioning lookup 176 subtable" dx=221 dy=0 dh=221 dv=0
Position2: "Single Positioning lookup 175 subtable" dx=221 dy=0 dh=221 dv=0
Position2: "Single Positioning lookup 174 subtable" dx=191 dy=0 dh=191 dv=0
Position2: "Single Positioning lookup 173 subtable" dx=191 dy=0 dh=191 dv=0
Position2: "Single Positioning lookup 172 subtable" dx=191 dy=0 dh=191 dv=0
Position2: "Single Positioning lookup 168 subtable" dx=191 dy=0 dh=191 dv=0
Position2: "Single Positioning lookup 167 subtable" dx=191 dy=0 dh=191 dv=0
Position2: "Single Positioning lookup 166 subtable" dx=191 dy=0 dh=191 dv=0
Position2: "Single Positioning lookup 165 subtable" dx=191 dy=0 dh=191 dv=0
Position2: "Single Positioning lookup 162 subtable" dx=191 dy=0 dh=191 dv=0
Position2: "Single Positioning lookup 161 subtable" dx=191 dy=0 dh=191 dv=0
Position2: "Single Positioning lookup 160 subtable" dx=191 dy=0 dh=191 dv=0
Position2: "Single Positioning lookup 158 subtable" dx=191 dy=0 dh=191 dv=0
Position2: "Single Positioning lookup 157 subtable" dx=191 dy=0 dh=191 dv=0
Position2: "Single Positioning lookup 156 subtable" dx=191 dy=0 dh=191 dv=0
Position2: "Single Positioning lookup 154 subtable" dx=191 dy=0 dh=191 dv=0
Position2: "Single Positioning lookup 153 subtable" dx=191 dy=0 dh=191 dv=0
Position2: "Single Positioning lookup 152 subtable" dx=191 dy=0 dh=191 dv=0
Position2: "Single Positioning lookup 151 subtable" dx=191 dy=0 dh=191 dv=0
Position2: "Single Positioning lookup 150 subtable" dx=191 dy=0 dh=191 dv=0
Position2: "Single Positioning lookup 146 subtable" dx=191 dy=0 dh=191 dv=0
Position2: "Single Positioning lookup 143 subtable" dx=191 dy=0 dh=191 dv=0
Position2: "Single Positioning lookup 142 subtable" dx=191 dy=0 dh=191 dv=0
Position2: "Single Positioning lookup 141 subtable" dx=191 dy=0 dh=191 dv=0
Position2: "Single Positioning lookup 140 subtable" dx=191 dy=0 dh=191 dv=0
Position2: "Single Positioning lookup 139 subtable" dx=191 dy=0 dh=191 dv=0
Position2: "Single Positioning lookup 137 subtable" dx=191 dy=0 dh=191 dv=0
Position2: "Single Positioning lookup 136 subtable" dx=191 dy=0 dh=191 dv=0
Position2: "Single Positioning lookup 135 subtable" dx=191 dy=0 dh=191 dv=0
Position2: "Single Positioning lookup 134 subtable" dx=274 dy=0 dh=274 dv=0
Position2: "Single Positioning lookup 133 subtable" dx=274 dy=0 dh=274 dv=0
Position2: "Single Positioning lookup 132 subtable" dx=274 dy=0 dh=274 dv=0
Position2: "Single Positioning lookup 130 subtable" dx=274 dy=0 dh=274 dv=0
Position2: "Single Positioning lookup 129 subtable" dx=274 dy=0 dh=274 dv=0
Position2: "Single Positioning lookup 128 subtable" dx=274 dy=0 dh=274 dv=0
Position2: "Single Positioning lookup 127 subtable" dx=274 dy=0 dh=274 dv=0
Position2: "Single Positioning lookup 126 subtable" dx=274 dy=0 dh=274 dv=0
Position2: "Single Positioning lookup 125 subtable" dx=274 dy=0 dh=274 dv=0
Position2: "Single Positioning lookup 124 subtable" dx=274 dy=0 dh=274 dv=0
Position2: "Single Positioning lookup 122 subtable" dx=274 dy=0 dh=274 dv=0
Position2: "Single Positioning lookup 121 subtable" dx=274 dy=0 dh=274 dv=0
Position2: "Single Positioning lookup 120 subtable" dx=274 dy=0 dh=274 dv=0
Position2: "Single Positioning lookup 119 subtable" dx=274 dy=0 dh=274 dv=0
Position2: "Single Positioning lookup 118 subtable" dx=274 dy=0 dh=274 dv=0
Position2: "Single Positioning lookup 117 subtable" dx=274 dy=0 dh=274 dv=0
Position2: "Single Positioning lookup 116 subtable" dx=274 dy=0 dh=274 dv=0
Position2: "Single Positioning lookup 114 subtable" dx=274 dy=0 dh=274 dv=0
Position2: "Single Positioning lookup 113 subtable" dx=274 dy=0 dh=274 dv=0
Position2: "Single Positioning lookup 112 subtable" dx=274 dy=0 dh=274 dv=0
Position2: "Single Positioning lookup 111 subtable" dx=274 dy=0 dh=274 dv=0
Position2: "Single Positioning lookup 110 subtable" dx=274 dy=0 dh=274 dv=0
Position2: "Single Positioning lookup 109 subtable" dx=274 dy=0 dh=274 dv=0
Position2: "Single Positioning lookup 108 subtable" dx=274 dy=0 dh=274 dv=0
Position2: "Single Positioning lookup 107 subtable" dx=274 dy=0 dh=274 dv=0
Position2: "Single Positioning lookup 106 subtable" dx=274 dy=0 dh=274 dv=0
Position2: "Single Positioning lookup 105 subtable" dx=274 dy=0 dh=274 dv=0
Position2: "Single Positioning lookup 104 subtable" dx=274 dy=0 dh=274 dv=0
Position2: "Single Positioning lookup 103 subtable" dx=274 dy=0 dh=274 dv=0
Position2: "Single Positioning lookup 102 subtable" dx=274 dy=0 dh=274 dv=0
Position2: "Single Positioning lookup 101 subtable" dx=274 dy=0 dh=274 dv=0
Position2: "Single Positioning lookup 100 subtable" dx=274 dy=0 dh=274 dv=0
Position2: "Single Positioning lookup 99 subtable" dx=274 dy=0 dh=274 dv=0
Position2: "Single Positioning lookup 98 subtable" dx=274 dy=0 dh=274 dv=0
Position2: "Single Positioning lookup 97 subtable" dx=274 dy=0 dh=274 dv=0
Position2: "Single Positioning lookup 96 subtable" dx=274 dy=0 dh=274 dv=0
Position2: "Single Positioning lookup 95 subtable" dx=274 dy=0 dh=274 dv=0
Position2: "Single Positioning lookup 48 subtable" dx=146 dy=0 dh=146 dv=0
Position2: "Single Positioning lookup 44 subtable" dx=0 dy=0 dh=302 dv=0
Position2: "Single Positioning lookup 43 subtable" dx=202 dy=0 dh=202 dv=0
Position2: "Single Positioning lookup 42 subtable" dx=0 dy=0 dh=270 dv=0
Position2: "Single Positioning lookup 41 subtable" dx=171 dy=0 dh=171 dv=0
Position2: "Single Positioning lookup 36 subtable" dx=38 dy=0 dh=38 dv=0
Position2: "Single Positioning lookup 33 subtable" dx=85 dy=0 dh=85 dv=0
Position2: "Single Positioning lookup 29 subtable" dx=160 dy=0 dh=160 dv=0
Position2: "Single Positioning lookup 28 subtable" dx=126 dy=0 dh=126 dv=0
Position2: "Single Positioning lookup 14 subtable" dx=0 dy=0 dh=213 dv=0
Position2: "Single Positioning lookup 13 subtable" dx=114 dy=0 dh=114 dv=0
Position2: "Single Positioning lookup 10 subtable" dx=24 dy=0 dh=24 dv=0
Position2: "Single Positioning lookup 7 subtable" dx=186 dy=0 dh=186 dv=0
Position2: "Single Positioning lookup 6 subtable" dx=60 dy=0 dh=60 dv=0
Position2: "Single Positioning lookup 4 subtable" dx=231 dy=0 dh=231 dv=0
EndChar

StartChar: uni1B1E
Encoding: 6942 6942 36
Width: 840
GlyphClass: 2
Flags: W
AnchorPoint: "Anchor-3" 470 0 basechar 0
AnchorPoint: "Anchor-0" 440 490 basechar 0
LayerCount: 2
Fore
SplineSet
247 64 m 2,0,-1
 398 64 l 1,1,-1
 398 0 l 1,2,-1
 243 0 l 2,3,4
 152 0 152 0 123 67 c 0,5,6
 115 89 115 89 115 111 c 0,7,8
 115 146 115 146 138 193.5 c 128,-1,9
 161 241 161 241 177 274 c 0,10,11
 186 295 186 295 186 312 c 256,12,13
 186 329 186 329 175 341.5 c 128,-1,14
 164 354 164 354 147 354 c 2,15,-1
 136 353 l 1,16,17
 88 342 88 342 88 251 c 2,18,-1
 88 231 l 1,19,-1
 45 228 l 1,20,21
 30 270 30 270 30 303 c 0,22,23
 30 353 30 353 60.5 386 c 128,-1,24
 91 419 91 419 149 419 c 0,25,26
 202 419 202 419 231.5 388 c 128,-1,27
 261 357 261 357 261 310 c 0,28,29
 261 275 261 275 243 233 c 1,30,31
 197 149 197 149 197 110 c 0,32,33
 197 65 197 65 247 64 c 2,0,-1
790 0 m 1,34,-1
 711 0 l 1,35,-1
 711 265 l 2,36,37
 711 346 711 346 640 346 c 0,38,39
 577 346 577 346 558 267 c 1,40,-1
 503 267 l 1,41,42
 481 354 481 354 423 354 c 0,43,44
 397 354 397 354 379.5 336.5 c 128,-1,45
 362 319 362 319 362 289 c 0,46,47
 362 262 362 262 381 234 c 1,48,-1
 357 215 l 1,49,50
 301 255 301 255 301 313 c 0,51,52
 301 361 301 361 334.5 390 c 128,-1,53
 368 419 368 419 422 419 c 0,54,55
 509 417 509 417 533 359 c 1,56,57
 572 413 572 413 646 413 c 0,58,59
 790 413 790 413 790 261 c 2,60,-1
 790 0 l 1,34,-1
EndSplineSet
MultipleSubs2: "Multiple Substitution lookup 322 subtable" uni1B1E _reorder
MultipleSubs2: "Multiple Substitution lookup 266 subtable" uni1B1E _reorder
MultipleSubs2: "Multiple Substitution lookup 210 subtable" uni1B1E _reorder
MultipleSubs2: "Multiple Substitution lookup 149 subtable" uni1B1E _reorder
MultipleSubs2: "Multiple Substitution lookup 93 subtable" uni1B1E _reorder
MultipleSubs2: "Multiple Substitution lookup 37 subtable" uni1B1E _reorder
Position2: "Single Positioning lookup 332 subtable" dx=130 dy=0 dh=130 dv=0
Position2: "Single Positioning lookup 331 subtable" dx=130 dy=0 dh=130 dv=0
Position2: "Single Positioning lookup 330 subtable" dx=130 dy=0 dh=130 dv=0
Position2: "Single Positioning lookup 327 subtable" dx=130 dy=0 dh=130 dv=0
Position2: "Single Positioning lookup 325 subtable" dx=130 dy=0 dh=130 dv=0
Position2: "Single Positioning lookup 324 subtable" dx=130 dy=0 dh=130 dv=0
Position2: "Single Positioning lookup 321 subtable" dx=130 dy=0 dh=130 dv=0
Position2: "Single Positioning lookup 320 subtable" dx=130 dy=0 dh=130 dv=0
Position2: "Single Positioning lookup 319 subtable" dx=130 dy=0 dh=130 dv=0
Position2: "Single Positioning lookup 317 subtable" dx=130 dy=0 dh=130 dv=0
Position2: "Single Positioning lookup 316 subtable" dx=130 dy=0 dh=130 dv=0
Position2: "Single Positioning lookup 313 subtable" dx=130 dy=0 dh=130 dv=0
Position2: "Single Positioning lookup 312 subtable" dx=130 dy=0 dh=130 dv=0
Position2: "Single Positioning lookup 310 subtable" dx=130 dy=0 dh=130 dv=0
Position2: "Single Positioning lookup 309 subtable" dx=130 dy=0 dh=130 dv=0
Position2: "Single Positioning lookup 305 subtable" dx=130 dy=0 dh=130 dv=0
Position2: "Single Positioning lookup 302 subtable" dx=130 dy=0 dh=130 dv=0
Position2: "Single Positioning lookup 300 subtable" dx=130 dy=0 dh=130 dv=0
Position2: "Single Positioning lookup 299 subtable" dx=130 dy=0 dh=130 dv=0
Position2: "Single Positioning lookup 298 subtable" dx=130 dy=0 dh=130 dv=0
Position2: "Single Positioning lookup 296 subtable" dx=130 dy=0 dh=130 dv=0
Position2: "Single Positioning lookup 295 subtable" dx=130 dy=0 dh=130 dv=0
Position2: "Single Positioning lookup 294 subtable" dx=130 dy=0 dh=130 dv=0
Position2: "Single Positioning lookup 293 subtable" dx=171 dy=0 dh=171 dv=0
Position2: "Single Positioning lookup 292 subtable" dx=171 dy=0 dh=171 dv=0
Position2: "Single Positioning lookup 291 subtable" dx=171 dy=0 dh=171 dv=0
Position2: "Single Positioning lookup 287 subtable" dx=171 dy=0 dh=171 dv=0
Position2: "Single Positioning lookup 285 subtable" dx=171 dy=0 dh=171 dv=0
Position2: "Single Positioning lookup 284 subtable" dx=171 dy=0 dh=171 dv=0
Position2: "Single Positioning lookup 281 subtable" dx=171 dy=0 dh=171 dv=0
Position2: "Single Positioning lookup 280 subtable" dx=171 dy=0 dh=171 dv=0
Position2: "Single Positioning lookup 279 subtable" dx=171 dy=0 dh=171 dv=0
Position2: "Single Positioning lookup 277 subtable" dx=171 dy=0 dh=171 dv=0
Position2: "Single Positioning lookup 276 subtable" dx=171 dy=0 dh=171 dv=0
Position2: "Single Positioning lookup 275 subtable" dx=171 dy=0 dh=171 dv=0
Position2: "Single Positioning lookup 273 subtable" dx=171 dy=0 dh=171 dv=0
Position2: "Single Positioning lookup 272 subtable" dx=171 dy=0 dh=171 dv=0
Position2: "Single Positioning lookup 271 subtable" dx=171 dy=0 dh=171 dv=0
Position2: "Single Positioning lookup 270 subtable" dx=171 dy=0 dh=171 dv=0
Position2: "Single Positioning lookup 269 subtable" dx=171 dy=0 dh=171 dv=0
Position2: "Single Positioning lookup 265 subtable" dx=171 dy=0 dh=171 dv=0
Position2: "Single Positioning lookup 262 subtable" dx=171 dy=0 dh=171 dv=0
Position2: "Single Positioning lookup 261 subtable" dx=171 dy=0 dh=171 dv=0
Position2: "Single Positioning lookup 260 subtable" dx=171 dy=0 dh=171 dv=0
Position2: "Single Positioning lookup 259 subtable" dx=171 dy=0 dh=171 dv=0
Position2: "Single Positioning lookup 258 subtable" dx=171 dy=0 dh=171 dv=0
Position2: "Single Positioning lookup 256 subtable" dx=171 dy=0 dh=171 dv=0
Position2: "Single Positioning lookup 255 subtable" dx=171 dy=0 dh=171 dv=0
Position2: "Single Positioning lookup 254 subtable" dx=171 dy=0 dh=171 dv=0
Position2: "Single Positioning lookup 253 subtable" dx=89 dy=0 dh=89 dv=0
Position2: "Single Positioning lookup 252 subtable" dx=89 dy=0 dh=89 dv=0
Position2: "Single Positioning lookup 251 subtable" dx=89 dy=0 dh=89 dv=0
Position2: "Single Positioning lookup 248 subtable" dx=89 dy=0 dh=89 dv=0
Position2: "Single Positioning lookup 246 subtable" dx=89 dy=0 dh=89 dv=0
Position2: "Single Positioning lookup 245 subtable" dx=89 dy=0 dh=89 dv=0
Position2: "Single Positioning lookup 242 subtable" dx=89 dy=0 dh=89 dv=0
Position2: "Single Positioning lookup 241 subtable" dx=89 dy=0 dh=89 dv=0
Position2: "Single Positioning lookup 240 subtable" dx=89 dy=0 dh=89 dv=0
Position2: "Single Positioning lookup 234 subtable" dx=89 dy=0 dh=89 dv=0
Position2: "Single Positioning lookup 233 subtable" dx=89 dy=0 dh=89 dv=0
Position2: "Single Positioning lookup 231 subtable" dx=89 dy=0 dh=89 dv=0
Position2: "Single Positioning lookup 226 subtable" dx=89 dy=0 dh=89 dv=0
Position2: "Single Positioning lookup 223 subtable" dx=89 dy=0 dh=89 dv=0
Position2: "Single Positioning lookup 220 subtable" dx=89 dy=0 dh=89 dv=0
Position2: "Single Positioning lookup 219 subtable" dx=89 dy=0 dh=89 dv=0
Position2: "Single Positioning lookup 217 subtable" dx=89 dy=0 dh=89 dv=0
Position2: "Single Positioning lookup 215 subtable" dx=89 dy=0 dh=89 dv=0
Position2: "Single Positioning lookup 214 subtable" dx=221 dy=0 dh=221 dv=0
Position2: "Single Positioning lookup 213 subtable" dx=221 dy=0 dh=221 dv=0
Position2: "Single Positioning lookup 212 subtable" dx=221 dy=0 dh=221 dv=0
Position2: "Single Positioning lookup 208 subtable" dx=221 dy=0 dh=221 dv=0
Position2: "Single Positioning lookup 207 subtable" dx=221 dy=0 dh=221 dv=0
Position2: "Single Positioning lookup 206 subtable" dx=221 dy=0 dh=221 dv=0
Position2: "Single Positioning lookup 205 subtable" dx=221 dy=0 dh=221 dv=0
Position2: "Single Positioning lookup 204 subtable" dx=221 dy=0 dh=221 dv=0
Position2: "Single Positioning lookup 202 subtable" dx=221 dy=0 dh=221 dv=0
Position2: "Single Positioning lookup 201 subtable" dx=221 dy=0 dh=221 dv=0
Position2: "Single Positioning lookup 200 subtable" dx=221 dy=0 dh=221 dv=0
Position2: "Single Positioning lookup 198 subtable" dx=221 dy=0 dh=221 dv=0
Position2: "Single Positioning lookup 197 subtable" dx=221 dy=0 dh=221 dv=0
Position2: "Single Positioning lookup 196 subtable" dx=221 dy=0 dh=221 dv=0
Position2: "Single Positioning lookup 194 subtable" dx=221 dy=0 dh=221 dv=0
Position2: "Single Positioning lookup 193 subtable" dx=221 dy=0 dh=221 dv=0
Position2: "Single Positioning lookup 192 subtable" dx=221 dy=0 dh=221 dv=0
Position2: "Single Positioning lookup 191 subtable" dx=221 dy=0 dh=221 dv=0
Position2: "Single Positioning lookup 190 subtable" dx=221 dy=0 dh=221 dv=0
Position2: "Single Positioning lookup 186 subtable" dx=221 dy=0 dh=221 dv=0
Position2: "Single Positioning lookup 184 subtable" dx=221 dy=0 dh=221 dv=0
Position2: "Single Positioning lookup 183 subtable" dx=221 dy=0 dh=221 dv=0
Position2: "Single Positioning lookup 182 subtable" dx=221 dy=0 dh=221 dv=0
Position2: "Single Positioning lookup 181 subtable" dx=221 dy=0 dh=221 dv=0
Position2: "Single Positioning lookup 180 subtable" dx=221 dy=0 dh=221 dv=0
Position2: "Single Positioning lookup 179 subtable" dx=221 dy=0 dh=221 dv=0
Position2: "Single Positioning lookup 177 subtable" dx=221 dy=0 dh=221 dv=0
Position2: "Single Positioning lookup 176 subtable" dx=221 dy=0 dh=221 dv=0
Position2: "Single Positioning lookup 175 subtable" dx=221 dy=0 dh=221 dv=0
Position2: "Single Positioning lookup 174 subtable" dx=191 dy=0 dh=191 dv=0
Position2: "Single Positioning lookup 173 subtable" dx=191 dy=0 dh=191 dv=0
Position2: "Single Positioning lookup 172 subtable" dx=191 dy=0 dh=191 dv=0
Position2: "Single Positioning lookup 168 subtable" dx=191 dy=0 dh=191 dv=0
Position2: "Single Positioning lookup 167 subtable" dx=191 dy=0 dh=191 dv=0
Position2: "Single Positioning lookup 166 subtable" dx=191 dy=0 dh=191 dv=0
Position2: "Single Positioning lookup 165 subtable" dx=191 dy=0 dh=191 dv=0
Position2: "Single Positioning lookup 162 subtable" dx=191 dy=0 dh=191 dv=0
Position2: "Single Positioning lookup 161 subtable" dx=191 dy=0 dh=191 dv=0
Position2: "Single Positioning lookup 160 subtable" dx=191 dy=0 dh=191 dv=0
Position2: "Single Positioning lookup 158 subtable" dx=191 dy=0 dh=191 dv=0
Position2: "Single Positioning lookup 157 subtable" dx=191 dy=0 dh=191 dv=0
Position2: "Single Positioning lookup 156 subtable" dx=191 dy=0 dh=191 dv=0
Position2: "Single Positioning lookup 154 subtable" dx=191 dy=0 dh=191 dv=0
Position2: "Single Positioning lookup 153 subtable" dx=191 dy=0 dh=191 dv=0
Position2: "Single Positioning lookup 152 subtable" dx=191 dy=0 dh=191 dv=0
Position2: "Single Positioning lookup 151 subtable" dx=191 dy=0 dh=191 dv=0
Position2: "Single Positioning lookup 150 subtable" dx=191 dy=0 dh=191 dv=0
Position2: "Single Positioning lookup 146 subtable" dx=191 dy=0 dh=191 dv=0
Position2: "Single Positioning lookup 143 subtable" dx=191 dy=0 dh=191 dv=0
Position2: "Single Positioning lookup 142 subtable" dx=191 dy=0 dh=191 dv=0
Position2: "Single Positioning lookup 141 subtable" dx=191 dy=0 dh=191 dv=0
Position2: "Single Positioning lookup 140 subtable" dx=191 dy=0 dh=191 dv=0
Position2: "Single Positioning lookup 139 subtable" dx=191 dy=0 dh=191 dv=0
Position2: "Single Positioning lookup 137 subtable" dx=191 dy=0 dh=191 dv=0
Position2: "Single Positioning lookup 136 subtable" dx=191 dy=0 dh=191 dv=0
Position2: "Single Positioning lookup 135 subtable" dx=191 dy=0 dh=191 dv=0
Position2: "Single Positioning lookup 134 subtable" dx=274 dy=0 dh=274 dv=0
Position2: "Single Positioning lookup 133 subtable" dx=274 dy=0 dh=274 dv=0
Position2: "Single Positioning lookup 132 subtable" dx=274 dy=0 dh=274 dv=0
Position2: "Single Positioning lookup 130 subtable" dx=274 dy=0 dh=274 dv=0
Position2: "Single Positioning lookup 129 subtable" dx=274 dy=0 dh=274 dv=0
Position2: "Single Positioning lookup 128 subtable" dx=274 dy=0 dh=274 dv=0
Position2: "Single Positioning lookup 127 subtable" dx=274 dy=0 dh=274 dv=0
Position2: "Single Positioning lookup 126 subtable" dx=274 dy=0 dh=274 dv=0
Position2: "Single Positioning lookup 125 subtable" dx=274 dy=0 dh=274 dv=0
Position2: "Single Positioning lookup 124 subtable" dx=274 dy=0 dh=274 dv=0
Position2: "Single Positioning lookup 122 subtable" dx=274 dy=0 dh=274 dv=0
Position2: "Single Positioning lookup 121 subtable" dx=274 dy=0 dh=274 dv=0
Position2: "Single Positioning lookup 120 subtable" dx=274 dy=0 dh=274 dv=0
Position2: "Single Positioning lookup 119 subtable" dx=274 dy=0 dh=274 dv=0
Position2: "Single Positioning lookup 118 subtable" dx=274 dy=0 dh=274 dv=0
Position2: "Single Positioning lookup 117 subtable" dx=274 dy=0 dh=274 dv=0
Position2: "Single Positioning lookup 116 subtable" dx=274 dy=0 dh=274 dv=0
Position2: "Single Positioning lookup 114 subtable" dx=274 dy=0 dh=274 dv=0
Position2: "Single Positioning lookup 113 subtable" dx=274 dy=0 dh=274 dv=0
Position2: "Single Positioning lookup 112 subtable" dx=274 dy=0 dh=274 dv=0
Position2: "Single Positioning lookup 111 subtable" dx=274 dy=0 dh=274 dv=0
Position2: "Single Positioning lookup 110 subtable" dx=274 dy=0 dh=274 dv=0
Position2: "Single Positioning lookup 109 subtable" dx=274 dy=0 dh=274 dv=0
Position2: "Single Positioning lookup 108 subtable" dx=274 dy=0 dh=274 dv=0
Position2: "Single Positioning lookup 107 subtable" dx=274 dy=0 dh=274 dv=0
Position2: "Single Positioning lookup 106 subtable" dx=274 dy=0 dh=274 dv=0
Position2: "Single Positioning lookup 105 subtable" dx=274 dy=0 dh=274 dv=0
Position2: "Single Positioning lookup 104 subtable" dx=274 dy=0 dh=274 dv=0
Position2: "Single Positioning lookup 103 subtable" dx=274 dy=0 dh=274 dv=0
Position2: "Single Positioning lookup 102 subtable" dx=274 dy=0 dh=274 dv=0
Position2: "Single Positioning lookup 101 subtable" dx=274 dy=0 dh=274 dv=0
Position2: "Single Positioning lookup 100 subtable" dx=274 dy=0 dh=274 dv=0
Position2: "Single Positioning lookup 99 subtable" dx=274 dy=0 dh=274 dv=0
Position2: "Single Positioning lookup 98 subtable" dx=274 dy=0 dh=274 dv=0
Position2: "Single Positioning lookup 97 subtable" dx=274 dy=0 dh=274 dv=0
Position2: "Single Positioning lookup 96 subtable" dx=274 dy=0 dh=274 dv=0
Position2: "Single Positioning lookup 95 subtable" dx=274 dy=0 dh=274 dv=0
Position2: "Single Positioning lookup 48 subtable" dx=146 dy=0 dh=146 dv=0
Position2: "Single Positioning lookup 44 subtable" dx=0 dy=0 dh=302 dv=0
Position2: "Single Positioning lookup 43 subtable" dx=202 dy=0 dh=202 dv=0
Position2: "Single Positioning lookup 42 subtable" dx=0 dy=0 dh=270 dv=0
Position2: "Single Positioning lookup 41 subtable" dx=171 dy=0 dh=171 dv=0
Position2: "Single Positioning lookup 36 subtable" dx=38 dy=0 dh=38 dv=0
Position2: "Single Positioning lookup 33 subtable" dx=85 dy=0 dh=85 dv=0
Position2: "Single Positioning lookup 29 subtable" dx=160 dy=0 dh=160 dv=0
Position2: "Single Positioning lookup 28 subtable" dx=126 dy=0 dh=126 dv=0
Position2: "Single Positioning lookup 14 subtable" dx=0 dy=0 dh=213 dv=0
Position2: "Single Positioning lookup 13 subtable" dx=114 dy=0 dh=114 dv=0
Position2: "Single Positioning lookup 10 subtable" dx=24 dy=0 dh=24 dv=0
Position2: "Single Positioning lookup 7 subtable" dx=186 dy=0 dh=186 dv=0
Position2: "Single Positioning lookup 6 subtable" dx=60 dy=0 dh=60 dv=0
Position2: "Single Positioning lookup 4 subtable" dx=231 dy=0 dh=231 dv=0
EndChar

StartChar: uni1B1F
Encoding: 6943 6943 37
Width: 795
GlyphClass: 2
Flags: W
AnchorPoint: "Anchor-3" 427 0 basechar 0
AnchorPoint: "Anchor-0" 398 484 basechar 0
LayerCount: 2
Fore
SplineSet
745 0 m 1,0,-1
 666 0 l 1,1,-1
 666 288 l 2,2,3
 666 344 666 344 618 344 c 256,4,5
 570 344 570 344 570 288 c 2,6,-1
 570 143 l 2,7,8
 567 0 567 0 453 0 c 0,9,10
 369 0 369 0 339 52 c 1,11,12
 307 3 307 3 239 0 c 0,13,14
 152 1 152 1 123 67 c 0,15,16
 115 89 115 89 115 111 c 0,17,18
 115 146 115 146 133 182 c 2,19,-1
 177 274 l 2,20,21
 186 295 186 295 186 312 c 256,22,23
 186 329 186 329 175 341.5 c 128,-1,24
 164 354 164 354 147 354 c 2,25,-1
 136 353 l 1,26,27
 88 342 88 342 88 251 c 2,28,-1
 88 231 l 1,29,-1
 45 228 l 1,30,31
 30 270 30 270 30 303 c 0,32,33
 30 353 30 353 60.5 386 c 128,-1,34
 91 419 91 419 149 419 c 0,35,36
 202 419 202 419 231.5 388 c 128,-1,37
 261 357 261 357 261 310 c 0,38,39
 261 275 261 275 243 233 c 1,40,41
 197 149 197 149 197 110 c 0,42,43
 197 65 197 65 244 65 c 0,44,45
 293 66 293 66 314 145 c 1,46,-1
 369 145 l 1,47,48
 392 67 392 67 444 65 c 0,49,50
 489 67 489 67 490 133 c 2,51,-1
 490 279 l 2,52,53
 490 417 490 417 618 417 c 0,54,55
 745 417 745 417 745 279 c 2,56,-1
 745 0 l 1,0,-1
EndSplineSet
MultipleSubs2: "Multiple Substitution lookup 323 subtable" uni1B1F _reorder
MultipleSubs2: "Multiple Substitution lookup 267 subtable" uni1B1F _reorder
MultipleSubs2: "Multiple Substitution lookup 211 subtable" uni1B1F _reorder
MultipleSubs2: "Multiple Substitution lookup 150 subtable" uni1B1F _reorder
MultipleSubs2: "Multiple Substitution lookup 94 subtable" uni1B1F _reorder
MultipleSubs2: "Multiple Substitution lookup 38 subtable" uni1B1F _reorder
Position2: "Single Positioning lookup 332 subtable" dx=130 dy=0 dh=130 dv=0
Position2: "Single Positioning lookup 331 subtable" dx=130 dy=0 dh=130 dv=0
Position2: "Single Positioning lookup 330 subtable" dx=130 dy=0 dh=130 dv=0
Position2: "Single Positioning lookup 327 subtable" dx=130 dy=0 dh=130 dv=0
Position2: "Single Positioning lookup 325 subtable" dx=130 dy=0 dh=130 dv=0
Position2: "Single Positioning lookup 324 subtable" dx=130 dy=0 dh=130 dv=0
Position2: "Single Positioning lookup 321 subtable" dx=130 dy=0 dh=130 dv=0
Position2: "Single Positioning lookup 320 subtable" dx=130 dy=0 dh=130 dv=0
Position2: "Single Positioning lookup 319 subtable" dx=130 dy=0 dh=130 dv=0
Position2: "Single Positioning lookup 317 subtable" dx=130 dy=0 dh=130 dv=0
Position2: "Single Positioning lookup 316 subtable" dx=130 dy=0 dh=130 dv=0
Position2: "Single Positioning lookup 315 subtable" dx=130 dy=0 dh=130 dv=0
Position2: "Single Positioning lookup 313 subtable" dx=130 dy=0 dh=130 dv=0
Position2: "Single Positioning lookup 312 subtable" dx=130 dy=0 dh=130 dv=0
Position2: "Single Positioning lookup 311 subtable" dx=130 dy=0 dh=130 dv=0
Position2: "Single Positioning lookup 310 subtable" dx=130 dy=0 dh=130 dv=0
Position2: "Single Positioning lookup 309 subtable" dx=130 dy=0 dh=130 dv=0
Position2: "Single Positioning lookup 305 subtable" dx=130 dy=0 dh=130 dv=0
Position2: "Single Positioning lookup 302 subtable" dx=130 dy=0 dh=130 dv=0
Position2: "Single Positioning lookup 301 subtable" dx=130 dy=0 dh=130 dv=0
Position2: "Single Positioning lookup 300 subtable" dx=130 dy=0 dh=130 dv=0
Position2: "Single Positioning lookup 299 subtable" dx=130 dy=0 dh=130 dv=0
Position2: "Single Positioning lookup 298 subtable" dx=130 dy=0 dh=130 dv=0
Position2: "Single Positioning lookup 296 subtable" dx=130 dy=0 dh=130 dv=0
Position2: "Single Positioning lookup 295 subtable" dx=130 dy=0 dh=130 dv=0
Position2: "Single Positioning lookup 294 subtable" dx=130 dy=0 dh=130 dv=0
Position2: "Single Positioning lookup 293 subtable" dx=171 dy=0 dh=171 dv=0
Position2: "Single Positioning lookup 292 subtable" dx=171 dy=0 dh=171 dv=0
Position2: "Single Positioning lookup 291 subtable" dx=171 dy=0 dh=171 dv=0
Position2: "Single Positioning lookup 287 subtable" dx=171 dy=0 dh=171 dv=0
Position2: "Single Positioning lookup 286 subtable" dx=171 dy=0 dh=171 dv=0
Position2: "Single Positioning lookup 285 subtable" dx=171 dy=0 dh=171 dv=0
Position2: "Single Positioning lookup 284 subtable" dx=171 dy=0 dh=171 dv=0
Position2: "Single Positioning lookup 281 subtable" dx=171 dy=0 dh=171 dv=0
Position2: "Single Positioning lookup 280 subtable" dx=171 dy=0 dh=171 dv=0
Position2: "Single Positioning lookup 279 subtable" dx=171 dy=0 dh=171 dv=0
Position2: "Single Positioning lookup 277 subtable" dx=171 dy=0 dh=171 dv=0
Position2: "Single Positioning lookup 276 subtable" dx=171 dy=0 dh=171 dv=0
Position2: "Single Positioning lookup 275 subtable" dx=171 dy=0 dh=171 dv=0
Position2: "Single Positioning lookup 273 subtable" dx=171 dy=0 dh=171 dv=0
Position2: "Single Positioning lookup 272 subtable" dx=171 dy=0 dh=171 dv=0
Position2: "Single Positioning lookup 271 subtable" dx=171 dy=0 dh=171 dv=0
Position2: "Single Positioning lookup 270 subtable" dx=171 dy=0 dh=171 dv=0
Position2: "Single Positioning lookup 269 subtable" dx=171 dy=0 dh=171 dv=0
Position2: "Single Positioning lookup 265 subtable" dx=171 dy=0 dh=171 dv=0
Position2: "Single Positioning lookup 263 subtable" dx=171 dy=0 dh=171 dv=0
Position2: "Single Positioning lookup 262 subtable" dx=171 dy=0 dh=171 dv=0
Position2: "Single Positioning lookup 261 subtable" dx=171 dy=0 dh=171 dv=0
Position2: "Single Positioning lookup 260 subtable" dx=171 dy=0 dh=171 dv=0
Position2: "Single Positioning lookup 259 subtable" dx=171 dy=0 dh=171 dv=0
Position2: "Single Positioning lookup 258 subtable" dx=171 dy=0 dh=171 dv=0
Position2: "Single Positioning lookup 256 subtable" dx=171 dy=0 dh=171 dv=0
Position2: "Single Positioning lookup 255 subtable" dx=171 dy=0 dh=171 dv=0
Position2: "Single Positioning lookup 254 subtable" dx=171 dy=0 dh=171 dv=0
Position2: "Single Positioning lookup 253 subtable" dx=89 dy=0 dh=89 dv=0
Position2: "Single Positioning lookup 252 subtable" dx=89 dy=0 dh=89 dv=0
Position2: "Single Positioning lookup 251 subtable" dx=89 dy=0 dh=89 dv=0
Position2: "Single Positioning lookup 248 subtable" dx=89 dy=0 dh=89 dv=0
Position2: "Single Positioning lookup 246 subtable" dx=89 dy=0 dh=89 dv=0
Position2: "Single Positioning lookup 245 subtable" dx=89 dy=0 dh=89 dv=0
Position2: "Single Positioning lookup 242 subtable" dx=89 dy=0 dh=89 dv=0
Position2: "Single Positioning lookup 241 subtable" dx=89 dy=0 dh=89 dv=0
Position2: "Single Positioning lookup 240 subtable" dx=89 dy=0 dh=89 dv=0
Position2: "Single Positioning lookup 238 subtable" dx=89 dy=0 dh=89 dv=0
Position2: "Single Positioning lookup 237 subtable" dx=89 dy=0 dh=89 dv=0
Position2: "Single Positioning lookup 234 subtable" dx=89 dy=0 dh=89 dv=0
Position2: "Single Positioning lookup 233 subtable" dx=89 dy=0 dh=89 dv=0
Position2: "Single Positioning lookup 231 subtable" dx=89 dy=0 dh=89 dv=0
Position2: "Single Positioning lookup 230 subtable" dx=89 dy=0 dh=89 dv=0
Position2: "Single Positioning lookup 226 subtable" dx=89 dy=0 dh=89 dv=0
Position2: "Single Positioning lookup 223 subtable" dx=89 dy=0 dh=89 dv=0
Position2: "Single Positioning lookup 221 subtable" dx=89 dy=0 dh=89 dv=0
Position2: "Single Positioning lookup 220 subtable" dx=89 dy=0 dh=89 dv=0
Position2: "Single Positioning lookup 219 subtable" dx=89 dy=0 dh=89 dv=0
Position2: "Single Positioning lookup 217 subtable" dx=89 dy=0 dh=89 dv=0
Position2: "Single Positioning lookup 216 subtable" dx=89 dy=0 dh=89 dv=0
Position2: "Single Positioning lookup 215 subtable" dx=89 dy=0 dh=89 dv=0
Position2: "Single Positioning lookup 214 subtable" dx=221 dy=0 dh=221 dv=0
Position2: "Single Positioning lookup 213 subtable" dx=221 dy=0 dh=221 dv=0
Position2: "Single Positioning lookup 212 subtable" dx=221 dy=0 dh=221 dv=0
Position2: "Single Positioning lookup 210 subtable" dx=221 dy=0 dh=221 dv=0
Position2: "Single Positioning lookup 209 subtable" dx=221 dy=0 dh=221 dv=0
Position2: "Single Positioning lookup 208 subtable" dx=221 dy=0 dh=221 dv=0
Position2: "Single Positioning lookup 207 subtable" dx=221 dy=0 dh=221 dv=0
Position2: "Single Positioning lookup 206 subtable" dx=221 dy=0 dh=221 dv=0
Position2: "Single Positioning lookup 205 subtable" dx=221 dy=0 dh=221 dv=0
Position2: "Single Positioning lookup 204 subtable" dx=221 dy=0 dh=221 dv=0
Position2: "Single Positioning lookup 202 subtable" dx=221 dy=0 dh=221 dv=0
Position2: "Single Positioning lookup 201 subtable" dx=221 dy=0 dh=221 dv=0
Position2: "Single Positioning lookup 200 subtable" dx=221 dy=0 dh=221 dv=0
Position2: "Single Positioning lookup 199 subtable" dx=221 dy=0 dh=221 dv=0
Position2: "Single Positioning lookup 198 subtable" dx=221 dy=0 dh=221 dv=0
Position2: "Single Positioning lookup 197 subtable" dx=221 dy=0 dh=221 dv=0
Position2: "Single Positioning lookup 196 subtable" dx=221 dy=0 dh=221 dv=0
Position2: "Single Positioning lookup 194 subtable" dx=221 dy=0 dh=221 dv=0
Position2: "Single Positioning lookup 193 subtable" dx=221 dy=0 dh=221 dv=0
Position2: "Single Positioning lookup 192 subtable" dx=221 dy=0 dh=221 dv=0
Position2: "Single Positioning lookup 191 subtable" dx=221 dy=0 dh=221 dv=0
Position2: "Single Positioning lookup 190 subtable" dx=221 dy=0 dh=221 dv=0
Position2: "Single Positioning lookup 189 subtable" dx=221 dy=0 dh=221 dv=0
Position2: "Single Positioning lookup 186 subtable" dx=221 dy=0 dh=221 dv=0
Position2: "Single Positioning lookup 185 subtable" dx=221 dy=0 dh=221 dv=0
Position2: "Single Positioning lookup 184 subtable" dx=221 dy=0 dh=221 dv=0
Position2: "Single Positioning lookup 183 subtable" dx=221 dy=0 dh=221 dv=0
Position2: "Single Positioning lookup 182 subtable" dx=221 dy=0 dh=221 dv=0
Position2: "Single Positioning lookup 181 subtable" dx=221 dy=0 dh=221 dv=0
Position2: "Single Positioning lookup 180 subtable" dx=221 dy=0 dh=221 dv=0
Position2: "Single Positioning lookup 179 subtable" dx=221 dy=0 dh=221 dv=0
Position2: "Single Positioning lookup 178 subtable" dx=221 dy=0 dh=221 dv=0
Position2: "Single Positioning lookup 177 subtable" dx=221 dy=0 dh=221 dv=0
Position2: "Single Positioning lookup 176 subtable" dx=221 dy=0 dh=221 dv=0
Position2: "Single Positioning lookup 175 subtable" dx=221 dy=0 dh=221 dv=0
Position2: "Single Positioning lookup 174 subtable" dx=191 dy=0 dh=191 dv=0
Position2: "Single Positioning lookup 173 subtable" dx=191 dy=0 dh=191 dv=0
Position2: "Single Positioning lookup 172 subtable" dx=191 dy=0 dh=191 dv=0
Position2: "Single Positioning lookup 170 subtable" dx=191 dy=0 dh=191 dv=0
Position2: "Single Positioning lookup 169 subtable" dx=191 dy=0 dh=191 dv=0
Position2: "Single Positioning lookup 168 subtable" dx=191 dy=0 dh=191 dv=0
Position2: "Single Positioning lookup 167 subtable" dx=191 dy=0 dh=191 dv=0
Position2: "Single Positioning lookup 166 subtable" dx=191 dy=0 dh=191 dv=0
Position2: "Single Positioning lookup 165 subtable" dx=191 dy=0 dh=191 dv=0
Position2: "Single Positioning lookup 164 subtable" dx=191 dy=0 dh=191 dv=0
Position2: "Single Positioning lookup 162 subtable" dx=191 dy=0 dh=191 dv=0
Position2: "Single Positioning lookup 161 subtable" dx=191 dy=0 dh=191 dv=0
Position2: "Single Positioning lookup 160 subtable" dx=191 dy=0 dh=191 dv=0
Position2: "Single Positioning lookup 159 subtable" dx=191 dy=0 dh=191 dv=0
Position2: "Single Positioning lookup 158 subtable" dx=191 dy=0 dh=191 dv=0
Position2: "Single Positioning lookup 157 subtable" dx=191 dy=0 dh=191 dv=0
Position2: "Single Positioning lookup 156 subtable" dx=191 dy=0 dh=191 dv=0
Position2: "Single Positioning lookup 154 subtable" dx=191 dy=0 dh=191 dv=0
Position2: "Single Positioning lookup 153 subtable" dx=191 dy=0 dh=191 dv=0
Position2: "Single Positioning lookup 152 subtable" dx=191 dy=0 dh=191 dv=0
Position2: "Single Positioning lookup 151 subtable" dx=191 dy=0 dh=191 dv=0
Position2: "Single Positioning lookup 150 subtable" dx=191 dy=0 dh=191 dv=0
Position2: "Single Positioning lookup 149 subtable" dx=191 dy=0 dh=191 dv=0
Position2: "Single Positioning lookup 146 subtable" dx=191 dy=0 dh=191 dv=0
Position2: "Single Positioning lookup 144 subtable" dx=191 dy=0 dh=191 dv=0
Position2: "Single Positioning lookup 143 subtable" dx=191 dy=0 dh=191 dv=0
Position2: "Single Positioning lookup 142 subtable" dx=191 dy=0 dh=191 dv=0
Position2: "Single Positioning lookup 141 subtable" dx=191 dy=0 dh=191 dv=0
Position2: "Single Positioning lookup 140 subtable" dx=191 dy=0 dh=191 dv=0
Position2: "Single Positioning lookup 139 subtable" dx=191 dy=0 dh=191 dv=0
Position2: "Single Positioning lookup 138 subtable" dx=191 dy=0 dh=191 dv=0
Position2: "Single Positioning lookup 137 subtable" dx=191 dy=0 dh=191 dv=0
Position2: "Single Positioning lookup 136 subtable" dx=191 dy=0 dh=191 dv=0
Position2: "Single Positioning lookup 135 subtable" dx=191 dy=0 dh=191 dv=0
Position2: "Single Positioning lookup 134 subtable" dx=274 dy=0 dh=274 dv=0
Position2: "Single Positioning lookup 133 subtable" dx=274 dy=0 dh=274 dv=0
Position2: "Single Positioning lookup 132 subtable" dx=274 dy=0 dh=274 dv=0
Position2: "Single Positioning lookup 130 subtable" dx=274 dy=0 dh=274 dv=0
Position2: "Single Positioning lookup 129 subtable" dx=274 dy=0 dh=274 dv=0
Position2: "Single Positioning lookup 128 subtable" dx=274 dy=0 dh=274 dv=0
Position2: "Single Positioning lookup 127 subtable" dx=274 dy=0 dh=274 dv=0
Position2: "Single Positioning lookup 126 subtable" dx=274 dy=0 dh=274 dv=0
Position2: "Single Positioning lookup 125 subtable" dx=274 dy=0 dh=274 dv=0
Position2: "Single Positioning lookup 124 subtable" dx=274 dy=0 dh=274 dv=0
Position2: "Single Positioning lookup 123 subtable" dx=274 dy=0 dh=274 dv=0
Position2: "Single Positioning lookup 122 subtable" dx=274 dy=0 dh=274 dv=0
Position2: "Single Positioning lookup 121 subtable" dx=274 dy=0 dh=274 dv=0
Position2: "Single Positioning lookup 120 subtable" dx=274 dy=0 dh=274 dv=0
Position2: "Single Positioning lookup 119 subtable" dx=274 dy=0 dh=274 dv=0
Position2: "Single Positioning lookup 118 subtable" dx=274 dy=0 dh=274 dv=0
Position2: "Single Positioning lookup 117 subtable" dx=274 dy=0 dh=274 dv=0
Position2: "Single Positioning lookup 116 subtable" dx=274 dy=0 dh=274 dv=0
Position2: "Single Positioning lookup 115 subtable" dx=274 dy=0 dh=274 dv=0
Position2: "Single Positioning lookup 114 subtable" dx=274 dy=0 dh=274 dv=0
Position2: "Single Positioning lookup 113 subtable" dx=274 dy=0 dh=274 dv=0
Position2: "Single Positioning lookup 112 subtable" dx=274 dy=0 dh=274 dv=0
Position2: "Single Positioning lookup 111 subtable" dx=274 dy=0 dh=274 dv=0
Position2: "Single Positioning lookup 110 subtable" dx=274 dy=0 dh=274 dv=0
Position2: "Single Positioning lookup 109 subtable" dx=274 dy=0 dh=274 dv=0
Position2: "Single Positioning lookup 108 subtable" dx=274 dy=0 dh=274 dv=0
Position2: "Single Positioning lookup 107 subtable" dx=274 dy=0 dh=274 dv=0
Position2: "Single Positioning lookup 106 subtable" dx=274 dy=0 dh=274 dv=0
Position2: "Single Positioning lookup 105 subtable" dx=274 dy=0 dh=274 dv=0
Position2: "Single Positioning lookup 104 subtable" dx=274 dy=0 dh=274 dv=0
Position2: "Single Positioning lookup 103 subtable" dx=274 dy=0 dh=274 dv=0
Position2: "Single Positioning lookup 102 subtable" dx=274 dy=0 dh=274 dv=0
Position2: "Single Positioning lookup 101 subtable" dx=274 dy=0 dh=274 dv=0
Position2: "Single Positioning lookup 100 subtable" dx=274 dy=0 dh=274 dv=0
Position2: "Single Positioning lookup 99 subtable" dx=274 dy=0 dh=274 dv=0
Position2: "Single Positioning lookup 98 subtable" dx=274 dy=0 dh=274 dv=0
Position2: "Single Positioning lookup 97 subtable" dx=274 dy=0 dh=274 dv=0
Position2: "Single Positioning lookup 96 subtable" dx=274 dy=0 dh=274 dv=0
Position2: "Single Positioning lookup 95 subtable" dx=274 dy=0 dh=274 dv=0
Position2: "Single Positioning lookup 49 subtable" dx=36 dy=0 dh=36 dv=0
Position2: "Single Positioning lookup 48 subtable" dx=191 dy=0 dh=191 dv=0
Position2: "Single Positioning lookup 47 subtable" dx=35 dy=0 dh=35 dv=0
Position2: "Single Positioning lookup 44 subtable" dx=0 dy=0 dh=304 dv=0
Position2: "Single Positioning lookup 43 subtable" dx=245 dy=0 dh=245 dv=0
Position2: "Single Positioning lookup 42 subtable" dx=0 dy=0 dh=272 dv=0
Position2: "Single Positioning lookup 41 subtable" dx=214 dy=0 dh=214 dv=0
Position2: "Single Positioning lookup 36 subtable" dx=83 dy=0 dh=83 dv=0
Position2: "Single Positioning lookup 33 subtable" dx=130 dy=0 dh=130 dv=0
Position2: "Single Positioning lookup 29 subtable" dx=205 dy=0 dh=205 dv=0
Position2: "Single Positioning lookup 28 subtable" dx=171 dy=0 dh=171 dv=0
Position2: "Single Positioning lookup 22 subtable" dx=35 dy=0 dh=35 dv=0
Position2: "Single Positioning lookup 14 subtable" dx=0 dy=0 dh=215 dv=0
Position2: "Single Positioning lookup 13 subtable" dx=157 dy=0 dh=157 dv=0
Position2: "Single Positioning lookup 10 subtable" dx=69 dy=0 dh=69 dv=0
Position2: "Single Positioning lookup 7 subtable" dx=231 dy=0 dh=231 dv=0
Position2: "Single Positioning lookup 6 subtable" dx=105 dy=0 dh=105 dv=0
Position2: "Single Positioning lookup 4 subtable" dx=276 dy=0 dh=276 dv=0
Position2: "Single Positioning lookup 2 subtable" dx=21 dy=0 dh=21 dv=0
EndChar

